<?xml version="1.0" standalone="no"?><!DOCTYPE svg PUBLIC "-//W3C//DTD SVG 1.1//EN" "http://www.w3.org/Graphics/SVG/1.1/DTD/svg11.dtd"><svg t="1543999175439" class="icon" style="" viewBox="0 0 1575 1024" version="1.1" xmlns="http://www.w3.org/2000/svg" p-id="108523" xmlns:xlink="http://www.w3.org/1999/xlink" width="24.609375" height="16"><defs><style type="text/css"></style></defs><path d="M281.993846 756.499692c-33.870769-7.561846-56.398769-34.185846-56.398769-72.231384V300.347077c3.780923-34.264615 26.308923-60.809846 56.398769-68.450462l353.437539-76.012307 37.572923-152.024616H263.168C116.578462 0 0 117.76 0 262.301538v456.231385C0 862.995692 120.280615 984.615385 263.168 984.615385h409.836308l-37.572923-152.024616-353.437539-76.091077zM1312.216615 0h-413.538461l37.494154 152.024615 353.437538 76.091077c33.870769 7.561846 56.398769 34.185846 56.398769 68.371693V680.566154c-3.702154 34.185846-26.308923 60.809846-56.398769 68.450461l-353.437538 76.012308-37.572923 152.024615h413.538461c142.966154 0 263.246769-117.838769 263.246769-266.082461V254.739692C1571.603692 117.838769 1455.104 0 1312.216615 0z" fill="#000000" p-id="108524"></path><path d="M656.384 459.460923H984.615385v65.693539H656.384z" fill="#000000" p-id="108525"></path></svg>