<?xml version="1.0" standalone="no"?><!DOCTYPE svg PUBLIC "-//W3C//DTD SVG 1.1//EN" "http://www.w3.org/Graphics/SVG/1.1/DTD/svg11.dtd"><svg t="1545915054773" class="icon" style="" viewBox="0 0 1024 1024" version="1.1" xmlns="http://www.w3.org/2000/svg" p-id="2246" xmlns:xlink="http://www.w3.org/1999/xlink" width="16" height="16"><defs><style type="text/css"></style></defs><path d="M198.4 192h147.2l-64 64 198.4 192v19.2h-19.2l-198.4-192-64 64V192z" fill="#ADD43B" p-id="2247"></path><path d="M684.8 192h140.8v140.8l-64-64-198.4 198.4h-12.8v-12.8l192-198.4-57.6-64z" fill="#A73A8A" p-id="2248"></path><path d="M556.8 550.4H576l192 198.4 64-64v140.8h-140.8l57.6-57.6-192-198.4v-19.2z" fill="#F5B52E" p-id="2249"></path><path d="M460.8 550.4h19.2v19.2L281.6 768l57.6 64H198.4v-140.8l64 64 198.4-204.8z" fill="#34378B" p-id="2250"></path><path d="M198.4 384l64-70.4 160 160H198.4V384z" fill="#ADD43B" p-id="2251"></path><path d="M422.4 550.4l-160 160-64-64V550.4h224z" fill="#34378B" p-id="2252"></path><path d="M64 518.4l102.4-108.8v89.6H448l12.8 12.8-12.8 12.8H166.4v89.6L64 518.4z m544-44.8L768 313.6l64 64v96H608z" fill="#A73A8A" p-id="2253"></path><path d="M825.6 640l-64 70.4-153.6-160H832V640z" fill="#F5B52E" p-id="2254"></path><path d="M569.6 512l6.4-12.8h281.6V409.6L960 512l-102.4 102.4V524.8H576L569.6 512z" fill="#34378B" p-id="2255"></path><path d="M556.8 601.6l153.6 160-64 57.6H556.8V601.6z" fill="#F5B52E" p-id="2256"></path><path d="M499.2 576l12.8-12.8 12.8 12.8v275.2h89.6L512 953.6l-108.8-108.8h96V576z" fill="#ADD43B" p-id="2257"></path><path d="M313.6 761.6l160-160v224H377.6l-64-64z" fill="#34378B" p-id="2258"></path><path d="M556.8 422.4l153.6-160-64-57.6H556.8v217.6z" fill="#A73A8A" p-id="2259"></path><path d="M499.2 448l12.8 12.8 12.8-12.8V172.8h89.6L512 64 403.2 172.8h96V448z" fill="#F5B52E" p-id="2260"></path><path d="M313.6 262.4l160 160V198.4H377.6l-64 64z" fill="#ADD43B" p-id="2261"></path></svg>