<?xml version="1.0" standalone="no"?><!DOCTYPE svg PUBLIC "-//W3C//DTD SVG 1.1//EN" "http://www.w3.org/Graphics/SVG/1.1/DTD/svg11.dtd"><svg t="1544262630316" class="icon" style="" viewBox="0 0 1024 1024" version="1.1" xmlns="http://www.w3.org/2000/svg" p-id="1374" xmlns:xlink="http://www.w3.org/1999/xlink" width="16" height="16"><defs><style type="text/css"></style></defs><path d="M568.656 100.109c69.688 0 126.406 56.703 126.406 126.406 0 69.688-56.719 126.391-126.406 126.391-69.703 0-126.406-56.703-126.406-126.391 0-69.702 56.703-126.406 126.406-126.406m0-64c-105.156 0-190.406 85.25-190.406 190.406 0 105.141 85.25 190.391 190.406 190.391s190.406-85.25 190.406-190.391c0.001-105.156-85.249-190.406-190.406-190.406" fill="#707070" p-id="1375"></path><path d="M904.25 836.656c-5.25-59-2.594-46.563-7.969-98.156-13.406-128.781-36.531-214.516-61.969-323.531l-39.719-170.281-79.281 165.422-13.125 27.359c-5.094 9.844-10.5 19.672-16.406 29.234A547.415 547.415 0 0 1 648 522.844c-27.031 36.188-58.344 68.781-93.469 97.781C519.437 649.656 480.14 674.844 436.64 696c-21.984 9.563-44.406 20.813-68.313 28.406-17.188 6.906-78.688 26.375-93.5 25.813-10.719-29.969-26.406-69.344-38.156-98.969-15.734-38.469-30.266-77.344-47.547-115.266-33.188-76.313-69.047-151.703-112.797-224.344 10.781 84.094 29.406 165.5 50.75 245.922 9.953 40.469 22.656 80 34.172 119.906 11.969 39.781 25.156 79.125 38.563 118.406 5.641 16.063 20.828 28.031 38.844 28.438 38.125 1 76.266 1.531 114.406 1.063 38.172-1.375 76.313-0.969 114.531-3.906 76.375-4.063 152.875-11.25 229.563-26.875-69.906-18.344-303.641-27.875-373.828-36 55.172-1.688 215.891-36.969 258.266-55.031 52.969-22.531 121.031-65.313 164.188-102.281 21.656-18.594 37.5 59.125 74.281 165.281 19.156 52.844 10.656 31.094 31.906 83.406C872.656 902.5 894.656 954.625 919.594 1006c-2.719-57.062-10.344-113.156-15.344-169.344" fill="#707070" p-id="1376"></path></svg>