<?xml version="1.0" standalone="no"?><!DOCTYPE svg PUBLIC "-//W3C//DTD SVG 1.1//EN" "http://www.w3.org/Graphics/SVG/1.1/DTD/svg11.dtd"><svg t="1545915658605" class="icon" style="" viewBox="0 0 1024 1024" version="1.1" xmlns="http://www.w3.org/2000/svg" p-id="5249" xmlns:xlink="http://www.w3.org/1999/xlink" width="16" height="16"><defs><style type="text/css"></style></defs><path d="M512 64C262.4 64 64 262.4 64 512s198.4 448 448 448 448-198.4 448-448-198.4-448-448-448z m204.8 460.8c-6.4 6.4-6.4 12.8-19.2 19.2-12.8 6.4-38.4 12.8-83.2 25.6-25.6 6.4-70.4 6.4-89.6 6.4C512 576 448 569.6 448 569.6s-6.4-6.4 0-96 32-121.6 44.8-134.4c6.4-19.2 19.2-25.6 19.2-25.6h25.6c96 12.8 172.8 96 172.8 192 6.4 12.8 6.4 12.8 6.4 19.2z" fill="#52A3D9" p-id="5250"></path><path d="M556.8 108.8h-57.6s-25.6 6.4-51.2 38.4-76.8 89.6-96 281.6c-12.8 192 0 204.8 0 204.8s140.8 12.8 166.4 6.4c32 0 128 0 185.6-19.2 89.6-19.2 140.8-38.4 166.4-51.2 19.2-12.8 25.6-25.6 38.4-38.4V512c6.4-211.2-147.2-377.6-352-403.2z m160 416c-6.4 6.4-6.4 12.8-19.2 19.2-12.8 6.4-38.4 12.8-83.2 25.6-25.6 6.4-70.4 6.4-89.6 6.4C512 576 448 569.6 448 569.6s-6.4-6.4 0-96 32-121.6 44.8-134.4c6.4-19.2 19.2-25.6 19.2-25.6h25.6c96 12.8 172.8 96 172.8 192 6.4 12.8 6.4 12.8 6.4 19.2z" fill="#F15E6E" p-id="5251"></path></svg>