<?xml version="1.0" standalone="no"?><!DOCTYPE svg PUBLIC "-//W3C//DTD SVG 1.1//EN" "http://www.w3.org/Graphics/SVG/1.1/DTD/svg11.dtd"><svg t="1545915351319" class="icon" style="" viewBox="0 0 1024 1024" version="1.1" xmlns="http://www.w3.org/2000/svg" p-id="3579" xmlns:xlink="http://www.w3.org/1999/xlink" width="16" height="16"><defs><style type="text/css"></style></defs><path d="M775.068 451.528c0.844 22.656-6.612 33.682-13.356 53.146-23.058 18.728-45.298 71.328-75.294 79.334-7.368-0.174 4.976-8.688 6.594-12.028-20.72 14.224-49.25 27.95-49.25 27.95-78.152 36.776-186.722-36.104-185.292-135.508-0.82 6.308-2.374 4.732-4.106 7.26-4.024-51.138 23.626-102.498 70.264-123.506 45.632-22.574 99.12-13.322 131.772 17.16-17.938-23.51-53.672-48.448-95.992-46.132-97.968 6.068-121.764 79.568-126.196 114.21-6.07 44.56-0.812 88.874 27.546 125.13 17.26 22.058 54.124 39.942 60.554 64.838-20.164-9.442-38.626-23.692-53.828-41.154 8.07 11.802 16.77 23.246 28.02 32.262-19.04-6.424-44.452-46.086-51.858-47.702 32.794 58.708 133.012 102.964 185.53 80.996-24.296 0.902-55.158 0.502-82.434-9.58-11.492-5.898-27.06-18.112-24.282-20.392 71.644 26.75 145.63 20.246 207.606-29.426 15.784-12.296 26.668-28.406 49.734-61.852l8.524 11.73c-3.192-21.056 26.126-46.594 23.142-79.858 6.726-10.172 7.488 10.958 0.37 34.356 9.892-25.956 2.616-30.138 5.15-51.556 2.722 7.204 6.358 14.848 8.204 22.458-6.996-27.242 10.362-44.944 4.846-70.406-3.664-16.89-11.064-27.514-14.804-45.134 2.902-4.454 7.808 11.536 11.78 12.174-2.55-15.036-11.254-34.814-20.678-48.486-12.378-38.598 36.346 18.358 28.948-1.576 5.716 2.41-9.188-43.748 7.424-13.182-17.726-65.158-75.78-126.042-129.214-154.606 6.522 5.978 14.774 13.476 11.82 14.668-26.586-15.808-21.918-17.062-25.722-23.74-36.104-14.708-83.378-18.368-123.6-32.878l1.7 7.99c-27.03-9.008-31.494 3.396-60.698 0.018-1.78-1.38 9.352-5.03 18.534-6.35-26.126 3.454-24.916-5.16-50.49 0.944 6.298-4.414 12.976-7.35 19.696-11.1-21.302 1.288-50.884 12.394-41.762 2.282C429.208 109.8 367.46 131.58 332.82 164.064l-1.09-7.278c-92.236 110.686-160.258 187.77-150.504 343.262-10.656 192.73 135.27 379.854 294.778 423.042 23.38 8.376 58.136 8.08 87.718 8.908-34.896-9.99-39.39-5.284-73.392-17.136-24.512-11.566-29.884-24.74-47.26-39.816l6.882 12.148c-34.058-12.06-19.81-14.914-47.52-23.674l7.342-9.582c-52.772-4.038-138.978-142.234-134.196-183.014 6.518 8.802 11.042 10.452 15.526 11.954-30.876-76.584-32.606-4.208-55.982-77.954 6.248-62.22-9.672-128.912-5.03-194.916 2.2-18.636 18.546-38.472 30.958-69.596l-7.564-1.294c14.46-25.216 82.572-101.316 114.138-97.412 15.28-19.196-3.042-0.074-6.03-4.896 31.368-32.458 98.364-61.952 142.422-66.316 5.816 3.298 93.034-3.904 142.52 18.942 57.39 26.84 121.918 106.142 124.46 180.756l2.902 0.78c-1.464 29.662 1.17 80.556 1.17 80.556" fill="#008CDB" p-id="3580"></path></svg>