<?xml version="1.0" standalone="no"?><!DOCTYPE svg PUBLIC "-//W3C//DTD SVG 1.1//EN" "http://www.w3.org/Graphics/SVG/1.1/DTD/svg11.dtd"><svg t="1543993583321" class="icon" style="" viewBox="0 0 1024 1024" version="1.1" xmlns="http://www.w3.org/2000/svg" p-id="102053" xmlns:xlink="http://www.w3.org/1999/xlink" width="16" height="16"><defs><style type="text/css"></style></defs><path d="M529.28 405.216h91.52v93.568h46.272a200.704 200.704 0 0 0 63.616-10.656 162.912 162.912 0 0 0 30.912-13.952 114.688 114.688 0 0 1-21.44-59.168 125.024 125.024 0 0 1 22.4-88.096l9.6-11.136 11.456 9.216a145.856 145.856 0 0 1 57.44 92.544 140 140 0 0 1 106.208 9.888l12.576 7.232-6.624 12.8a132.512 132.512 0 0 1-133.024 63.456c-79.36 197.376-251.872 290.816-461.088 290.816-108.096 0-207.232-40.416-263.712-136.288l-0.928-1.568-8.064-16.608a266.112 266.112 0 0 1-21.088-134.656l1.28-13.856h78.24v-93.536h91.552V313.6h183.072V222.144h109.824v183.072z" fill="#0096E6" p-id="102054"></path><path d="M384.192 786.144a192.704 192.704 0 0 1-100.48-98.848 330.528 330.528 0 0 1-72.448 10.976q-16 0.896-33.44 0.896-20.224 0-42.592-1.184a289.632 289.632 0 0 0 224 88.608q12.544 0 24.96-0.448zM226.56 427.072h6.4v66.144h-6.4z m-12.032 0h6.4v66.144H214.4v-66.144z m-12.032 0h6.4v66.144h-6.4z m-12.032 0h6.4v66.144h-6.4z m-12.032 0h6.4v66.144h-6.4z m-11.776 0h6.4v66.144h-6.4v-66.144zM160 420.48h79.424v79.328H160z m91.488-91.552h79.36v79.328H251.616z m66.464 6.624h6.4v66.112h-6.4z m-12.032 0h6.4v66.112h-6.4z m-12.032 0h6.4v66.112h-6.4v-66.112z m-12.032 0h6.4v66.112h-6.4z m-12.032 0h6.4v66.112h-6.4z m-11.776 0h6.4v66.112h-6.4z m-6.624 84.896h79.36v79.36H251.616V420.48z m66.464 6.624h6.4v66.144h-6.4z m-12.032 0h6.4v66.144h-6.4z m-12.032 0h6.4v66.144h-6.4v-66.144z m-12.032 0h6.4v66.144h-6.4z m-12.032 0h6.4v66.144h-6.4z m-11.776 0h6.4v66.144h-6.4z m84.928-6.624H422.4v79.36h-79.36V420.48z m66.432 6.624H416v66.144h-6.4z m-12.032 0h6.4v66.144h-6.4z m-12.032 0h6.4v66.144h-6.4z m-12.032 0h6.4v66.144h-6.4z m-12.032 0h6.4v66.144h-6.4z m-11.776 0h6.4v66.144h-6.4z m-6.592-98.144H422.4v79.328h-79.36v-79.328z m66.432 6.624H416v66.112h-6.4z m-12.032 0h6.4v66.112h-6.4z m-12.032 0h6.4v66.112h-6.4z m-12.032 0h6.4v66.112h-6.4z m-12.032 0h6.4v66.112h-6.4z m-11.776 0h6.4v66.112h-6.4z m84.928 84.896h79.328v79.36h-79.36V420.48z m66.432 6.624h6.4v66.144h-6.4z m-12.032 0h6.4v66.144h-6.4z m-12.032 0h6.4v66.144h-6.4z m-12.032 0h6.4v66.144h-6.4z m-12.032 0h6.4v66.144h-6.4z m-11.776 0h6.144v66.144h-6.4v-66.144z m-6.592-98.144h79.328v79.328h-79.36v-79.328z m66.432 6.624h6.4v66.112h-6.4z m-12.032 0h6.4v66.112h-6.4z m-12.032 0h6.4v66.112h-6.4z m-12.032 0h6.4v66.112h-6.4z m-12.032 0h6.4v66.112h-6.4z m-11.776 0h6.144v66.112h-6.4v-66.112z m-6.592-98.144h79.328V316.8h-79.36V237.408z m66.432 6.592h6.4v66.112h-6.4z m-12.032 0h6.4v66.112h-6.4z m-12.032 0h6.4v66.112h-6.4z m-12.032 0h6.4v66.112h-6.4z m-12.032 0h6.4v66.112h-6.4z m-11.776 0h6.144v66.112h-6.4V244z m84.928 176.448h79.328v79.36h-79.36V420.48z m66.432 6.624h6.24v66.144h-6.4v-66.144z m-12.032 0h6.592v66.144h-6.592z m-12.032 0h6.4v66.144h-6.4z m-12.032 0h6.4v66.144h-6.4z m-12.032 0h6.4v66.144h-6.56v-66.144z m-11.776 0h6.4v66.144h-6.208v-66.144zM326.016 628.416a21.888 21.888 0 1 1-21.888 21.888 21.888 21.888 0 0 1 21.888-21.888z m0 6.208a15.648 15.648 0 0 1 5.664 1.056 6.4 6.4 0 1 0 8.8 8.608 15.68 15.68 0 1 1-14.496-9.6z" fill="#FFFFFF" p-id="102055"></path></svg>