<?xml version="1.0" standalone="no"?><!DOCTYPE svg PUBLIC "-//W3C//DTD SVG 1.1//EN" "http://www.w3.org/Graphics/SVG/1.1/DTD/svg11.dtd"><svg t="1545915448372" class="icon" style="" viewBox="0 0 1024 1024" version="1.1" xmlns="http://www.w3.org/2000/svg" p-id="4650" xmlns:xlink="http://www.w3.org/1999/xlink" width="16" height="16"><defs><style type="text/css"></style></defs><path d="M1004.43010595 499.61226955C1004.53065573 228.89209518 785.15118892 9.35174877 514.43101457 9.25119901S24.17049378 228.53011605 24.06994402 499.2502904v379.31391538a111.4091343 111.4091343 0 0 0 111.44935421 111.20803479h378.93182627c270.63973456-0.0804398 489.97898144-219.52023648 489.97898145-490.15997102" fill="#294172" p-id="4651"></path><path d="M656.22628638 569.69545241H426.26898482V339.75826078C426.26898482 212.7438037 529.21182931 109.8009592 656.22628638 109.8009592S886.18358797 212.7438037 886.18358797 339.75826078c-0.02010994 126.99434714-102.96295444 229.93719163-229.95730159 229.93719163z m-122.38916812-107.54802351h122.38916812a122.38916812 122.38916812 0 1 0-122.38916812-122.38916812v122.38916812z" fill="#3C6EB4" p-id="4652"></path><path d="M725.58551098 116.6383429a183.18155313 183.18155313 0 0 0-50.83795877-6.8373837c-127.03456704 0-230.03774139 103.00317435-230.05785131 230.05785135v121.96685911h-96.34678025a53.55280228 53.55280228 0 1 0-0.56307864 107.10560458h79.77617975a17.13367915 17.13367915 0 0 1 17.15378907 17.11356916v105.53702831a121.44400037 121.44400037 0 0 1-121.44400037 121.20268095c-22.68402591 0-28.31481246-2.95616294-43.79947553-2.95616295-32.5379024 0-54.31698045 21.81929796-54.31698047 51.80323646 0 24.79557087 21.27632926 46.13222999 47.27849725 52.96961367 16.53038059 4.62528897 33.64394977 6.9580434 50.8178488 6.8373837 127.05467699-0.02010994 230.05785133-103.02328429 230.05785134-230.05785135v-121.92663923h96.34678021a53.57291223 53.57291223 0 1 0 0.58318862-107.10560453H570.45734094a17.13367915 17.13367915 0 0 1-17.15378909-17.11356922v-105.53702829a121.46411031 121.46411031 0 0 1 121.44400036-121.24290085c22.66391596 0 28.29470253 2.95616294 43.79947554 2.95616295 32.51779245 0 54.29687052-21.799188 54.29687051-51.80323644 0-24.81568081-21.23610935-46.15233994-47.25838728-52.96961368z" fill="#FFFFFF" p-id="4653"></path><path d="M1004.43010595 499.61226955C1004.53065573 228.89209518 785.15118892 9.35174877 514.43101457 9.25119901S24.17049378 228.53011605 24.06994402 499.2502904v379.31391538a111.4091343 111.4091343 0 0 0 111.44935421 111.20803479h378.93182627c270.63973456-0.0804398 489.97898144-219.52023648 489.97898145-490.15997102" fill="#294172" p-id="4654"></path><path d="M656.22628638 569.69545241H426.26898482V339.75826078C426.26898482 212.7438037 529.21182931 109.8009592 656.22628638 109.8009592S886.18358797 212.7438037 886.18358797 339.75826078c-0.02010994 126.99434714-102.96295444 229.93719163-229.95730159 229.93719163z m-122.38916812-107.54802351h122.38916812a122.38916812 122.38916812 0 1 0-122.38916812-122.38916812v122.38916812z" fill="#3C6EB4" p-id="4655"></path><path d="M725.58551098 116.6383429a183.18155313 183.18155313 0 0 0-50.83795877-6.8373837c-127.03456704 0-230.03774139 103.00317435-230.05785131 230.05785135v121.96685911h-96.34678025a53.55280228 53.55280228 0 1 0-0.56307864 107.10560458h79.77617975a17.13367915 17.13367915 0 0 1 17.15378907 17.11356916v105.53702831a121.44400037 121.44400037 0 0 1-121.44400037 121.20268095c-22.68402591 0-28.31481246-2.95616294-43.79947553-2.95616295-32.5379024 0-54.31698045 21.81929796-54.31698047 51.80323646 0 24.79557087 21.27632926 46.13222999 47.27849725 52.96961367 16.53038059 4.62528897 33.64394977 6.9580434 50.8178488 6.8373837 127.05467699-0.02010994 230.05785133-103.02328429 230.05785134-230.05785135v-121.92663923h96.34678021a53.57291223 53.57291223 0 1 0 0.58318862-107.10560453H570.45734094a17.13367915 17.13367915 0 0 1-17.15378909-17.11356922v-105.53702829a121.46411031 121.46411031 0 0 1 121.44400036-121.24290085c22.66391596 0 28.29470253 2.95616294 43.79947554 2.95616295 32.51779245 0 54.29687052-21.799188 54.29687051-51.80323644 0-24.81568081-21.23610935-46.15233994-47.25838728-52.96961368z" fill="#FFFFFF" p-id="4656"></path></svg>