<?xml version="1.0" standalone="no"?><!DOCTYPE svg PUBLIC "-//W3C//DTD SVG 1.1//EN" "http://www.w3.org/Graphics/SVG/1.1/DTD/svg11.dtd"><svg t="1545534374242" class="icon" style="" viewBox="0 0 1024 1024" version="1.1" xmlns="http://www.w3.org/2000/svg" p-id="2161" xmlns:xlink="http://www.w3.org/1999/xlink" width="16" height="16"><defs><style type="text/css"></style></defs><path d="M32 320v26.27h186.862V320H32z m213.338 0v26.27h266.288S484.428 320 448.402 320H245.338z m318.524 0v26.27h161.1L715.4 320h-151.538z m276.6 0l-9.562 26.27h159.636V320h-150.074zM32 371.094v26.27h186.862v-26.27H32z m213.338 0.036v26.232h297.188s-3.468-20.222-9.526-26.232H245.338z m318.524 0v26.232h178.762l-8.85-26.232h-169.912z m257.476 0l-8.852 26.232h178.05v-26.232h-169.198zM85.7 422.188v26.306h80.926v-26.306H85.7z m213.338 0v26.306h80.92v-26.306h-80.92z m159.636 0v26.306H539.6s5.132-13.894 5.132-26.306h-86.058z m158.884 0v26.306h143.48l-9.562-26.306h-133.918z m186.154 0l-9.6 26.306h144.188v-26.306h-134.588zM85.7 473.318v26.27h80.926v-26.27H85.7z m213.338 0v26.27h206.7s17.292-13.482 22.8-26.27h-229.5z m318.52 0v26.27h80.928v-14.624l5.138 14.624h148.238l5.512-14.624v14.624h80.924v-26.27h-151.912l-8.062 22.256-8.1-22.256h-152.666zM85.7 524.412v26.27h80.926v-26.27H85.7z m213.338 0v26.27h229.5c-5.512-12.75-22.8-26.27-22.8-26.27h-206.7z m318.52 0v26.27h80.928v-26.27h-80.928z m95.63 0l9.788 26.27h111.15l9.3-26.27h-130.238z m144.188 0v26.27h80.924v-26.27h-80.924zM85.7 575.506v26.27h80.926v-26.27H85.7z m213.338 0v26.27h80.92v-26.27h-80.92z m159.636 0v26.27h86.058c0-12.394-5.132-26.27-5.132-26.27h-80.926z m158.884 0v26.27h80.928v-26.27h-80.928z m114 0l9.492 26.27h74.508l9.568-26.27h-93.568z m125.818 0v26.27h80.924v-26.27h-80.924zM33.462 626.6v26.306h186.862V626.6H33.462z m211.876 0v26.306H533c6.056-6.028 9.526-26.306 9.526-26.306H245.338z m319.988 0v26.306h133.162V626.6h-133.162z m184.648 0l9.75 26.306h37.914l9.15-26.306h-56.814z m107.402 0v26.306H992V626.6h-134.624zM33.462 677.73V704h186.862v-26.27H33.462z m211.876 0v26.232H448.4c36.028 0 63.224-26.232 63.224-26.232H245.338z m319.988 0V704h133.162v-26.27h-133.162z m203.136 0l9.376 26.196 1.612 0.038 9.524-26.232h-20.512z m88.914 0V704H992v-26.27h-134.624z" fill="#008CDB" p-id="2162"></path></svg>