<?xml version="1.0" standalone="no"?><!DOCTYPE svg PUBLIC "-//W3C//DTD SVG 1.1//EN" "http://www.w3.org/Graphics/SVG/1.1/DTD/svg11.dtd"><svg t="1543993493527" class="icon" style="" viewBox="0 0 1024 1024" version="1.1" xmlns="http://www.w3.org/2000/svg" p-id="101154" xmlns:xlink="http://www.w3.org/1999/xlink" width="16" height="16"><defs><style type="text/css"></style></defs><path d="M512.7424 12.6208c-9.0368 0-35.5584 9.4208-35.5584 9.4208L122.3424 192.9216s-16.64 8.7296-20.6592 13.7728S93.6704 227.84 93.6704 227.84L3.4048 623.3856l-2.7136 11.9296s-2.2528 9.6256 1.408 16.9216l5.12 10.24 7.1424 11.0592 258.56 321.6384s7.68 10.24 12.8 12.8c5.12 5.12 23.1936 2.56 23.1936 2.56h407.5776s20.48 1.0496 25.8048-2.56c7.68-5.12 16.2816-17.92 16.2816-17.92l245.76-308.224s16.9728-21.248 19.0208-29.8496c2.56-20.6336-4.2496-41.7792-4.2496-41.7792L934.7584 240.64s-4.4288-25.2928-9.344-32.0256-26.1888-17.6128-26.1888-17.6128L550.656 23.168S522.4448 12.8 512.7424 12.6208z" fill="#316CE4" p-id="101155"></path><path d="M866.3808 589.824c-18.7136-4.2752-22.144-0.8192-47.3088-5.5552-8.9088-1.664-22.4768-5.12-32.6656-17.92h-0.2304a281.4208 281.4208 0 0 0 2.304-35.84A275.2 275.2 0 0 0 743.3472 378.88l0.4352-0.3072a69.9392 69.9392 0 0 1 21.6576-30.2592c20.608-15.1808 25.1904-13.5424 40.2176-25.6 11.5968-9.2672 15.36-23.936 8.2432-32.768s-22.1952-8.5248-33.792 0.7424c-15.0016 11.9808-14.4384 16.8192-33.8432 33.536-6.8352 5.9136-17.92 14.3616-34.4064 14.336l-0.3584 0.3328A275.6864 275.6864 0 0 0 537.6 255.0784v-1.1776a70.1952 70.1952 0 0 1-10.24-35.84c0.9728-25.6 5.12-28.16 5.12-47.36 0-14.848-9.1648-26.88-20.48-26.88s-20.48 12.032-20.48 26.88c0 19.2 4.1472 21.7856 5.12 47.36 0.3584 9.0368 0 23.04-10.24 35.84v1.1776A275.8912 275.8912 0 0 0 311.0144 340.48a69.8112 69.8112 0 0 1-32.6912-14.0288c-19.4048-16.7424-18.816-21.5552-33.8432-33.536-11.5968-9.2416-26.7264-9.6-33.7664-0.7424S207.36 315.7504 218.9568 325.12c15.0016 11.9808 19.6096 10.24 40.2176 25.6 7.04 5.12 17.28 13.7984 21.248 28.8256a275.072 275.072 0 0 0-44.9024 151.04 279.04 279.04 0 0 0 2.56 37.5296 69.5552 69.5552 0 0 1-30.8736 16.384c-25.1648 4.736-28.5952 1.28-47.3088 5.5296-14.4896 3.1232-24.2176 14.72-21.6576 25.7536s16.3072 17.28 30.72 13.9776c18.7136-4.2752 20.3008-8.8832 45.0304-15.5136 8.2688-2.2272 20.9408-4.8128 34.7648 0.896a277.2992 277.2992 0 0 0 120.5248 152.0896l-1.3824 2.56a70.2464 70.2464 0 0 1-6.3232 36.736c-12.0064 22.6304-16.8448 23.04-25.1648 40.448-6.4256 13.3632-3.4048 28.16 6.784 33.1008s23.68-1.9456 30.1312-15.36c8.32-17.3056 5.7088-21.4016 15.9232-44.9024 3.6096-8.2944 10.0096-20.736 24.7808-27.8272l1.1776-2.688a277.2736 277.2736 0 0 0 196.9664-1.3056 69.12 69.12 0 0 1 20.7872 24.9856c10.24 23.5008 7.68 27.5968 15.9232 44.9024 6.4512 13.3632 19.9424 20.224 30.1312 15.36s13.2096-19.7376 6.784-33.1008c-8.3456-17.3056-13.184-17.92-25.1648-40.448a53.1456 53.1456 0 0 1-7.168-31.8464 277.248 277.248 0 0 0 121.3952-151.7568h0.128a69.9392 69.9392 0 0 1 37.2224-2.0224c24.7296 6.656 26.3168 11.264 45.0304 15.5136 14.464 3.3024 28.16-2.944 30.72-13.9776s-7.1168-22.5024-21.5808-25.7792z m-199.04-215.4496c-39.0144 29.696-82.816 59.4432-105.856 69.2992a102.7584 102.7584 0 0 0-11.9296-5.8112c-5.12-19.6864-10.0352-75.1616-11.6992-126.08a219.5456 219.5456 0 0 1 129.4848 62.592zM528.2048 496.64l20.9408 25.0624-6.4256 32.128-29.1072 14.8224-29.7728-13.4912-7.9872-31.6672 19.7888-26.0096z m-41.6512-185.0112c-1.152 49.3824-5.2992 102.4-12.0576 126.1312a97.4848 97.4848 0 0 0-13.696 6.912c-20.7616-10.24-65.6384-40.2432-104.832-69.5808a219.4432 219.4432 0 0 1 130.5856-63.36zM291.84 530.3808a219.1616 219.1616 0 0 1 32.4608-115.2c37.4272 31.1808 76.2368 67.2 91.648 87.8592a101.0944 101.0944 0 0 0-2.56 12.1856c-20.992 9.9072-72.704 26.3168-120.1664 38.6816a224.896 224.896 0 0 1-1.3824-23.5264z m101.7088 185.5488a220.6208 220.6208 0 0 1-89.088-112.0512c46.976-9.728 98.7392-17.5872 125.1584-17.1008a95.8976 95.8976 0 0 0 7.68 9.8816c-2.5344 17.7408-22.5792 71.168-43.7504 119.2704zM512 750.5408a220.16 220.16 0 0 1-72.192-12.16c23.04-44.8256 50.1504-91.3664 66.1504-108.3648 1.9968 0.128 4.0192 0.2048 6.0416 0.2048q4.8384 0 9.6-0.4608c14.9504 19.9424 41.8048 65.8688 63.7184 108.2368a220.16 220.16 0 0 1-73.3184 12.544z m119.1168-35.0464c-19.8144-43.2896-39.04-91.8272-44.9024-118.3488a99.84 99.84 0 0 0 8.0384-10.24c21.4528-0.3584 76.032 7.2704 125.312 16.8704a220.7744 220.7744 0 0 1-88.448 111.7184z m99.84-161.664c-47.5904-11.9808-98.2784-27.7248-120.32-39.5776a98.432 98.432 0 0 0-2.7392-12.0064c12.6208-16.6912 52.864-54.8864 91.4176-87.7056A219.0592 219.0592 0 0 1 732.16 530.3808a221.5168 221.5168 0 0 1-1.2544 23.4496z" fill="#F2F2F2" p-id="101156"></path></svg>