<?xml version="1.0" standalone="no"?><!DOCTYPE svg PUBLIC "-//W3C//DTD SVG 1.1//EN" "http://www.w3.org/Graphics/SVG/1.1/DTD/svg11.dtd"><svg t="1544688401756" class="icon" style="" viewBox="0 0 1024 1024" version="1.1" xmlns="http://www.w3.org/2000/svg" p-id="1848" xmlns:xlink="http://www.w3.org/1999/xlink" width="16" height="16"><defs><style type="text/css"></style></defs><path d="M263.9 409.8H59.5v204.4h204.4V409.8zM880.37 69.13h-736.8c-46.2 0-84.1 37.8-84.1 84.1v198.2h204.4v-32.4c0-25.1 20.4-45.5 45.5-45.5h405.3c25.1 0 45.5 20.4 45.5 45.5v32.4h204.4v-198.1c-0.1-46.3-37.9-84.2-84.2-84.2M760.07 705.03c0 25.1-20.4 45.5-45.5 45.5h-405.2c-25.1 0-45.5-20.4-45.5-45.5v-32.4H59.47v198.1c0 46.2 37.8 84.1 84.1 84.1h736.8c46.2 0 84.1-37.8 84.1-84.1v-198.1h-204.4v32.4zM964.5 409.8H760.1v204.4h204.4V409.8z" fill="#CC1D31" p-id="1849"></path></svg>