<?xml version="1.0" standalone="no"?><!DOCTYPE svg PUBLIC "-//W3C//DTD SVG 1.1//EN" "http://www.w3.org/Graphics/SVG/1.1/DTD/svg11.dtd"><svg t="1545915603264" class="icon" style="" viewBox="0 0 1024 1024" version="1.1" xmlns="http://www.w3.org/2000/svg" p-id="4982" xmlns:xlink="http://www.w3.org/1999/xlink" width="16" height="16"><defs><style type="text/css"></style></defs><path d="M510.738287 1.792C229.168763 1.792 0.877714 230.058666 0.877714 511.646476 0.877714 793.240381 229.174858 1021.513142 510.738287 1021.513142 792.295619 1021.513142 1020.592763 793.240381 1020.592763 511.646476 1020.592763 230.058666 792.295619 1.792 510.738287 1.792L510.738287 1.792ZM513.176381 72.399238C755.785142 72.399238 952.618666 269.074287 952.618666 511.646476 952.618666 754.255237 755.760763 950.89981 513.176381 950.89981 382.177524 950.89981 264.630858 893.488763 184.161524 802.541713 217.246476 776.856381 272.603429 783.122287 340.778666 790.893713 373.449142 794.61181 410.697142 798.872381 449.133713 799.725713 556.53181 800.347429 672.091429 780.751237 743.41181 749.58019 789.51619 729.35619 819.041524 716.04419 837.497905 699.245713 844.153905 693.790476 847.640381 684.672 851.2 675.21219L853.638095 668.830476C856.624763 661.187047 860.921905 644.74819 862.841905 635.776 863.701334 631.850666 864.128 627.626666 861.342476 625.450666L851.388953 627.328C820.089905 646.095237 741.912381 681.831619 668.65981 683.294476 577.895619 685.19619 394.971429 591.920763 375.893334 582.076953L374.016 579.821713C369.444571 568.905142 342.064763 503.917713 336.26819 490.246095 467.943619 576.956953 577.109334 624.950858 660.778666 632.405334 753.80419 640.670476 826.361905 589.878858 857.398858 568.17981 863.457524 564.047237 868.077713 560.804571 869.979429 560.103619L872.039619 556.720763C866.895237 524.032 818.084571 365.805713 781.336381 327.801905 771.145142 317.379047 763.050666 307.230476 746.599619 297.569524 613.577142 220.038095 297.721905 173.342476 282.934858 171.184762L280.490666 171.940571 279.552 174.006857C279.552 174.006857 278.369524 239.591619 278.235429 246.869334 267.398095 243.285334 233.788953 232.277334 185.654857 219.075047 248.472381 141.354667 344.728381 72.399238 513.176381 72.399238L513.176381 72.399238ZM629.23581 304.889905C631.472763 304.853334 633.734095 304.810666 635.995429 304.889905 710.509713 307.565713 769.054476 370.328381 766.506666 444.793905 765.184 480.816763 749.994666 514.102858 723.687619 538.691047 697.307429 563.407237 663.021713 576.292571 626.797713 575.122287 552.405334 572.342858 493.860571 509.58019 496.274287 435.218287 497.54819 399.140571 512.816763 365.641142 539.282287 341.13219 563.986287 317.96419 595.608381 305.39581 629.23581 304.889905L629.23581 304.889905ZM625.664 344.704C603.958858 346.026666 583.484953 354.840381 567.448381 369.871237 549.174858 387.023237 538.386287 410.25219 537.593905 435.413334 535.868953 487.393524 576.548571 531.139047 628.486095 533.065142 653.726476 533.839237 677.650287 525.001142 696.082287 507.897905 714.465524 490.660571 725.162666 467.224381 725.948953 442.172953 727.686095 390.107429 686.817524 346.526476 634.86781 344.704 631.728763 344.58819 628.760381 344.515047 625.664 344.704L625.664 344.704ZM650.453334 391.838476C673.536 391.838476 692.144763 404.382476 692.144763 419.821713 692.144763 435.18781 673.536 447.804953 650.453334 447.804953 627.297524 447.804953 608.572953 435.163429 608.572953 419.821713 608.572953 404.382476 627.297524 391.838476 650.453334 391.838476L650.453334 391.838476Z" p-id="4983" fill="#73ba25"></path></svg>