<?xml version="1.0" standalone="no"?><!DOCTYPE svg PUBLIC "-//W3C//DTD SVG 1.1//EN" "http://www.w3.org/Graphics/SVG/1.1/DTD/svg11.dtd"><svg t="1543918216300" class="icon" style="" viewBox="0 0 1024 1024" version="1.1" xmlns="http://www.w3.org/2000/svg" p-id="97015" xmlns:xlink="http://www.w3.org/1999/xlink" width="16" height="16"><defs><style type="text/css"></style></defs><path d="M981.333333 1024H42.666667c-23.466667 0-42.666667-19.2-42.666667-42.666667V42.666667C0 19.2 19.2 0 42.666667 0h938.666666c23.466667 0 42.666667 19.2 42.666667 42.666667v938.666666c0 23.466667-19.2 42.666667-42.666667 42.666667z" fill="#84DBFF" p-id="97016"></path><path d="M53.333333 247.466667h917.333334v723.2h-917.333334z" fill="#FFFFFF" p-id="97017"></path><path d="M136.533333 123.733333m-40.533333 0a40.533333 40.533333 0 1 0 81.066667 0 40.533333 40.533333 0 1 0-81.066667 0Z" fill="#40596B" p-id="97018"></path><path d="M268.8 123.733333m-40.533333 0a40.533333 40.533333 0 1 0 81.066666 0 40.533333 40.533333 0 1 0-81.066666 0Z" fill="#40596B" p-id="97019"></path><path d="M398.933333 123.733333m-40.533333 0a40.533333 40.533333 0 1 0 81.066667 0 40.533333 40.533333 0 1 0-81.066667 0Z" fill="#40596B" p-id="97020"></path><path d="M106.666667 300.8h307.2v618.666667H106.666667z" fill="#FFD15C" p-id="97021"></path><path d="M467.2 300.8H917.333333v177.066667H467.2z" fill="#CDD6E0" p-id="97022"></path><path d="M467.2 520.533333H917.333333v177.066667H467.2z" fill="#ACB3BA" p-id="97023"></path><path d="M467.2 740.266667H917.333333V917.333333H467.2z" fill="#FF7058" p-id="97024"></path></svg>