<?xml version="1.0" standalone="no"?><!DOCTYPE svg PUBLIC "-//W3C//DTD SVG 1.1//EN" "http://www.w3.org/Graphics/SVG/1.1/DTD/svg11.dtd"><svg t="1543918237011" class="icon" style="" viewBox="0 0 1024 1024" version="1.1" xmlns="http://www.w3.org/2000/svg" p-id="97156" xmlns:xlink="http://www.w3.org/1999/xlink" width="16" height="16"><defs><style type="text/css"></style></defs><path d="M964.8 777.8H59.2c-23.8 0-43.2-19.4-43.2-43.2V158.4c0-23.8 19.4-43.2 43.2-43.2h905.4c23.8 0 43.2 19.4 43.2 43.2v576.2c0 24-19.2 43.2-43 43.2z" fill="#DFECF5" p-id="97157"></path><path d="M943.2 734.6H80.8c-12 0-21.6-9.6-21.6-21.6V180c0-12 9.6-21.6 21.6-21.6h862.4c12 0 21.6 9.6 21.6 21.6v533.2c0 11.8-9.8 21.4-21.6 21.4z" fill="#F9F9F9" p-id="97158"></path><path d="M663 158.4h-302c-12 0-21.6-9.6-21.6-21.6V93.8c0-12 9.6-21.6 21.6-21.6h301.8c12 0 21.6 9.6 21.6 21.6v43.2c0 11.8-9.6 21.4-21.4 21.4z" fill="#A8DDFF" p-id="97159"></path><path d="M964.8 99.2h-264v-5.4c0-20.8-17-37.8-37.8-37.8h-302c-20.8 0-37.8 17-37.8 37.8v5.4h-264C26.6 99.2 0 125.8 0 158.4v576.2C0 767.4 26.6 794 59.2 794h436.6v133.6H210.2c-9 0-16.2 7.2-16.2 16.2s7.2 16.2 16.2 16.2h603.6c9 0 16.2-7.2 16.2-16.2s-7.2-16.2-16.2-16.2H528.2V794h436.6c32.6 0 59.2-26.6 59.2-59.2V158.4c0-32.6-26.6-59.2-59.2-59.2z m-609-5.4c0-3 2.4-5.4 5.4-5.4h301.8c3 0 5.4 2.4 5.4 5.4v43.2c0 3-2.4 5.4-5.4 5.4h-302c-3 0-5.4-2.4-5.4-5.4l0.2-43.2z m635.8 640.8c0 14.8-12 27-27 27H59.2c-14.8 0-27-12-27-27V158.4c0-14.8 12-27 27-27h264v5.4c0 20.8 17 37.8 37.8 37.8h301.8c20.8 0 37.8-17 37.8-37.8v-5.4h264c14.8 0 27 12 27 27v576.2z" fill="#5280B1" p-id="97160"></path><path d="M103.2 652.6h53c9.8 0 17.6-8 17.6-17.6V246.6c0-9.8-8-17.6-17.6-17.6H103.2c-9.8 0-17.6 8-17.6 17.6v388.4c-0.2 9.8 7.8 17.6 17.6 17.6z m17.6-388.4h17.6c9.8 0 17.6 8 17.6 17.6s-8 17.6-17.6 17.6h-17.6c-9.8 0-17.6-8-17.6-17.6s7.8-17.6 17.6-17.6z m0 53h17.6c9.8 0 17.6 8 17.6 17.6s-8 17.6-17.6 17.6h-17.6c-9.8 0-17.6-8-17.6-17.6s7.8-17.6 17.6-17.6z m0 53h17.6c9.8 0 17.6 8 17.6 17.6s-8 17.6-17.6 17.6h-17.6c-9.8 0-17.6-8-17.6-17.6s7.8-17.6 17.6-17.6z m0 53h17.6c9.8 0 17.6 8 17.6 17.6s-8 17.6-17.6 17.6h-17.6c-9.8 0-17.6-8-17.6-17.6s7.8-17.6 17.6-17.6z m0 52.8h17.6c9.8 0 17.6 8 17.6 17.6s-8 17.6-17.6 17.6h-17.6c-9.8 0-17.6-8-17.6-17.6s7.8-17.6 17.6-17.6z m-17.6 88.4c0-9.8 8-17.6 17.6-17.6h17.6c9.8 0 17.6 8 17.6 17.6v35.4c0 9.8-8 17.6-17.6 17.6h-17.6c-9.8 0-17.6-8-17.6-17.6v-35.4z" fill="#AFBCCF" p-id="97161"></path><path d="M120.8 299.6h17.6c9.8 0 17.6-8 17.6-17.6s-8-17.6-17.6-17.6h-17.6c-9.8 0-17.6 8-17.6 17.6s7.8 17.6 17.6 17.6z" fill="#E4EAF6" p-id="97162"></path><path d="M120.8 352.6h17.6c9.8 0 17.6-8 17.6-17.6s-8-17.6-17.6-17.6h-17.6c-9.8 0-17.6 8-17.6 17.6s7.8 17.6 17.6 17.6z" fill="#98FBB8" p-id="97163"></path><path d="M120.8 405.4h17.6c9.8 0 17.6-8 17.6-17.6s-8-17.6-17.6-17.6h-17.6c-9.8 0-17.6 8-17.6 17.6s7.8 17.6 17.6 17.6zM120.8 458.4h17.6c9.8 0 17.6-8 17.6-17.6s-8-17.6-17.6-17.6h-17.6c-9.8 0-17.6 8-17.6 17.6s7.8 17.6 17.6 17.6zM120.8 511.4h17.6c9.8 0 17.6-8 17.6-17.6s-8-17.6-17.6-17.6h-17.6c-9.8 0-17.6 8-17.6 17.6s7.8 17.6 17.6 17.6z" fill="#E4EAF6" p-id="97164"></path><path d="M120.8 617.4h17.6c9.8 0 17.6-8 17.6-17.6v-35.4c0-9.8-8-17.6-17.6-17.6h-17.6c-9.8 0-17.6 8-17.6 17.6v35.4c0 9.6 7.8 17.6 17.6 17.6z" fill="#F5A7E3" p-id="97165"></path><path d="M933 246.6c0-9.8-8-17.6-17.6-17.6h-158.8c-9.8 0-17.6 8-17.6 17.6v106h194.2l-0.2-106z m-26.6 88.2h-141.2c-4.8 0-8.8-4-8.8-8.8s4-8.8 8.8-8.8h141.2c4.8 0 8.8 4 8.8 8.8s-3.8 8.8-8.8 8.8z m0-35.2h-141.2c-4.8 0-8.8-4-8.8-8.8s4-8.8 8.8-8.8h141.2c4.8 0 8.8 4 8.8 8.8s-3.8 8.8-8.8 8.8z m0-35.4h-141.2c-4.8 0-8.8-4-8.8-8.8 0-4.8 4-8.8 8.8-8.8h141.2c4.8 0 8.8 4 8.8 8.8 0 4.8-3.8 8.8-8.8 8.8zM756.4 652.6h158.8c9.8 0 17.6-8 17.6-17.6v-158.8h-194.2v158.8c0.2 9.8 8 17.6 17.8 17.6z m79.4-158.8h70.6c4.8 0 8.8 4 8.8 8.8s-4 8.8-8.8 8.8h-70.6c-4.8 0-8.8-4-8.8-8.8s4-8.8 8.8-8.8z m0 35.2h70.6c4.8 0 8.8 4 8.8 8.8s-4 8.8-8.8 8.8h-70.6c-4.8 0-8.8-4-8.8-8.8s4-8.8 8.8-8.8z m0 35.4h70.6c4.8 0 8.8 4 8.8 8.8s-4 8.8-8.8 8.8h-70.6c-4.8 0-8.8-4-8.8-8.8s4-8.8 8.8-8.8z m0 35.2h70.6c4.8 0 8.8 4 8.8 8.8s-4 8.8-8.8 8.8h-70.6c-4.8 0-8.8-4-8.8-8.8s4-8.8 8.8-8.8z m-35.2-105.8c4.8 0 8.8 4 8.8 8.8s-4 8.8-8.8 8.8c-4.8 0-8.8-4-8.8-8.8s3.8-8.8 8.8-8.8z m0 35.2c4.8 0 8.8 4 8.8 8.8s-4 8.8-8.8 8.8c-4.8 0-8.8-4-8.8-8.8s3.8-8.8 8.8-8.8z m0 35.4c4.8 0 8.8 4 8.8 8.8s-4 8.8-8.8 8.8c-4.8 0-8.8-4-8.8-8.8-0.2-4.8 3.8-8.8 8.8-8.8z m0 35.2c4.8 0 8.8 4 8.8 8.8s-4 8.8-8.8 8.8c-4.8 0-8.8-4-8.8-8.8-0.2-4.8 3.8-8.8 8.8-8.8z m-35.4-105.8c4.8 0 8.8 4 8.8 8.8s-4 8.8-8.8 8.8c-4.8 0-8.8-4-8.8-8.8s4-8.8 8.8-8.8z m0 35.2c4.8 0 8.8 4 8.8 8.8s-4 8.8-8.8 8.8c-4.8 0-8.8-4-8.8-8.8s4-8.8 8.8-8.8z m0 35.4c4.8 0 8.8 4 8.8 8.8s-4 8.8-8.8 8.8c-4.8 0-8.8-4-8.8-8.8s4-8.8 8.8-8.8z m0 35.2c4.8 0 8.8 4 8.8 8.8s-4 8.8-8.8 8.8c-4.8 0-8.8-4-8.8-8.8s4-8.8 8.8-8.8z" fill="#B4D0E5" p-id="97166"></path><path d="M933 352.6h-194.2v123.6h194.2v-123.6z m-150.2 105.8h-17.6c-4.8 0-8.8-4-8.8-8.8s4-8.8 8.8-8.8h17.6c4.8 0 8.8 4 8.8 8.8s-3.8 8.8-8.8 8.8z m0-35.2h-17.6c-4.8 0-8.8-4-8.8-8.8s4-8.8 8.8-8.8h17.6c4.8 0 8.8 4 8.8 8.8s-3.8 8.8-8.8 8.8z m0-35.4h-17.6c-4.8 0-8.8-4-8.8-8.8s4-8.8 8.8-8.8h17.6c4.8 0 8.8 4 8.8 8.8s-3.8 8.8-8.8 8.8z m123.6 70.6h-88.2c-4.8 0-8.8-4-8.8-8.8s4-8.8 8.8-8.8h88.2c4.8 0 8.8 4 8.8 8.8s-3.8 8.8-8.8 8.8z m0-35.2h-88.2c-4.8 0-8.8-4-8.8-8.8s4-8.8 8.8-8.8h88.2c4.8 0 8.8 4 8.8 8.8s-3.8 8.8-8.8 8.8z m0-35.4h-88.2c-4.8 0-8.8-4-8.8-8.8s4-8.8 8.8-8.8h88.2c4.8 0 8.8 4 8.8 8.8s-3.8 8.8-8.8 8.8zM906.4 246.6h-106c4.8 0 8.8 4 8.8 8.8 0 4.8-4 8.8-8.8 8.8h106c4.8 0 8.8-4 8.8-8.8 0-4.8-3.8-8.8-8.8-8.8zM774 255.4c0-4.8 4-8.8 8.8-8.8h-17.6c-4.8 0-8.8 4-8.8 8.8 0 4.8 4 8.8 8.8 8.8h17.6c-4.8 0-8.8-4-8.8-8.8zM906.4 317.2h-70.6c4.8 0 8.8 4 8.8 8.8s-4 8.8-8.8 8.8h70.6c4.8 0 8.8-4 8.8-8.8s-3.8-8.8-8.8-8.8zM809.4 326c0-4.8 4-8.8 8.8-8.8h-53c-4.8 0-8.8 4-8.8 8.8s4 8.8 8.8 8.8h53c-5 0-8.8-3.8-8.8-8.8z" fill="#96A5B9" p-id="97167"></path><path d="M906.4 370.2h-88.2c-4.8 0-8.8 4-8.8 8.8s4 8.8 8.8 8.8h88.2c4.8 0 8.8-4 8.8-8.8s-3.8-8.8-8.8-8.8z" fill="#BEC8DC" p-id="97168"></path><path d="M862.4 290.8c0-4.8 4-8.8 8.8-8.8h-106c-4.8 0-8.8 4-8.8 8.8s4 8.8 8.8 8.8h106c-5 0-8.8-4-8.8-8.8zM906.4 281.8h-17.6c4.8 0 8.8 4 8.8 8.8s-4 8.8-8.8 8.8h17.6c4.8 0 8.8-4 8.8-8.8s-3.8-8.8-8.8-8.8z" fill="#96A5B9" p-id="97169"></path><path d="M809.4 255.4c0-4.8-4-8.8-8.8-8.8h-17.6c-4.8 0-8.8 4-8.8 8.8 0 4.8 4 8.8 8.8 8.8h17.6c4.8 0 8.8-4 8.8-8.8zM844.6 326c0-4.8-4-8.8-8.8-8.8h-17.6c-4.8 0-8.8 4-8.8 8.8s4 8.8 8.8 8.8h17.6c4.8 0 8.8-3.8 8.8-8.8zM782.8 370.2h-17.6c-4.8 0-8.8 4-8.8 8.8s4 8.8 8.8 8.8h17.6c4.8 0 8.8-4 8.8-8.8s-3.8-8.8-8.8-8.8z" fill="#E4EAF6" p-id="97170"></path><path d="M906.4 405.4h-88.2c-4.8 0-8.8 4-8.8 8.8s4 8.8 8.8 8.8h88.2c4.8 0 8.8-4 8.8-8.8s-3.8-8.8-8.8-8.8z" fill="#BEC8DC" p-id="97171"></path><path d="M782.8 405.4h-17.6c-4.8 0-8.8 4-8.8 8.8s4 8.8 8.8 8.8h17.6c4.8 0 8.8-4 8.8-8.8s-3.8-8.8-8.8-8.8z" fill="#E4EAF6" p-id="97172"></path><path d="M906.4 440.8h-88.2c-4.8 0-8.8 4-8.8 8.8s4 8.8 8.8 8.8h88.2c4.8 0 8.8-4 8.8-8.8s-3.8-8.8-8.8-8.8z" fill="#BEC8DC" p-id="97173"></path><path d="M782.8 440.8h-17.6c-4.8 0-8.8 4-8.8 8.8s4 8.8 8.8 8.8h17.6c4.8 0 8.8-4 8.8-8.8s-3.8-8.8-8.8-8.8zM765.2 546.8c4.8 0 8.8-4 8.8-8.8s-4-8.8-8.8-8.8c-4.8 0-8.8 4-8.8 8.8s4 8.8 8.8 8.8zM765.2 511.4c4.8 0 8.8-4 8.8-8.8s-4-8.8-8.8-8.8c-4.8 0-8.8 4-8.8 8.8s4 8.8 8.8 8.8zM765.2 617.4c4.8 0 8.8-4 8.8-8.8s-4-8.8-8.8-8.8c-4.8 0-8.8 4-8.8 8.8s4 8.8 8.8 8.8zM765.2 582c4.8 0 8.8-4 8.8-8.8s-4-8.8-8.8-8.8c-4.8 0-8.8 4-8.8 8.8s4 8.8 8.8 8.8z" fill="#AFBCCF" p-id="97174"></path><path d="M800.6 546.8c4.8 0 8.8-4 8.8-8.8s-4-8.8-8.8-8.8c-4.8 0-8.8 4-8.8 8.8-0.2 4.8 3.8 8.8 8.8 8.8zM800.6 511.4c4.8 0 8.8-4 8.8-8.8s-4-8.8-8.8-8.8c-4.8 0-8.8 4-8.8 8.8s3.8 8.8 8.8 8.8zM800.6 617.4c4.8 0 8.8-4 8.8-8.8s-4-8.8-8.8-8.8c-4.8 0-8.8 4-8.8 8.8s3.8 8.8 8.8 8.8zM800.6 582c4.8 0 8.8-4 8.8-8.8s-4-8.8-8.8-8.8c-4.8 0-8.8 4-8.8 8.8-0.2 4.8 3.8 8.8 8.8 8.8zM835.8 546.8h70.6c4.8 0 8.8-4 8.8-8.8s-4-8.8-8.8-8.8h-70.6c-4.8 0-8.8 4-8.8 8.8s4 8.8 8.8 8.8zM835.8 511.4h70.6c4.8 0 8.8-4 8.8-8.8s-4-8.8-8.8-8.8h-70.6c-4.8 0-8.8 4-8.8 8.8s4 8.8 8.8 8.8zM835.8 617.4h70.6c4.8 0 8.8-4 8.8-8.8s-4-8.8-8.8-8.8h-70.6c-4.8 0-8.8 4-8.8 8.8s4 8.8 8.8 8.8zM835.8 582h70.6c4.8 0 8.8-4 8.8-8.8s-4-8.8-8.8-8.8h-70.6c-4.8 0-8.8 4-8.8 8.8s4 8.8 8.8 8.8z" fill="#96A5B9" p-id="97175"></path><path d="M897.6 290.8c0-4.8-4-8.8-8.8-8.8h-17.6c-4.8 0-8.8 4-8.8 8.8s4 8.8 8.8 8.8h17.6c4.8 0 8.8-4 8.8-8.8z" fill="#E4EAF6" p-id="97176"></path><path d="M262 458.4h132.4v-35.2h-114.8v-158.8h158.8v114.8c4.8 0 8.8 4 8.8 8.8s-4 8.8-8.8 8.8v26.4H412v35.4h45l0.2-10.6c0-6 7.2-9.2 11.8-5.2l4 3.6c0.6-1.8 0.8-3.6 0.8-5.4v-44.2c-4.8 0-8.8-4-8.8-8.8s4-8.8 8.8-8.8v-132.6c0-9.8-8-17.6-17.6-17.6H262c-9.8 0-17.6 7.8-17.6 17.6v194.2c0 9.8 7.8 17.6 17.6 17.6z" fill="#FA5494" p-id="97177"></path><path d="M403.2 537.8c4.8 0 8.8-4 8.8-8.8v-35.4c0-4.8-4-8.8-8.8-8.8s-8.8 4-8.8 8.8v35.4c0 5 4 8.8 8.8 8.8zM615.2 643.8h35.4c4.8 0 8.8-4 8.8-8.8s-4-8.8-8.8-8.8h-35.4c-4.8 0-8.8 4-8.8 8.8s3.8 8.8 8.8 8.8zM650.4 555.6c-4.8 0-8.8 4-8.8 8.8v35.4c0 4.8 4 8.8 8.8 8.8s8.8-4 8.8-8.8v-35.4c0-5-3.8-8.8-8.8-8.8zM615.2 396.6h35.4c4.8 0 8.8-4 8.8-8.8s-4-8.8-8.8-8.8h-35.4c-4.8 0-8.8 4-8.8 8.8 0 5 3.8 8.8 8.8 8.8zM650.4 414.4c-4.8 0-8.8 4-8.8 8.8v35.4c0 4.8 4 8.8 8.8 8.8s8.8-4 8.8-8.8v-35.4c0-5-3.8-8.8-8.8-8.8zM509.2 626.2h-35.4c-4.8 0-8.8 4-8.8 8.8s4 8.8 8.8 8.8h35.4c4.8 0 8.8-4 8.8-8.8s-4-8.8-8.8-8.8zM403.2 414.4c-4.8 0-8.8 4-8.8 8.8v35.4c0 4.8 4 8.8 8.8 8.8s8.8-4 8.8-8.8v-35.4c0-5-3.8-8.8-8.8-8.8zM438.6 626.2h-35.4c-4.8 0-8.8 4-8.8 8.8s4 8.8 8.8 8.8h35.4c4.8 0 8.8-4 8.8-8.8s-4-8.8-8.8-8.8zM394.4 599.6c0 4.8 4 8.8 8.8 8.8s8.8-4 8.8-8.8v-35.4c0-4.8-4-8.8-8.8-8.8s-8.8 4-8.8 8.8v35.4zM650.4 485c-4.8 0-8.8 4-8.8 8.8v35.4c0 4.8 4 8.8 8.8 8.8s8.8-4 8.8-8.8v-35.4c0-5-3.8-8.8-8.8-8.8zM544.6 396.6H580c4.8 0 8.8-4 8.8-8.8s-4-8.8-8.8-8.8h-35.4c-4.8 0-8.8 4-8.8 8.8s3.8 8.8 8.8 8.8zM394.4 387.8c0 4.8 4 8.8 8.8 8.8h35.4c4.8 0 8.8-4 8.8-8.8s-4-8.8-8.8-8.8h-35.4c-4.8 0-8.8 4-8.8 8.8zM544.6 643.8H580c4.8 0 8.8-4 8.8-8.8s-4-8.8-8.8-8.8h-35.4c-4.8 0-8.8 4-8.8 8.8s3.8 8.8 8.8 8.8zM465 387.8c0 4.8 4 8.8 8.8 8.8h35.4c4.8 0 8.8-4 8.8-8.8s-4-8.8-8.8-8.8h-35.4c-4.8 0-8.8 4-8.8 8.8z" fill="#96A5B9" p-id="97178"></path><path d="M450.8 443.4l-0.2 10.6-0.8 57c0 5.2 5.2 8.6 10 6.6l17.6-7.8 15.6 35.8c1.4 3.4 4.6 5.2 8 5.2 1.2 0 2.4-0.2 3.6-0.8 4.4-2 6.4-7.2 4.6-11.6l-15.6-35.8 17.6-7.8c4.8-2 5.8-8.4 1.8-11.8l-46.4-41.6-4-3.6c-4.4-3.6-11.6-0.4-11.8 5.6z" fill="#464655" p-id="97179"></path></svg>