<?xml version="1.0" standalone="no"?><!DOCTYPE svg PUBLIC "-//W3C//DTD SVG 1.1//EN" "http://www.w3.org/Graphics/SVG/1.1/DTD/svg11.dtd"><svg t="1545875946525" class="icon" style="" viewBox="0 0 1024 1024" version="1.1" xmlns="http://www.w3.org/2000/svg" p-id="14608" xmlns:xlink="http://www.w3.org/1999/xlink" width="16" height="16"><defs><style type="text/css"></style></defs><path d="M58.514286 0h906.971428c32.182857 0 58.514286 26.331429 58.514286 58.514286v231.131428H0V58.514286C0 26.331429 26.331429 0 58.514286 0z m119.954285 105.325714v78.994286h257.462858V105.325714H178.468571z m500.297143 78.994286c20.48 0 38.034286-17.554286 38.034286-38.034286s-17.554286-38.034286-38.034286-38.034285-38.034286 17.554286-38.034285 38.034285 17.554286 38.034286 38.034285 38.034286z m128.731429 0c20.48 0 38.034286-17.554286 38.034286-38.034286s-17.554286-38.034286-38.034286-38.034285-38.034286 17.554286-38.034286 38.034285 14.628571 38.034286 38.034286 38.034286zM0 368.64h1024v289.645714H0v-289.645714z m178.468571 105.325714v78.994286h257.462858v-78.994286H178.468571z m500.297143 76.068572c20.48 0 38.034286-17.554286 38.034286-38.034286s-17.554286-38.034286-38.034286-38.034286-38.034286 17.554286-38.034285 38.034286 17.554286 38.034286 38.034285 38.034286z m128.731429 0c20.48 0 38.034286-17.554286 38.034286-38.034286s-17.554286-38.034286-38.034286-38.034286-38.034286 17.554286-38.034286 38.034286 14.628571 38.034286 38.034286 38.034286zM0 734.354286h1024V965.485714c0 32.182857-26.331429 58.514286-58.514286 58.514286H58.514286c-32.182857 0-58.514286-26.331429-58.514286-58.514286v-231.131428z m178.468571 105.325714v78.994286h257.462858v-78.994286H178.468571z m500.297143 78.994286c20.48 0 38.034286-17.554286 38.034286-38.034286s-17.554286-38.034286-38.034286-38.034286-38.034286 17.554286-38.034285 38.034286 17.554286 38.034286 38.034285 38.034286z m128.731429 0c20.48 0 38.034286-17.554286 38.034286-38.034286s-17.554286-38.034286-38.034286-38.034286-38.034286 17.554286-38.034286 38.034286 14.628571 38.034286 38.034286 38.034286z" fill="#5092EA" p-id="14609"></path></svg>