<?xml version="1.0" standalone="no"?><!DOCTYPE svg PUBLIC "-//W3C//DTD SVG 1.1//EN" "http://www.w3.org/Graphics/SVG/1.1/DTD/svg11.dtd"><svg t="1545898629043" class="icon" style="" viewBox="0 0 1024 1024" version="1.1" xmlns="http://www.w3.org/2000/svg" p-id="12091" xmlns:xlink="http://www.w3.org/1999/xlink" width="16" height="16"><defs><style type="text/css"></style></defs><path d="M157.515279 0h708.969342A157.414887 157.414887 0 0 1 1023.9999 156.410965v711.17797A157.414887 157.414887 0 0 1 866.484621 1023.9999H157.515279A157.414887 157.414887 0 0 1 0 867.588935V156.410965A157.414887 157.414887 0 0 1 157.515279 0z" fill="#FFFFFF" p-id="12092"></path><path d="M859.055602 165.345866v-2.007843H739.388163a12.047058 12.047058 0 0 1-8.232156-2.108235 406.186627 406.186627 0 0 0-280.596051-57.725484 422.450155 422.450155 0 0 0-156.812534 57.725484H165.847827v4.116078z" fill="#5BAD44" p-id="12093"></path><path d="M163.739592 856.545798h2.108235l402.271333-594.221118-404.379568-96.978814v119.667439a12.850195 12.850195 0 0 1-2.007843 8.332549 196.36704 196.36704 0 0 0-16.564704 28.812546 418.233684 418.233684 0 0 0 16.564704 402.371725c2.007843 2.007843 2.007843 4.116078 2.007843 8.232156z m752.941102-412.611724A404.47996 404.47996 0 0 0 859.055602 291.137226a7.830587 7.830587 0 0 1-2.007843-6.224313v-115.450969L454.676034 759.566984l394.039177 96.978814h8.332548V734.870516a7.730195 7.730195 0 0 1 2.007843-6.224313 407.090156 407.090156 0 0 0 60.235288-167.152925 373.258003 373.258003 0 0 0-2.007843-117.559204z" fill="#223D7F" p-id="12094"></path><path d="M165.847827 856.545798v4.116078h119.667439a12.247842 12.247842 0 0 1 8.232156 2.108235 406.186627 406.186627 0 0 0 281.098012 57.725485 435.80231 435.80231 0 0 0 156.812533-57.725485 7.328627 7.328627 0 0 1 6.123921-2.108235h121.273714v-4.116078z" fill="#5BAD44" p-id="12095"></path></svg>