<?xml version="1.0" standalone="no"?><!DOCTYPE svg PUBLIC "-//W3C//DTD SVG 1.1//EN" "http://www.w3.org/Graphics/SVG/1.1/DTD/svg11.dtd"><svg t="1542869087343" class="icon" style="" viewBox="0 0 1024 1024" version="1.1" xmlns="http://www.w3.org/2000/svg" p-id="15069" xmlns:xlink="http://www.w3.org/1999/xlink" width="16" height="16"><defs><style type="text/css"></style></defs><path d="M512 0C229.371429 0 0 229.371429 0 512c0 283.062857 229.371429 512 512 512 283.062857 0 512-228.937143 512-512C1024 229.371429 795.062857 0 512 0z m-70.217143 693.097143l30.72-142.194286c5.12-22.674286 6.285714-31.885714 0-31.885714-8 0-42.857143 15.794286-63.337143 31.451428l-13.6-24.868571c65.245714-61.142857 140.285714-96.982857 172.468572-96.982857 26.765714 0 31.154286 35.84 17.988571 90.4l-35.542857 149.508571c-6.285714 26.765714-3.36 35.428571 2.925714 35.428572 7.748571 0 34.377143-10.674286 59.977143-33.645715l15.36 22.674286c-63.337143 71.245714-132.388571 98.742857-159.451428 98.742857-26.777143 0.114286-46.08-18.171429-27.508572-98.628571z m163.542857-409.302857c0 33.942857-24.571429 65.828571-65.828571 65.828571-34.811429 0-51.2-19.748571-50.171429-52.365714 0-27.062857 20.182857-64.8 68.457143-64.8 36.868571 0.137143 47.554286 23.828571 47.554286 51.337143z" fill="#FFB600" p-id="15070"></path></svg>