<?xml version="1.0" standalone="no"?><!DOCTYPE svg PUBLIC "-//W3C//DTD SVG 1.1//EN" "http://www.w3.org/Graphics/SVG/1.1/DTD/svg11.dtd"><svg t="1542868873134" class="icon" style="" viewBox="0 0 1024 1024" version="1.1" xmlns="http://www.w3.org/2000/svg" p-id="11543" xmlns:xlink="http://www.w3.org/1999/xlink" width="16" height="16"><defs><style type="text/css"></style></defs><path d="M512 56.832c-251.392 0-455.168 203.776-455.168 455.168 0 251.392 203.776 455.168 455.168 455.168 251.392 0 455.168-203.264 455.168-455.168 0-251.392-203.776-455.168-455.168-455.168z m46.592 170.496c37.376 0 48.128 24.064 48.128 52.224 0 34.304-25.088 67.072-67.072 67.072-35.328 0-52.224-19.968-51.2-53.248 0.512-27.648 20.992-66.048 70.144-66.048zM468.48 796.672c-27.136 0-47.104-18.432-28.16-100.352l31.232-144.896c5.12-23.04 6.144-32.256 0-32.256-8.192 0-43.52 15.872-64.512 31.744l-13.824-25.088c66.56-61.952 142.848-98.816 175.616-98.816 27.136 0 31.744 36.352 18.432 92.16l-36.352 152.064c-6.144 27.136-3.584 35.84 3.072 35.84 7.68 0 34.816-10.752 60.928-34.304l15.872 23.04c-64.512 72.704-134.656 100.864-162.304 100.864z" fill="#75D1EA" p-id="11544"></path></svg>