<?xml version="1.0" standalone="no"?><!DOCTYPE svg PUBLIC "-//W3C//DTD SVG 1.1//EN" "http://www.w3.org/Graphics/SVG/1.1/DTD/svg11.dtd"><svg t="1543463145052" class="icon" style="" viewBox="0 0 1024 1024" version="1.1" xmlns="http://www.w3.org/2000/svg" p-id="65194" xmlns:xlink="http://www.w3.org/1999/xlink" width="16" height="16"><defs><style type="text/css"></style></defs><path d="M48 0h928c26.4 0 48 21.6 48 48v928c0 26.4-21.6 48-48 48H48c-26.4 0-48-21.6-48-48V48c0-26.4 21.6-48 48-48z" fill="#EFEFEF" p-id="65195"></path><path d="M96 192h832c17.6 0 32 14.4 32 32v704c0 17.6-14.4 32-32 32H96c-17.6 0-32-14.4-32-32V224c0-17.6 14.4-32 32-32z" fill="#2B414D" p-id="65196"></path><path d="M224 336h464c8.8 0 16 7.2 16 16v16c0 8.8-7.2 16-16 16H224c-8.8 0-16-7.2-16-16v-16c0-8.8 7.2-16 16-16z" fill="#E4E7E7" p-id="65197"></path><path d="M416 448H224c-8.8 0-16 7.2-16 16v16c0 8.8 7.2 16 16 16h192c8.8 0 16-7.2 16-16v-16c0-8.8-7.2-16-16-16z m-48 224H224c-8.8 0-16 7.2-16 16v16c0 8.8 7.2 16 16 16h144c8.8 0 16-7.2 16-16v-16c0-8.8-7.2-16-16-16z m432 0H704c-8.8 0-16 7.2-16 16v16c0 8.8 7.2 16 16 16h96c8.8 0 16-7.2 16-16v-16c0-8.8-7.2-16-16-16z" fill="#E35E53" p-id="65198"></path><path d="M800 448H512c-8.8 0-16 7.2-16 16v16c0 8.8 7.2 16 16 16h288c8.8 0 16-7.2 16-16v-16c0-8.8-7.2-16-16-16z m0 336H224c-8.8 0-16 7.2-16 16v16c0 8.8 7.2 16 16 16h576c8.8 0 16-7.2 16-16v-16c0-8.8-7.2-16-16-16z" fill="#26A6D1" p-id="65199"></path><path d="M608 560H224c-8.8 0-16 7.2-16 16v16c0 8.8 7.2 16 16 16h384c8.8 0 16-7.2 16-16v-16c0-8.8-7.2-16-16-16z m0 112H464c-8.8 0-16 7.2-16 16v16c0 8.8 7.2 16 16 16h144c8.8 0 16-7.2 16-16v-16c0-8.8-7.2-16-16-16z" fill="#49B8A4" p-id="65200"></path><path d="M96 64c-17.6 0-32 14.4-32 32s14.4 32 32 32 32-14.4 32-32-14.4-32-32-32z m96 0c-17.6 0-32 14.4-32 32s14.4 32 32 32 32-14.4 32-32-14.4-32-32-32z m96 0c-17.6 0-32 14.4-32 32s14.4 32 32 32 32-14.4 32-32-14.4-32-32-32z" fill="#BFC3C5" p-id="65201"></path></svg>