<?xml version="1.0" encoding="utf-8"?>
<!-- Generator: Adobe Illustrator 20.0.0, SVG Export Plug-In . SVG Version: 6.00 Build 0)  -->
<svg version="1.1" id="Ebene_1" xmlns="http://www.w3.org/2000/svg" xmlns:xlink="http://www.w3.org/1999/xlink" x="0px" y="0px"
	 viewBox="0 0 708.7 137.9" style="enable-background:new 0 0 708.7 137.9;" xml:space="preserve">
<style type="text/css">
	.st0{fill:#FFFFFF;}
	.st1{fill:#0066B2;}
	.st2{fill:#DC052D;}
</style>
<polygon class="st0" points="167.1,28.6 225.1,28.6 225.1,47.6 190.2,47.6 190.2,56.8 220.2,56.8 220.2,74.4 190.2,74.4 
	190.2,102.6 167.1,102.6 "/>
<path class="st0" d="M246.2,28.6h22.6l27.3,74h-23.9L269,92h-23.8l-3.4,10.6h-23.2L246.2,28.6z M264.4,76.2l-6.7-22.8h-0.2
	l-7.2,22.8H264.4z"/>
<polygon class="st0" points="300.3,28.6 324,28.6 345.8,68.2 346,68.2 346,28.6 367.9,28.6 367.9,102.6 345.4,102.6 322.4,62.2 
	322.2,62.2 322.2,102.6 300.3,102.6 "/>
<rect x="373.6" y="60.4" class="st0" width="32.9" height="17"/>
<path class="st0" d="M433.7,77.7c0,1.9,0.3,3.5,0.8,4.9c1.7,4.5,6.7,5.4,11,5.4c3.8,0,9.6-1.2,9.6-6.7c0-3.8-3.3-4.9-16.2-8.5
	c-11.9-3.3-25.4-6.5-25.4-21.5c0-17.1,14.8-24.5,30.3-24.5c16.3,0,30.7,6.1,31.3,24.1h-21.8c0.4-2.8-0.8-4.7-2.7-5.9
	c-1.9-1.3-4.5-1.9-6.8-1.9c-3.2,0-8.3,0.8-8.3,5c0.4,5.3,11.1,6.4,21.7,9.3s21.1,7.8,21.1,21.4c0,19.3-18,25.5-34.7,25.5
	c-8.5,0-32.8-3-33-26.6H433.7z"/>
<polygon class="st0" points="483.3,28.6 506.4,28.6 506.4,54.3 528.1,54.3 528.1,28.6 551.2,28.6 551.2,102.6 528.1,102.6 
	528.1,73.3 506.4,73.3 506.4,102.6 483.3,102.6 "/>
<path class="st0" d="M596.8,26.8c22.8,0,38,16.2,38,38.8c0,22.6-15.2,38.8-38,38.8c-22.8,0-38-16.2-38-38.8
	C558.7,43,574,26.8,596.8,26.8 M596.8,85.9c5.9,0,14.9-3.8,14.9-20.3s-9-20.3-14.9-20.3c-5.9,0-14.9,3.8-14.9,20.3
	S590.9,85.9,596.8,85.9"/>
<path class="st0" d="M642.4,28.6h38.7c20.4,0,27.5,14.7,27.5,25.3c0,17.9-12.2,26.3-29.4,26.3h-13.7v22.4h-23.1V28.6z M665.6,62.6
	h8.9c6,0,12.3-0.4,12.3-7.9c0-6.7-5.3-7.2-10.9-7.2h-10.3V62.6z"/>
<polygon class="st0" points="440,117.4 440,120.6 445.2,120.6 445.2,124 440,124 440,131.2 436.5,131.2 436.5,114 449,114 
	449,117.4 "/>
<path class="st0" d="M461.2,119c-0.3-0.6-0.7-1.1-1.3-1.4c-0.5-0.3-1.2-0.5-1.9-0.5c-1.3,0-2.3,0.5-3,1.5c-0.7,1-1.1,2.3-1.1,3.9
	c0,1.6,0.4,2.9,1.1,3.9c0.7,1,1.7,1.5,3,1.5c0.8,0,1.4-0.2,1.9-0.5c0.5-0.3,1-0.9,1.5-1.7l2.9,1.7c-0.6,1.2-1.5,2.2-2.5,2.9
	c-1.1,0.7-2.4,1-3.9,1c-1.1,0-2.2-0.2-3.1-0.6c-0.9-0.4-1.7-1-2.4-1.8c-0.7-0.8-1.2-1.7-1.6-2.8c-0.4-1.1-0.5-2.3-0.5-3.7
	c0-1.3,0.2-2.5,0.6-3.6c0.4-1.1,0.9-2,1.6-2.8c0.7-0.8,1.5-1.4,2.5-1.8c0.9-0.4,2-0.6,3.1-0.6c1.6,0,2.9,0.3,3.9,1
	c1,0.7,1.9,1.6,2.4,2.8L461.2,119z"/>
<path class="st0" d="M488.5,123.3c0.4,0.6,0.7,1.4,0.7,2.3c0,1.8-0.6,3.1-1.7,4.1c-1.1,1-2.6,1.4-4.5,1.4h-7.9V114h8
	c1.7,0,3.1,0.4,4.1,1.2c1,0.8,1.5,1.9,1.5,3.4c0,0.7-0.2,1.4-0.5,2c-0.3,0.6-0.8,1-1.4,1.4C487.5,122.2,488.1,122.7,488.5,123.3
	 M484.6,117.6c-0.3-0.3-0.9-0.4-1.6-0.4h-4.4v3.3h4.6c0.7,0,1.2-0.1,1.5-0.4c0.3-0.3,0.5-0.7,0.5-1.2
	C485.1,118.3,484.9,117.9,484.6,117.6 M483.1,123.5h-4.6v4.4h4.6c0.8,0,1.5-0.2,1.9-0.6c0.4-0.4,0.6-0.9,0.6-1.6
	C485.6,124.2,484.8,123.5,483.1,123.5"/>
<path class="st0" d="M503.8,131.2l-1.4-3.8H496l-1.4,3.8h-3.7l6.7-17.2h3.4l6.6,17.2H503.8z M500.1,121c-0.2-0.6-0.4-1.2-0.5-1.6
	c-0.2-0.5-0.3-0.8-0.3-1.1c-0.1,0.3-0.2,0.6-0.3,1.1c-0.2,0.5-0.3,1-0.5,1.6l-1.1,3.1h4L500.1,121z"/>
<path class="st0" d="M516.3,124.4v6.8h-3.5v-6.7l-6.6-10.5h4l2.5,4.1c0.1,0.2,0.3,0.5,0.5,0.8c0.2,0.3,0.4,0.7,0.6,1
	c0.2,0.3,0.4,0.6,0.5,0.9c0.2,0.3,0.3,0.5,0.4,0.7c0.2-0.3,0.4-0.8,0.8-1.5c0.4-0.7,0.7-1.3,1.1-1.9l2.5-4.1h4L516.3,124.4z"/>
<polygon class="st0" points="525.7,131.2 525.7,114 537.8,114 537.8,117.4 529.2,117.4 529.2,120.4 534.2,120.4 534.2,123.7 
	529.2,123.7 529.2,127.8 538.2,127.8 538.2,131.2 "/>
<path class="st0" d="M552,131.2l-3.1-6.2h-3.5v6.2h-3.5V114h8.1c1.7,0,3.2,0.5,4.3,1.4c1.1,0.9,1.7,2.3,1.7,4c0,2.5-1.1,4.2-3.3,5.1
	l3.3,6.7H552z M551.7,117.9c-0.4-0.4-1-0.5-1.8-0.5h-4.5v4.4h4.5c1.7,0,2.5-0.7,2.5-2.2C552.4,118.8,552.2,118.2,551.7,117.9"/>
<path class="st0" d="M570.6,131.2l-6.4-9.4c0,0,0,0,0-0.1c-0.2-0.3-0.5-0.7-0.7-1c-0.2-0.4-0.4-0.6-0.5-0.8c0,0.1,0,0.7,0,1.5
	c0,1.3,0,2,0,2.2v7.6h-3.4V114h3.3l6.2,9.1c0,0,0,0,0,0.1c0.2,0.3,0.5,0.7,0.7,1c0.2,0.4,0.4,0.6,0.5,0.8c0-0.1,0-0.7,0-1.5
	c0-1.3,0-2,0-2.2V114h3.4v17.2H570.6z"/>
<path class="st0" d="M598.2,131.2v-6.3c0-0.3,0-1,0-2.2c0-0.8,0-1.3,0-1.6c-0.1,0.3-0.3,0.7-0.5,1.2c-0.2,0.5-0.5,1.1-0.7,1.6
	l-3.5,7.6L590,124c-0.2-0.6-0.5-1.1-0.7-1.6c-0.2-0.5-0.4-0.9-0.5-1.2c0,0.3,0,0.8,0,1.6c0,1.2,0,1.9,0,2.2v6.3h-3.4V114h3.4
	l3.6,7.8c0.2,0.4,0.4,0.9,0.7,1.5c0.2,0.6,0.4,1,0.5,1.4c0.1-0.4,0.3-0.8,0.5-1.4c0.2-0.5,0.4-1.1,0.6-1.5l3.5-7.8h3.4v17.2H598.2z"
	/>
<path class="st0" d="M618.3,129.4c-1.2,1.4-3,2.1-5.2,2.1c-2.1,0-3.9-0.7-5.1-2.1c-1.3-1.4-1.9-3.3-1.9-5.7V114h3.5v9.6
	c0,1.4,0.3,2.5,1,3.3c0.6,0.8,1.5,1.2,2.6,1.2c1.1,0,2-0.4,2.6-1.2c0.6-0.8,1-1.9,1-3.3V114h3.5v9.6
	C620.2,126.1,619.6,128,618.3,129.4 M611.8,112.3c-0.4,0.4-0.8,0.6-1.4,0.6c-0.5,0-1-0.2-1.4-0.6c-0.4-0.4-0.6-0.8-0.6-1.3
	c0-0.5,0.2-1,0.6-1.4c0.4-0.4,0.8-0.6,1.4-0.6s1,0.2,1.4,0.6c0.4,0.4,0.6,0.8,0.6,1.4C612.4,111.5,612.2,112,611.8,112.3
	 M617.2,112.3c-0.4,0.4-0.8,0.6-1.3,0.6c-0.5,0-1-0.2-1.4-0.6c-0.4-0.4-0.6-0.8-0.6-1.3c0-0.5,0.2-1,0.6-1.4
	c0.4-0.4,0.8-0.6,1.4-0.6c0.5,0,1,0.2,1.3,0.6c0.4,0.4,0.6,0.8,0.6,1.4C617.8,111.5,617.6,112,617.2,112.3"/>
<path class="st0" d="M635.5,131.2l-6.4-9.4c0,0,0,0,0-0.1c-0.2-0.3-0.5-0.7-0.7-1c-0.2-0.4-0.4-0.6-0.5-0.8c0,0.1,0,0.7,0,1.5
	c0,1.3,0,2,0,2.2v7.6h-3.4V114h3.3l6.2,9.1c0,0,0,0,0,0.1c0.2,0.3,0.5,0.7,0.7,1c0.2,0.4,0.4,0.6,0.5,0.8c0-0.1,0-0.7,0-1.5
	c0-1.3,0-2,0-2.2V114h3.4v17.2H635.5z"/>
<path class="st0" d="M653.1,119c-0.3-0.6-0.7-1.1-1.3-1.4c-0.5-0.3-1.2-0.5-1.9-0.5c-1.3,0-2.3,0.5-3,1.5c-0.7,1-1.1,2.3-1.1,3.9
	c0,1.6,0.4,2.9,1.1,3.9c0.7,1,1.7,1.5,3,1.5c0.8,0,1.4-0.2,1.9-0.5c0.5-0.3,1-0.9,1.5-1.7l2.9,1.7c-0.6,1.2-1.5,2.2-2.5,2.9
	c-1.1,0.7-2.4,1-3.9,1c-1.1,0-2.2-0.2-3.1-0.6c-0.9-0.4-1.7-1-2.4-1.8c-0.7-0.8-1.2-1.7-1.6-2.8c-0.4-1.1-0.5-2.3-0.5-3.7
	c0-1.3,0.2-2.5,0.6-3.6c0.4-1.1,0.9-2,1.6-2.8c0.7-0.8,1.5-1.4,2.5-1.8c0.9-0.4,2-0.6,3.1-0.6c1.6,0,2.9,0.3,3.9,1
	c1,0.7,1.9,1.6,2.4,2.8L653.1,119z"/>
<polygon class="st0" points="670.4,131.2 670.4,124 663.3,124 663.3,131.2 659.8,131.2 659.8,114 663.3,114 663.3,120.6 
	670.4,120.6 670.4,114 673.9,114 673.9,131.2 "/>
<polygon class="st0" points="678.4,131.2 678.4,114 690.5,114 690.5,117.4 681.9,117.4 681.9,120.4 686.9,120.4 686.9,123.7 
	681.9,123.7 681.9,127.8 690.8,127.8 690.8,131.2 "/>
<path class="st0" d="M705.5,131.2l-6.4-9.4c0,0,0,0,0-0.1c-0.2-0.3-0.5-0.7-0.7-1c-0.2-0.4-0.4-0.6-0.5-0.8c0,0.1,0,0.7,0,1.5
	c0,1.3,0,2,0,2.2v7.6h-3.4V114h3.3l6.2,9.1c0,0,0,0,0,0.1c0.2,0.3,0.5,0.7,0.7,1c0.2,0.4,0.4,0.6,0.5,0.8c0-0.1,0-0.7,0-1.5
	c0-1.3,0-2,0-2.2V114h3.4v17.2H705.5z"/>
<polygon class="st0" points="425.8,118.7 418.6,123.9 421.4,132.4 414.2,127.2 407,132.4 409.7,123.9 402.6,118.7 411.4,118.7 
	414.2,110.3 416.9,118.7 "/>
<polygon class="st0" points="398.3,118.7 391.2,123.9 393.9,132.4 386.7,127.2 379.5,132.4 382.3,123.9 375.1,118.7 384,118.7 
	386.7,110.3 389.4,118.7 "/>
<polygon class="st0" points="370.9,118.7 363.7,123.9 366.4,132.4 359.2,127.2 352,132.4 354.8,123.9 347.6,118.7 356.5,118.7 
	359.2,110.3 362,118.7 "/>
<polygon class="st0" points="343.4,118.7 336.2,123.9 339,132.4 331.8,127.2 324.5,132.4 327.3,123.9 320.1,118.7 329,118.7 
	331.8,110.3 334.5,118.7 "/>
<path class="st1" d="M68.9,0C30.9,0,0,30.9,0,68.9c0,38.1,30.9,68.9,68.9,68.9s68.9-30.9,68.9-68.9C137.9,30.9,107,0,68.9,0"/>
<path class="st0" d="M68.9,3.4C32.8,3.4,3.4,32.8,3.4,68.9c0,36.2,29.3,65.5,65.5,65.5c36.2,0,65.5-29.3,65.5-65.5
	C134.4,32.8,105.1,3.4,68.9,3.4"/>
<path class="st2" d="M68.9,6.5C34.5,6.5,6.5,34.5,6.5,68.9c0,34.5,27.9,62.4,62.4,62.4c34.5,0,62.4-27.9,62.4-62.4
	C131.3,34.5,103.4,6.5,68.9,6.5 M68.9,107.9c-21.5,0-39-17.4-39-39c0-21.5,17.4-39,39-39c21.5,0,39,17.4,39,39
	C107.9,90.5,90.5,107.9,68.9,107.9"/>
<path class="st1" d="M34.7,79.5c1.6,5.3,4.4,9.9,7.9,13.7V77.1l-9.1-13.3C32.7,68.9,33.1,74.3,34.7,79.5 M53.1,92.3V73.8L42.7,58.6
	v-14c-1.9,2.1-3.6,4.4-5,6.9l4.9,7.2v18.5L53.1,92.3l-0.1,8.7c2.5,1.3,5.2,2.2,8,2.8L53.1,92.3z M63.7,70.6l10.5,15.3v18.5
	L63.7,89.1V70.6L53.2,55.3V36.8l10.5,15.3V70.6z M74.2,67.3L63.8,52V33.5l10.5,15.3V67.3l10.5,15.3v18.5L74.2,85.8L74.2,67.3z
	 M58.3,34.7c-5.3,1.7-10,4.4-13.8,8l8.6,12.6v18.5l10.5,15.3v15.3c5.2,0.8,10.6,0.4,15.9-1.2c5.3-1.7,10-4.4,13.8-8l-8.6-12.6V64
	L74.3,48.8V33.5C69.1,32.7,63.7,33,58.3,34.7 M95.3,79.3V60.8L84.8,45.5v-8.7c-2.5-1.3-5.2-2.2-8-2.8l7.9,11.6V64L95.3,79.3l-0.1,14
	c1.9-2.1,3.6-4.4,5-6.9L95.3,79.3z M103.2,58.3c-1.6-5.3-4.4-9.9-7.9-13.7v16.2l9.1,13.3C105.2,69,104.8,63.6,103.2,58.3"/>
<path class="st0" d="M27.2,81.8l1.8,3.8L26.1,91c-0.4,0.8-0.8,1.5-0.8,1.5l0,0.1c0,0,0.8,0,1.7,0.1l6.1,0.6l2.2,3.5l-13.3,7.7
	l-2.1-3.4l5.5-3.2c1.3-0.7,2.3-1.3,2.3-1.3l0-0.1c0,0-0.7,0-2.1-0.3L20,95.5l0-0.1l2.4-5.2c0.6-1.3,0.9-1.9,0.9-1.9l0-0.1
	c0,0-1,0.5-2.3,1.2l-5.7,2.9l-1.7-3.6L27.2,81.8z"/>
<path class="st0" d="M37.4,98.6l3.1,2.7l-6.1,7.3c-1,1.2-1,2.5,0.6,3.7c1.5,1.2,2.8,1,3.7-0.3l5.7-7.7l3.4,2.3l-5.8,7.9
	c-2.7,3.6-6.1,2.9-9.1,0.5c-3-2.3-4.5-5.5-1.6-9L37.4,98.6z M43.5,103.5l-3.8,2.6l-0.1,0l1.7-4.3L43.5,103.5z"/>
<path class="st0" d="M50,107.9l4,1.5l2.3,7.7c0.5,1.7,0.7,2.5,0.7,2.5l0.1,0c0,0,0.3-1.1,0.6-2.5l1.6-6.1l3.9,0.9l-4,14.8l-4.1-1
	l-2.6-8c-0.5-1.6-0.7-2.6-0.7-2.6l-0.1,0c0,0-0.3,1.2-0.8,2.5l-2.1,6.2l-3.8-1.4L50,107.9z"/>
<path class="st0" d="M79.8,121.2c0.1,3.6-2.2,6.1-6.5,6.4c-4.1,0.3-7.9-1.6-8.1-7.5c-0.2-6,3.1-8.3,7-8.5c4.2-0.3,6.7,2.1,7.1,5.3
	l-4.1,0.3c-0.4-1.4-1.1-2.2-2.9-2.1c-1.7,0.1-2.9,1.7-2.8,4.8c0.1,3.2,1.5,4.5,3.4,4.3c1.9-0.1,2.7-1,2.8-2.7L79.8,121.2z"/>
<polygon class="st0" points="80.7,110.6 84.5,109.1 86.7,114.3 91.5,112.1 89,107.1 92.6,105.2 99.4,119 95.8,120.9 93.1,115.4 
	88.1,117.7 90.5,123.3 86.7,124.8 80.7,110.6 "/>
<polygon class="st0" points="95,103.4 102.3,96.4 104.7,98.7 100.1,103.1 101.9,105 106.3,100.8 108.6,103 104,107.4 105.9,109.6 
	111.1,104.6 113.5,106.9 105.3,114.8 "/>
<path class="st0" d="M104.2,94.2l2.1-3.7l8-0.9c1.7-0.2,2.6-0.2,2.6-0.2l0.1-0.1c0,0-1.1-0.5-2.4-1.1l-5.8-2.6l1.6-3.7l13.9,6.4
	l-1.7,3.9l-8.4,1.2c-1.6,0.2-2.6,0.3-2.6,0.3l-0.1,0.1c0,0,1.1,0.5,2.3,1.2l5.8,3.1l-2,3.5L104.2,94.2z"/>
<polygon class="st0" points="16.4,43.4 19.5,44.6 17,51.4 19.9,52.4 22.2,46 25.2,47.2 23,53.4 28.3,55.1 27.2,59 12.5,54.2 "/>
<path class="st0" d="M35.2,33.2c2.7,2.4,3.1,5.7,0.5,9.1c-2.4,3.1-6.2,4.5-11,1c-4.8-3.5-4.1-7.7-1.6-10.9c2.7-3.4,6.1-3.7,8.7-1.8
	l-2.6,3.2c-1.2-0.7-2.4-0.6-3.6,0.9c-1.2,1.5-0.9,3.3,1.7,5.2c2.5,1.9,4.4,1.8,5.5,0.4c1.2-1.5,0.9-2.6-0.2-3.8L35.2,33.2z"/>
<path class="st0" d="M45.3,15.9c2.7-1.3,5.4-1.5,6.5,1.2c1,2.3,0.4,3.3-0.8,4.3l0,0.1c1.3-0.3,3-0.2,4,2.3c1.3,3-0.7,4.8-3.4,6.1
	l-5.7,2.7l-6.9-13.7L45.3,15.9z M47.6,21.4c1.1-0.5,1.4-1,0.9-2c-0.4-1-1.1-1.1-2.1-0.6l-2.3,1.1l1.3,2.6L47.6,21.4z M50.2,27
	c1.2-0.5,1.5-1,1-2.2c-0.5-1.1-1.3-1.1-2.4-0.6l-2,0.9l1.4,2.8L50.2,27z"/>
<path class="st0" d="M73.2,26l-4.4,0l-1.2-2.7l-5.3,0.5l-0.8,2.9l-4.3,0.8l4.3-16l4.7-0.4L73.2,26z M66.4,20.2l-1.3-3
	c-0.5-1-0.8-1.9-0.8-1.9l-0.1,0c0,0-0.2,0.9-0.5,2L63,20.5L66.4,20.2z"/>
<path class="st0" d="M77.1,21.4l-3.6-10.9l4.6,0.9l1.4,4.6c0.3,0.9,0.5,1.8,0.5,1.8l0.1,0c0,0,0.6-0.8,1.2-1.5l3.2-3.6l4.6,1.1
	l-7.8,8.4l-1.2,5.1l-4-0.9L77.1,21.4z"/>
<polygon class="st0" points="92.1,15.2 101.8,20.5 100.1,23.4 94.1,20.1 92.9,22.5 98.4,25.5 96.8,28.3 91.5,25.3 90.1,27.9 
	95.9,31.1 94.3,33.9 85.1,28.9 "/>
<path class="st0" d="M107.1,24.7l4.7,5c2.4,2.6,3,5,0.1,7.5c-1.8,1.6-3.2,2-4.8,1.4l-2.5,6.2l-2.9-3.5l2.2-5.1l-1.3-1.4l-3.6,3.6
	l-3-2.8L107.1,24.7z M105,32.6l1.6,1.7c0.9,0.9,1.6,1,2.6,0.1c1-0.9,1-1.7,0.1-2.6l-1.7-1.8L105,32.6z"/>
<path class="st0" d="M111,59l-1.4-4l4.5-6.6c1-1.4,1.5-2.1,1.5-2.1l0-0.1c0,0-1.1,0.5-2.4,1.1l-5.8,2.6l-1.8-3.6l14-6.3l1.8,3.8
	l-4.6,7.1c-0.9,1.3-1.5,2.2-1.5,2.2l0,0.1c0,0,1.1-0.5,2.4-1l6.2-2.3l1.3,3.8L111,59z"/>
</svg>
