<?xml version="1.0" standalone="no"?><!DOCTYPE svg PUBLIC "-//W3C//DTD SVG 1.1//EN" "http://www.w3.org/Graphics/SVG/1.1/DTD/svg11.dtd"><svg t="1558335415595" class="icon" style="" viewBox="0 0 1024 1024" version="1.1" xmlns="http://www.w3.org/2000/svg" p-id="5162" xmlns:xlink="http://www.w3.org/1999/xlink" width="16" height="16"><defs><style type="text/css"></style></defs><path d="M353.696 333.952c49.12-31.872 111.808-41.44 168.32-26.336C575.936 321.696 624 357.824 651.52 406.4c-30.4 17.824-60.928 35.392-91.488 52.864-15.552-24.608-40.064-43.776-68.736-50.016-39.552-9.6-83.488 6.848-107.584 39.488-25.6 32.768-28.288 80.928-6.816 116.512a106.656 106.656 0 0 0 75.776 51.008c41.824 6.752 85.984-15.04 106.944-51.68 30.816 17.472 61.44 35.2 92 53.088a212.224 212.224 0 0 1-128.16 98.368 212.736 212.736 0 0 1-161.12-20.704 212.832 212.832 0 0 1-77.632-77.216c-27.328-46.176-35.392-103.008-22.912-155.136a211.904 211.904 0 0 1 91.904-129.024z m366.816 142.656h24.16v23.328h23.36v24.192h-23.36v23.296h-24.16v-23.296h-23.328a3048.192 3048.192 0 0 1 0-24.192h23.328v-23.328z m-88.128 0v23.328h-23.328v24.192h23.328v23.296h23.744v-23.296h23.776a3048.192 3048.192 0 0 1 0-24.192h-23.776v-23.328h-23.744z" fill="#9A5CFF" p-id="5163"></path></svg>