<?xml version="1.0" standalone="no"?><!DOCTYPE svg PUBLIC "-//W3C//DTD SVG 1.1//EN" "http://www.w3.org/Graphics/SVG/1.1/DTD/svg11.dtd"><svg t="1542858890066" class="icon" style="" viewBox="0 0 1024 1024" version="1.1" xmlns="http://www.w3.org/2000/svg" p-id="9332" xmlns:xlink="http://www.w3.org/1999/xlink" width="16" height="16"><defs><style type="text/css"></style></defs><path d="M74.87 436.4l14.532-18.542 184.608-0.088-11.886 18.54-187.254 0.088z m167.436 45.61l6.122-18.54-233.898 0.16L0 482.17l242.306-0.16z m-6.722 45.774l1.768-18.54-106.394 0.086-10.326 18.54 114.952-0.086z m678.602 145.2c-102.36 56.386-242.208 32.506-279.596-89.752-22.096 43.482-58.174 79.12-101.168 99.442-101.866 48.15-240.17 6.16-257.958-125.792-13.026-126.476 89.338-204.628 149.85-224.36 96.17-29.958 191.016 5.244 223.814 92.854l-103.3 27.076c-10.976-30.542-70.626-52.536-116.478-19.386-72.114 44.494-70.782 156.464 16.346 173.09 45.236 5.8 75.62-16.552 98.4-50.932l-112.174 0.24 36.042-77.72h168.114c72.812-205.414 356.782-196.42 385.642-11.84 10.258 65.604-12.138 154.528-107.534 207.08zM820.894 418.84c-77.722 16.724-97.094 85.38-85.096 129.368 12.766 46.812 62.22 77.508 124.964 48.152 100.56-47.046 74.2-202.064-39.868-177.52z" fill="#82AAFF" p-id="9333"></path></svg>