<?xml version="1.0" standalone="no"?><!DOCTYPE svg PUBLIC "-//W3C//DTD SVG 1.1//EN" "http://www.w3.org/Graphics/SVG/1.1/DTD/svg11.dtd"><svg t="1543909063336" class="icon" style="" viewBox="0 0 1024 1024" version="1.1" xmlns="http://www.w3.org/2000/svg" p-id="95034" xmlns:xlink="http://www.w3.org/1999/xlink" width="16" height="16"><defs><style type="text/css"></style></defs><path d="M590.432 64h-129.568a31.2 31.2 0 0 0-23.424 10.432C425.728 87.616 408.832 96 389.92 96s-35.808-8.384-47.488-21.568A31.2 31.2 0 0 0 319.008 64h-96.576a16 16 0 0 0-16 16v128a16 16 0 0 0 16 16h96.576a31.2 31.2 0 0 0 23.424-10.432A63.36 63.36 0 0 1 389.92 192c34.816 0 51.52 22.976 55.52 50.304 1.184 7.872 7.904 13.696 15.84 13.696h1.312l-0.16 192h128V256h1.376a16 16 0 0 0 15.744-13.12c5.856-32.384 34.176-50.88 78.88-50.88 64 0 113.952 39.808 141.952 85.44l16.48-10.048v-0.064C805.248 151.616 672.16 64 590.432 64z" fill="#CDD7DE" p-id="95035"></path><path d="M820.032 216.32c-36.96-35.84-84.128-56.32-133.6-56.32h-320V91.168c-20.352-8.288-16.8-13.856-32-22.592V160h-128v48a16 16 0 0 0 16 16h96.576c26.304 0 32.896-32 70.912-32 34.816 0 51.52 22.976 55.52 50.336 1.184 7.84 7.904 13.664 15.84 13.664h1.152l64.16 64.16V448h63.84V256h1.376a16 16 0 0 0 15.744-13.12c5.856-32.384 34.176-50.88 78.88-50.88 64 0 113.952 39.808 141.952 85.44 0.032 0 16.448-10.08 16.48-10.112-2.368-8.288-12.256-30.752-24.832-51.008z" fill="#B3BEC6" p-id="95036"></path><path d="M590.432 448h-128c-33.92 84.064-40.992 123.104-32 224 16.16 181.376-1.248 190.208-1.6 225.888C428.48 933.568 448.8 960 473.44 960h106.016c24.64 0 44.928-26.432 44.608-62.112-0.384-35.68-17.792-44.512-1.632-225.888 8.992-100.896 1.92-139.936-32-224z" fill="#8A3B2E" p-id="95037"></path><path d="M428.896 896h97.536V448h-64c-33.92 84.064-40.992 123.104-32 224 15.84 178.048-0.608 189.888-1.536 224z" fill="#D84234" p-id="95038"></path></svg>