<?xml version="1.0" standalone="no"?><!DOCTYPE svg PUBLIC "-//W3C//DTD SVG 1.1//EN" "http://www.w3.org/Graphics/SVG/1.1/DTD/svg11.dtd"><svg t="1545895847350" class="icon" style="" viewBox="0 0 1024 1024" version="1.1" xmlns="http://www.w3.org/2000/svg" p-id="4931" xmlns:xlink="http://www.w3.org/1999/xlink" width="16" height="16"><defs><style type="text/css"></style></defs><path d="M510.723192 995.910224C242.593516 995.910224 25.53616 778.852868 25.53616 510.723192S242.593516 25.53616 510.723192 25.53616s485.187032 217.057357 485.187032 485.187032-217.057357 485.187032-485.187032 485.187032z" fill="#4CB697" p-id="4932"></path><path d="M955.052369 763.531172c40.857855-76.608479 66.394015-160.877805 66.394015-252.80798C1021.446384 229.825436 791.620948 0 510.723192 0S0 229.825436 0 510.723192c0 275.790524 217.057357 497.955112 490.294264 510.723192 2.553616 0 2.553616 2.553616 5.107232 2.553616V1021.446384h17.875312v2.553616l2.553616-2.553616c188.967581-2.553616 349.845387-104.698254 439.221945-257.915212zM51.072319 536.259352h181.306733c2.553616 61.286783 12.76808 122.573566 33.197008 178.753117H99.591022c-28.089776-56.179551-43.411471-114.912718-48.518703-178.753117z m916.74813-51.07232h-194.074813c-2.553616-53.625935-10.214464-104.698254-25.53616-153.216957h186.413965c20.428928 48.518703 30.643392 99.591022 33.197008 153.216957z m-245.147132 0h-194.074813v-153.216957h165.985037c15.321696 48.518703 25.53616 99.591022 28.089776 153.216957z m-191.521197-204.289276V81.715711c61.286783 56.179551 112.359102 122.573566 145.556109 199.182045h-145.556109z m-51.07232-199.182045V280.897756h-145.556109c33.197007-76.608479 81.715711-145.55611 145.556109-199.182045z m0 250.254364v153.216957h-194.074812c2.553616-53.625935 12.76808-104.698254 28.089775-153.216957h165.985037z m-245.147132 153.216957H53.625935c2.553616-53.625935 15.321696-104.698254 35.750624-153.216957h173.645885c-17.875312 48.518703-25.53616 99.591022-28.089776 153.216957z m51.07232 51.07232h194.074812v178.753117h-158.324189c-22.982544-56.179551-33.197007-117.466334-35.750623-178.753117z m194.074812 227.27182V944.837905c-56.179551-51.072319-104.698254-112.359102-137.895261-181.306733h137.895261z m51.07232 181.306733v-181.306733h137.895262c-35.750623 71.501247-81.715711 132.78803-137.895262 181.306733z m0-232.379052v-178.753117h194.074813c-2.553616 61.286783-15.321696 122.573566-35.750624 178.753117h-158.324189z m242.593516-176.199501H970.374065c-2.553616 63.840399-20.428928 122.573566-45.965087 178.753117h-181.306734c17.875312-58.733167 28.089776-117.466334 30.643392-178.753117z m135.341646-255.361596h-178.753117c-33.197007-84.269327-86.822943-160.877805-153.216958-224.718205 143.002494 22.982544 263.022444 107.25187 331.970075 224.718205zM429.007481 58.733167c-63.840399 61.286783-114.912718 137.895262-150.663341 222.164589H112.359102C178.753117 165.985037 293.665835 84.269327 429.007481 58.733167zM127.680798 763.531172h158.32419c33.197007 74.054863 79.162095 140.448878 135.341645 196.628429-122.573566-22.982544-227.27182-94.483791-293.665835-196.628429z m457.097257 201.735661c58.733167-56.179551 104.698254-125.127182 137.895262-199.182045H893.765586c-68.947631 102.144638-181.306733 176.199501-308.987531 199.182045z" fill="#3C4154" p-id="4933"></path></svg>