<?xml version="1.0" standalone="no"?><!DOCTYPE svg PUBLIC "-//W3C//DTD SVG 1.1//EN" "http://www.w3.org/Graphics/SVG/1.1/DTD/svg11.dtd"><svg t="1542858106703" class="icon" style="" viewBox="0 0 1024 1024" version="1.1" xmlns="http://www.w3.org/2000/svg" p-id="24389" xmlns:xlink="http://www.w3.org/1999/xlink" width="16" height="16"><defs><style type="text/css"></style></defs><path d="M833.28 493.56H222.72L94.08 895.24h868z" fill="#40BDFF" p-id="24390"></path><path d="M537.48 789.16h-50.96a143.68 143.68 0 0 0-144 144V976h338.72v-42.96a143.72 143.72 0 0 0-144-144zM697.36 394.2a144 144 0 0 0-144-144h-50.84a144 144 0 0 0-144 144v43h338.72zM518.32 234.32h19.6a93.48 93.48 0 1 0-19.6 0zM521.68 773.16a93.48 93.48 0 1 0-19.36 0z" fill="#EFFAFE" p-id="24391"></path><path d="M833.28 493.56h-32l128.64 401.68h32z" fill="#2197F7" p-id="24392"></path><path d="M678.6 904.8a144 144 0 0 0-141.12-115.64h-20a143.72 143.72 0 0 1 144 144V976h20v-42.96a144.88 144.88 0 0 0-2.88-28.24zM553.48 250.32h-32a144 144 0 0 1 144 144v42.88h32V394.2a144 144 0 0 0-144-143.88zM528 48a93.52 93.52 0 0 0-16 1.4 93.36 93.36 0 0 1 0 184c2.08 0.36 4 0.72 6.24 0.96h19.6A93.44 93.44 0 0 0 528 48zM512 586.8a93.96 93.96 0 0 0-10 0.56 93.4 93.4 0 0 1 0 185.76h19.72A93.44 93.44 0 0 0 512 586.8z" fill="#E4EBED" p-id="24393"></path><path d="M267.76 455.2h488.48a10 10 0 1 0 0-20h-56.88V394.2A162.16 162.16 0 0 0 571.04 236a111.44 111.44 0 1 0-118.08 0 162.16 162.16 0 0 0-128.32 158.2v41H267.76a10 10 0 0 0 0 20z m152.8-313.76a91.44 91.44 0 1 1 101.12 90.92h-19.4a91.56 91.56 0 0 1-81.72-90.92z m-76 252.8a142.04 142.04 0 0 1 141.88-141.88h50.96a142.04 142.04 0 0 1 141.88 141.88v40.96H344.64zM966.4 900l-133.76-417.48a10 10 0 0 0-9.52-6.96H200.88a10 10 0 0 0-9.52 6.96L57.6 900a10 10 0 0 0 9.52 13.04h258.76a164 164 0 0 0-1.24 19.8V984a10 10 0 0 0 10 10h354.72a10 10 0 0 0 10-10v-50.96a164 164 0 0 0-1.24-19.8h258.76a10 10 0 0 0 9.52-13.24z m-287.04 74H344.64v-40.96a141.68 141.68 0 0 1 141.88-141.88h50.96a141.68 141.68 0 0 1 141.88 141.88z m-258.8-293.76a91.44 91.44 0 1 1 101 90.92h-19.16a91.56 91.56 0 0 1-81.84-90.92z m273.84 213a162.48 162.48 0 0 0-123.4-118.56 111.44 111.44 0 1 0-118.04 0 162.48 162.48 0 0 0-123.4 118.56H80.84L208 495.56h608l127.36 397.68z" fill="#263238" p-id="24394"></path><path d="M344.6 48.76v16h-16a4 4 0 0 0 0 8h16v16a4 4 0 0 0 8 0v-16h16a4 4 0 0 0 0-8h-16v-16a4 4 0 1 0-8 0zM132 356.8v16h-16a4 4 0 0 0 0 8h16v16a4 4 0 0 0 8 0v-16h16a4 4 0 0 0 0-8h-16v-16a4 4 0 0 0-8 0z" fill="#FFDD00" p-id="24395"></path><path d="M208 184a24 24 0 1 1-24-24 24 24 0 0 1 24 24z m-40 0a16 16 0 1 0 16-16 16 16 0 0 0-16 16zM958.44 625.6a24 24 0 1 1-24-24 24 24 0 0 1 24 24z m-40 0a16 16 0 1 0 16-16 16 16 0 0 0-16 16zM923.16 184a24 24 0 1 1-24-24 24 24 0 0 1 24 24z m-40 0a16 16 0 1 0 16-16 16 16 0 0 0-16 16z" fill="#40BDFF" p-id="24396"></path></svg>