<?xml version="1.0" standalone="no"?><!DOCTYPE svg PUBLIC "-//W3C//DTD SVG 1.1//EN" "http://www.w3.org/Graphics/SVG/1.1/DTD/svg11.dtd"><svg t="1542856363656" class="icon" style="" viewBox="0 0 1448 1024" version="1.1" xmlns="http://www.w3.org/2000/svg" p-id="4551" xmlns:xlink="http://www.w3.org/1999/xlink" width="22.625" height="16"><defs><style type="text/css"></style></defs><path d="M947.098508 184.670232c-28.176858 19.845935-55.617471 36.75377-85.755355 61.254563-22.787475 18.621153-63.950114 44.102459-66.155409 78.406666-3.430077 52.187394 76.937616 100.456175 34.300766 166.609864-16.168149 25.235318-43.612203 36.019245-78.403226 51.451149-4.164602-7.592958 9.067168-13.962854 14.70082-22.049509 53.413896-77.422712-55.619191-103.151727-41.652896-198.462788 13.477758-92.125252 122.020589-124.222443 222.9653-137.209945z" fill="#FF1515" p-id="4552"></path><path d="M606.52665 503.192582c-25.237038 11.76272-67.378471 13.966295-85.757076 39.201612 18.622873 13.969735 45.817498 13.479479 71.056256 14.70254 103.395995 4.656578 232.765273-4.162881 320.970192-19.601666 2.93982 6.369897-12.251257 17.396371-22.05123 24.502513-55.617471 40.674103-228.600672 52.187394-347.922268 44.10418-39.937858-2.693831-131.328585-13.23349-132.309098-49.005027-1.224782-43.367934 110.746405-48.021072 156.809891-51.451149 9.067168-0.736245 25.973283-4.41231 39.203333-2.453003zM555.07378 613.44873c11.515011 1.47077-8.084935 8.332643-4.900846 17.152103 42.143153 41.654616 173.227469 29.891896 237.66612 17.152103 13.476038-2.693831 26.950356-10.782207 36.752049-9.799973 24.502513 2.207015 40.182126 30.628141 61.252843 34.302487-74.484612 33.567961-218.308722 49.491842-323.421476 29.401639-27.198065-5.143395-74.484612-19.845935-75.955382-41.651176-2.203575-29.651068 46.799731-42.144873 68.606692-46.557183zM586.924983 713.906625c7.596398 2.449563-2.695552 6.619325-2.449563 9.803414 22.297218 38.711356 132.555087 24.989329 188.662814 12.249536 11.270743-2.697272 22.541486-10.536218 31.852923-9.799973 28.421126 1.959307 39.201613 31.605214 63.704126 36.75205-78.162398 47.775084-267.559737 67.130762-345.474426 7.35041-3.674345-43.615643 31.362666-48.51477 63.704126-56.355437z" fill="#2365C4" p-id="4553"></path><path d="M515.870448 787.410724c-23.276011 5.88308-83.55006-2.449563-85.755356 29.40508-0.736245 12.249536 20.58046 26.706088 34.300766 31.851203 79.875716 30.137885 240.361672 34.794463 372.426502 19.601667 61.252842-7.102701 176.411558-27.684881 161.710738-90.656203 18.376885 2.207015 34.792743 13.966295 36.750329 31.854644 7.35213 67.626179-147.988711 96.045585-210.712324 102.905738-136.47542 14.945088-307.005618 12.005268-411.628114-24.502513-34.056498-11.75928-75.220857-33.564521-73.504099-66.153689 2.93982-54.884666 135.248918-70.077463 176.411558-34.305927z" fill="#2365C4" p-id="4554"></path><path d="M724.133208 990.52837c-91.880984-10.042521-180.331891-23.518559-254.816503-56.350276 194.788442 46.798011 478.762317 43.367934 614.993468-56.357156 7.34869-5.389383 14.210563-15.925601 24.500793-14.6991-34.300766 102.905738-166.119608 110.01188-279.320736 127.404812l-105.357022 0.00172z" fill="#2365C4" p-id="4555"></path><path d="M787.839054 18.060368c17.152103 16.17159 29.40336 46.307754 29.40336 78.404946 0 94.820804-100.457895 149.70547-149.461202 213.165327-10.782207 14.210563-24.746781 36.017525-24.500793 58.803279 0.488536 51.697137 53.902432 109.521623 73.504099 151.909045-34.302486-22.541486-75.955382-52.677651-105.357022-88.204919-29.40164-35.281279-58.803279-92.615509-31.852923-142.109071 40.428115-74.484612 160.731945-118.83306 203.365354-198.462788 10.29023-19.355678 18.375165-49.003306 4.899127-73.505819z" fill="#FF1515" p-id="4556"></path><path d="M932.397688 527.695095c50.474076-43.123666 135.985163-26.215831 139.659509 46.553743 4.166322 85.263379-89.187152 133.043623-156.811612 137.209944 31.360946-29.891896 114.178202-77.916409 98.008332-147.009918-6.614165-27.93431-41.406908-44.840425-80.856229-36.753769z" fill="#2365C4" p-id="4557"></path></svg>