<?xml version="1.0" standalone="no"?><!DOCTYPE svg PUBLIC "-//W3C//DTD SVG 1.1//EN" "http://www.w3.org/Graphics/SVG/1.1/DTD/svg11.dtd"><svg t="1541561799987" class="icon" style="" viewBox="0 0 1024 1024" version="1.1" xmlns="http://www.w3.org/2000/svg" p-id="12511" xmlns:xlink="http://www.w3.org/1999/xlink" width="16" height="16"><defs><style type="text/css"></style></defs><path d="M666.988089 0H356.989156C254.179556 0 202.820267 0 147.478756 17.521778a217.315556 217.315556 0 0 0-129.934223 129.979733C0 202.865778 0 254.225067 0 357.011911V666.965333c0 102.877867 0 154.2144 17.521778 209.555911a217.383822 217.383822 0 0 0 129.979733 129.956978c55.318756 17.521778 106.7008 17.521778 209.487645 17.521778H666.965333c102.855111 0 154.168889 0 209.5104-17.521778a217.474844 217.474844 0 0 0 130.002489-129.956978c17.521778-55.318756 17.521778-106.7008 17.521778-209.533155V357.011911c0-102.786844 0-154.168889-17.521778-209.5104A217.543111 217.543111 0 0 0 876.475733 17.499022C821.202489 0 769.820444 0 666.988089 0z" fill="#E48271" p-id="12512"></path><path d="M213.4016 452.653511h76.617956V853.333333H213.4016zM256.591644 330.9568c19.205689 35.612444 31.675733 71.224889 37.410134 106.837333h83.467378c-11.514311-45.511111-25.895822-81.123556-43.144534-106.837333h-77.732978z" fill="#FFFFFF" p-id="12513"></path><path d="M421.364622 259.731911h92.114489V209.260089h-166.934755c1.911467-3.959467 4.801422-10.8544 8.624355-20.775822 1.934222-7.896178 3.868444-13.812622 5.757156-17.8176h-86.334578c-13.425778 53.430044-44.100267 93.047467-92.091733 118.738489v50.449066c63.305956-15.815111 108.407467-42.530133 135.259022-80.122311h28.785778c9.580089 25.713778 15.36 50.471822 17.294222 74.205867h80.577422c-5.825422-27.693511-13.471289-52.4288-23.051378-74.205867zM383.931733 420.022044h346.885689v326.496712c1.934222 29.673244-11.491556 43.508622-40.300089 41.528888h-47.581866v59.369245h69.085866c67.151644 1.956978 99.760356-28.717511 97.826134-92.023467V360.630044H383.931733v59.392z" fill="#FFFFFF" p-id="12514"></path><path d="M654.472533 473.429333H372.417422V773.233778h195.720534c61.394489 1.956978 90.180267-27.739022 86.334577-89.042489v-210.761956z m-204.322133 53.407289h126.611911v68.266667h-126.611911v-68.266667z m89.201778 192.944356h-89.201778V645.575111h126.611911v35.6352c1.911467 27.716267-10.535822 40.5504-37.410133 38.570667zM657.362489 206.301867c0-1.956978 0.955733-4.9152 2.889955-8.920178l8.624356-26.715022H582.542222c-13.448533 55.409778-43.167289 96.961422-89.247289 124.654933v47.490844c59.483022-15.837867 104.607289-43.508622 135.281778-83.103288h40.300089c9.602844 25.713778 15.337244 50.471822 17.294222 74.205866h77.664711c-1.911467-19.751822-9.580089-44.509867-23.028622-74.205866h100.738845V206.301867h-184.183467z" fill="#FFFFFF" p-id="12515"></path></svg>