<?xml version="1.0" standalone="no"?><!DOCTYPE svg PUBLIC "-//W3C//DTD SVG 1.1//EN" "http://www.w3.org/Graphics/SVG/1.1/DTD/svg11.dtd"><svg t="1542857947410" class="icon" style="" viewBox="0 0 1024 1024" version="1.1" xmlns="http://www.w3.org/2000/svg" p-id="21193" xmlns:xlink="http://www.w3.org/1999/xlink" width="16" height="16"><defs><style type="text/css"></style></defs><path d="M522.752 243.2c-7.168 4.608-12.8 11.776-16.384 19.968-3.072 10.752-2.56 22.016 1.536 32.256 3.072 10.752 9.728 20.48 18.944 27.136 4.608 3.072 9.728 5.12 15.36 6.144 5.632 0.512 11.264-0.512 16.384-3.072 6.144-3.584 10.752-8.704 13.824-14.848 2.56-6.144 4.096-13.312 4.608-19.968 0.512-8.704-0.512-17.408-3.072-25.6-3.072-9.216-8.704-16.896-16.896-22.016-4.096-2.56-8.704-4.096-13.312-5.12-4.608-0.512-9.728 0-13.824 1.536-2.56 1.024-5.12 2.56-7.168 3.584" fill="#FFFFFF" p-id="21194"></path><path d="M766.976 592.896c-4.608-24.064-11.264-48.128-20.48-70.656-6.144-16.896-14.848-33.28-25.088-47.616-10.752-14.336-24.064-26.112-34.304-40.448-5.632-7.168-10.24-15.872-15.872-23.04-2.56-4.608-4.608-9.728-6.656-14.336-6.656-14.848-13.312-30.208-21.504-44.544-1.024-2.048-2.56-4.608-4.096-6.656-1.024-13.824-2.56-27.136-3.072-40.96 0.512-27.648-1.536-54.784-6.656-81.92-3.584-12.8-9.216-25.088-16.384-36.864-8.192-13.312-18.944-25.088-31.744-34.304-20.48-14.848-45.056-22.528-70.656-22.528-18.432-0.512-36.864 3.584-53.76 12.288-17.408 9.728-31.232 24.064-40.448 41.984-8.192 17.92-12.8 37.376-12.8 56.832-0.512 19.456 1.024 38.4 2.048 57.856 0.512 19.968 0.512 39.936 2.048 59.904 0.512 6.656 1.536 12.8 1.024 19.456v10.24c-8.704 14.848-18.432 29.184-28.672 42.496-7.168 9.216-14.848 18.432-22.016 27.648-9.728 10.752-17.92 23.04-24.576 35.84-4.608 11.264-7.68 23.04-10.752 34.816l-0.512 1.024c-4.096 13.312-9.216 26.624-15.36 39.424-0.512 1.024-1.024 2.56-1.536 3.584-3.584 7.68-7.68 15.36-11.776 22.528l-4.608 8.704c-3.072 5.12-5.632 10.752-7.68 15.872-1.536 3.072-2.048 6.656-3.072 10.24-1.024 7.68-0.512 14.848 1.536 22.016 0.512 2.048 1.024 3.584 1.536 5.632 2.048 5.12 4.096 10.752 6.656 15.36 1.024 2.048 2.56 4.608 3.584 6.656l1.024 1.536c1.024 2.048 2.56 4.096 3.584 6.144 1.536 2.56 3.072 4.608 4.608 7.168v0.512c1.536 2.048 3.072 4.608 5.12 6.656 6.144 24.576 17.92 47.616 33.792 67.584-2.56 4.096-4.608 8.704-7.168 12.8-8.704 12.8-15.872 26.112-21.504 40.448-2.56 7.168-3.072 15.36-1.536 22.528 1.536 7.68 5.12 14.336 11.264 19.456 4.096 3.072 8.704 5.12 13.824 6.144 5.12 1.024 9.728 1.536 14.848 1.536 18.944-1.536 37.888-5.12 55.808-11.264 10.752-3.072 22.016-5.632 33.28-7.68 11.776-2.56 23.04-4.096 35.328-4.608 3.072 0 5.632 0 8.704-0.512 8.192 1.024 15.872 1.024 24.064 1.024h3.072c2.048 0 4.096 0.512 6.144 0.512 14.336 1.024 28.16 2.048 42.496 4.096 12.288 2.048 24.576 4.096 36.864 7.168 18.944 5.632 37.888 9.216 57.344 11.264 5.12 0 10.24 0 15.36-1.024s9.728-3.072 13.824-6.144c6.144-5.12 9.728-11.776 11.264-19.456 1.024-7.68 0.512-15.36-1.536-23.04-5.632-14.336-12.8-28.16-22.016-40.448-3.072-5.12-6.144-10.752-9.216-15.872 13.312-14.848 25.088-31.232 34.816-48.128 6.144 0.512 11.776-0.512 17.408-2.048 14.848-5.12 28.16-14.848 36.864-27.648 2.56-4.096 4.608-8.192 6.144-12.8 5.632-9.216 9.728-19.456 11.776-30.208 4.096-16.384 3.584-34.304 0-52.224z" fill="#020204" p-id="21195"></path><path d="M437.248 350.208c-2.56 3.584-4.608 7.168-5.632 11.776-1.024 4.096-1.536 8.704-1.536 12.8 0.512 8.704-0.512 17.408-2.048 25.6-3.072 8.704-7.68 16.896-13.312 24.064-10.24 12.8-17.92 26.624-23.552 41.984-2.56 9.216-3.584 18.944-2.56 28.672-10.24 15.36-19.456 31.744-26.624 48.64-11.264 25.6-18.944 52.736-22.016 80.896-3.584 34.304 1.536 69.12 14.336 100.864 9.728 23.04 24.576 43.52 43.008 59.904 9.728 8.192 19.968 15.36 31.232 20.992 39.936 19.456 87.04 18.944 126.464-1.024 19.968-11.776 37.888-25.6 53.76-42.496 10.24-9.216 19.456-19.456 27.136-30.72 13.312-23.04 20.992-48.64 22.528-75.264 8.192-46.08 3.072-93.184-14.336-136.192-7.168-14.336-15.872-27.648-27.136-38.912-3.072-19.968-8.704-39.936-17.408-58.368-6.144-13.312-13.824-26.112-19.456-39.424-2.56-5.632-4.096-11.264-7.168-16.384-2.56-5.632-5.632-10.752-10.24-14.848-4.608-4.096-9.728-7.168-15.872-9.216-5.632-2.048-11.776-3.072-17.92-3.072-12.288-0.512-24.576 1.024-36.864 0.512-9.728-0.512-19.456-2.048-29.184-1.536-5.12 0-9.728 1.024-14.336 3.072-4.096 1.024-8.192 4.096-11.264 7.68m4.096-107.008c-4.608 0.512-9.216 2.048-12.288 5.632-3.072 3.072-5.632 7.168-7.168 11.776-2.56 8.704-3.072 18.432-1.536 27.136 0 8.192 1.536 16.384 4.096 24.576 1.536 4.096 3.584 7.68 6.656 10.24 3.072 3.072 6.656 5.12 10.752 6.144 3.584 1.024 7.68 1.024 11.776-0.512 3.584-1.024 7.168-3.072 9.728-6.144 4.096-4.096 6.656-9.216 8.192-14.848 1.536-5.632 2.048-11.264 2.048-16.896 0-7.168-1.024-14.336-3.072-20.992-2.048-6.656-5.632-13.312-10.752-18.432-2.56-2.56-5.12-4.608-8.192-6.144-3.072-0.512-6.656-1.536-10.24-1.536m81.408 0c-7.168 4.608-12.8 11.776-16.384 19.968-3.072 10.752-2.56 22.016 1.536 32.256 3.072 10.752 9.728 20.48 18.944 27.136 4.608 3.072 9.728 5.12 15.36 6.144 5.632 0.512 11.264-0.512 16.384-3.072 6.144-3.584 10.752-8.704 13.824-14.848 2.56-6.144 4.096-13.312 4.608-19.968 0.512-8.704-0.512-17.408-3.072-25.6-3.072-9.216-8.704-16.896-16.896-22.016-4.096-2.56-8.704-4.096-13.312-5.12-4.608-0.512-9.728 0-13.824 1.536-2.56 1.024-5.12 2.56-7.168 3.584" fill="#FFFFFF" p-id="21196"></path><path d="M539.136 265.216c-2.56 0-5.12 1.024-7.68 2.56a29.34 29.34 0 0 0-5.632 5.632c-3.072 4.608-4.608 9.728-4.608 15.36 0 4.096 0.512 8.192 1.536 11.776 1.536 4.096 3.584 7.168 6.656 9.728 3.072 2.56 7.168 4.096 11.264 4.608 4.096 0 8.192-1.024 11.776-3.584 2.56-2.048 5.12-4.608 6.656-7.168 1.536-3.072 2.56-6.144 3.072-9.216 1.024-5.632 0-11.776-2.56-16.896s-7.168-9.216-12.8-11.264c-2.56-1.536-5.12-2.048-7.68-1.536" fill="#020204" p-id="21197"></path><path d="M441.344 243.2c-4.608 0.512-9.216 2.048-12.288 5.632-3.072 3.072-5.632 7.168-7.168 11.776-2.56 8.704-3.072 18.432-1.536 27.136 0 8.192 1.536 16.384 4.096 24.576 1.536 4.096 3.584 7.68 6.656 10.24 3.072 3.072 6.656 5.12 10.752 6.144 3.584 1.024 7.68 1.024 11.776-0.512 3.584-1.024 7.168-3.072 9.728-6.144 4.096-4.096 6.656-9.216 8.192-14.848 1.536-5.632 2.048-11.264 2.048-16.896 0-7.168-1.024-14.336-3.072-20.992-2.048-6.656-5.632-13.312-10.752-18.432-2.56-2.56-5.12-4.608-8.192-6.144-3.072-0.512-6.656-1.536-10.24-1.536" fill="#FFFFFF" p-id="21198"></path><path d="M430.08 281.6c-1.024 5.632-1.024 11.776 1.024 17.408 1.536 3.584 3.584 7.168 6.144 9.728 1.536 2.048 3.584 3.584 6.144 4.608 2.048 1.024 5.12 1.536 7.168 1.024s4.096-2.048 5.632-4.096c1.536-2.048 2.56-4.096 3.072-6.144 2.048-6.656 2.048-13.824-0.512-20.48-1.536-5.12-4.096-9.216-7.68-12.8-2.048-1.536-4.096-2.56-6.144-3.072-2.56-0.512-5.12-0.512-7.168 0.512a10.142 10.142 0 0 0-5.632 5.632c-0.512 2.048-1.536 5.12-2.048 7.68" fill="#020204" p-id="21199"></path><path d="M419.328 353.28c0 0.512 0.512 1.536 1.024 2.048 0.512 1.024 1.536 2.048 3.072 3.072 1.024 1.024 2.048 1.536 3.584 2.048 6.144 4.096 11.264 9.216 15.36 14.848 5.12 8.192 11.776 15.36 18.944 21.504 5.632 3.584 12.288 6.144 18.944 6.656 7.68 0.512 15.872-0.512 23.552-2.56 7.168-2.048 13.824-5.12 19.968-8.704 10.752-8.704 22.528-16.384 34.816-23.04 3.072-1.024 5.632-2.048 8.704-3.072 3.072-1.024 5.12-3.072 6.656-6.144 1.024-2.56 1.536-5.632 1.536-8.704 0.512-3.072 1.536-6.144 2.048-9.216 0.512-3.072 0.512-6.144-0.512-9.216-1.024-2.56-3.072-4.096-5.632-5.632-2.56-1.024-4.608-1.536-7.168-2.048-5.12 0-10.24 0.512-15.36 1.536-6.656 0.512-13.824 0-20.48 0-8.704 0-16.896 2.048-25.6 2.56-9.728 0.512-19.456-1.024-29.184-1.536-4.096 0-8.704 0-12.8 0.512s-8.192 2.048-11.776 4.608c-3.072 2.56-6.144 5.12-9.216 8.192-1.536 1.536-3.072 2.56-5.12 3.584s-4.096 1.536-6.144 1.536h-3.072c-0.512 0-1.024 0.512-1.536 1.024s-1.024 1.024-1.024 1.536c-1.536 2.048-2.56 3.584-3.584 4.608" fill="#D99A03" p-id="21200"></path><path d="M440.832 331.776c-3.584 2.048-6.656 4.096-10.24 6.656-1.536 1.024-3.072 2.56-4.096 4.608-0.512 1.536-1.024 3.072-1.024 4.096v4.608c0 1.024-0.512 2.048-0.512 3.072v1.536c0 0.512 0.512 1.024 0.512 1.536 0.512 0.512 1.024 1.024 1.536 1.024s1.024 0.512 2.048 0.512c3.072 1.024 5.632 2.56 8.192 4.608s4.608 4.608 6.656 6.656c6.656 5.12 15.36 7.68 23.552 7.68s16.896-1.536 25.088-3.584c6.656-1.536 12.8-3.072 18.944-5.12 9.728-3.584 18.432-8.704 26.112-15.36 3.072-3.072 6.656-6.144 10.752-8.704 3.584-2.048 7.168-3.584 10.752-5.632 0.512 0 0.512-0.512 1.024-0.512s0.512-0.512 0.512-1.024v-2.048c0-0.512-0.512-1.024-0.512-1.536l-1.536-1.536c-4.096-3.072-8.704-4.608-13.312-4.608-5.12-0.512-9.728 0-14.336-1.024-4.608-1.024-8.704-2.048-13.312-3.584-4.608-1.536-9.216-2.56-13.824-3.584-11.264-1.536-22.528-1.536-33.28 1.024-10.24 1.024-20.48 5.12-29.696 10.24" fill="#604405" p-id="21201"></path><path d="M439.808 320c-5.12 3.584-9.216 7.68-13.312 12.288-2.048 2.56-4.096 5.632-5.12 8.704-0.512 2.56-1.536 5.12-1.536 7.68 0 1.024-0.512 2.048-0.512 3.072v1.536c0 0.512 0.512 1.024 0.512 1.536 0.512 0.512 1.536 1.024 2.048 1.024 1.024 0 1.536 0 2.56 0.512 3.584 0.512 7.168 2.048 10.24 4.608 3.072 2.048 6.144 4.608 9.216 6.656 7.168 4.096 15.36 6.656 23.552 6.656s16.896-0.512 25.088-2.56c6.656-1.024 12.8-3.072 18.944-5.632 9.216-4.096 17.92-9.216 26.112-15.36 3.584-2.56 7.168-5.632 10.752-8.704 1.024-1.024 2.048-2.048 3.584-3.072 1.024-1.024 2.56-2.048 4.096-2.56 2.56-0.512 4.608-0.512 7.168 0 1.536 0.512 3.584 0.512 5.12 0.512 1.024 0 1.536 0 2.56-0.512s1.536-1.024 2.048-1.536c0.512-1.024 1.024-2.048 1.024-3.072s-0.512-2.56-1.024-3.584c-1.536-2.048-3.072-3.584-5.632-4.608-3.072-1.024-6.144-2.048-9.216-2.56-9.728-2.56-18.944-5.632-28.16-10.24-4.608-2.048-8.704-4.608-13.312-7.168-4.608-2.56-9.216-4.608-13.824-6.144-11.264-3.072-22.528-2.56-33.28 1.536C458.752 303.104 448 310.784 439.808 320" fill="#F5BD0C" p-id="21202"></path><path d="M495.616 306.688c0.512 2.048 3.584 1.536 5.632 2.56 1.536 1.024 3.072 2.56 4.608 2.56 1.536 0 4.096-0.512 4.608-2.048 0.512-2.048-3.072-3.584-5.12-4.608-2.56-1.024-5.632-1.536-8.704 0-0.512 0-1.024 1.024-1.024 1.536z m-29.696-1.024c-2.048-0.512-6.144 3.072-5.12 5.12 0.512 0.512 1.536 1.536 2.048 1.024s2.048-2.56 3.072-3.584c1.536-0.512 1.024-2.56 0-2.56z" fill="#CD8907" p-id="21203"></path><path d="M833.024 783.872c-1.536 4.608-4.096 8.704-7.168 12.288-7.168 7.68-15.872 13.824-25.6 17.92-16.384 7.68-32.256 15.872-47.616 25.088-10.24 6.656-19.456 14.336-28.16 22.528-7.168 7.168-14.848 14.336-23.04 20.48a62.546 62.546 0 0 1-28.16 11.776c-12.8 1.536-25.6-0.512-36.864-5.632-8.192-3.072-15.36-8.704-20.48-15.872-4.096-7.68-6.144-16.896-5.632-25.6 0.512-15.872 2.56-31.232 5.632-46.592 2.048-12.8 4.608-25.6 5.632-38.4 2.56-23.552 2.56-47.616 1.024-71.168-0.512-4.096-0.512-8.192 0-11.776 0.512-8.192 7.168-14.336 15.36-14.336 3.584 0 7.168 0 10.752 1.024 8.704 1.024 16.896 2.56 25.6 4.608 5.12 1.536 10.24 3.072 15.872 4.608 8.704 2.56 17.92 3.584 27.136 2.56a287.865 287.865 0 0 1 29.184-4.608c4.096 0 8.192 1.024 11.776 2.048 4.096 1.024 7.68 3.072 10.752 6.144 2.048 2.048 4.096 5.12 5.12 7.68 1.536 4.096 2.56 8.704 3.072 13.312 0 4.096 0.512 8.192 1.024 12.288 1.536 6.656 4.608 12.8 9.216 17.92s9.216 9.728 14.848 13.824c5.12 4.096 10.24 8.704 15.872 12.288 2.56 1.536 5.12 3.584 7.68 5.632 2.56 2.048 4.608 4.096 6.144 7.168 1.536 4.096 2.048 8.704 1.024 12.8" fill="#F5BD0C" p-id="21204"></path><path d="M833.024 783.872c-1.536 4.608-4.096 8.704-7.168 12.288-7.168 7.68-15.872 13.824-25.6 17.92-16.384 7.68-32.256 15.872-47.616 25.088-10.24 6.656-19.456 14.336-28.16 22.528-7.168 7.168-14.848 14.336-23.04 20.48a62.546 62.546 0 0 1-28.16 11.776c-12.8 1.536-25.6-0.512-36.864-5.632-8.192-3.072-15.36-8.704-20.48-15.872-4.096-7.68-6.144-16.896-5.632-25.6 0.512-15.872 2.56-31.232 5.632-46.592 2.048-12.8 4.608-25.6 5.632-38.4 2.56-23.552 2.56-47.616 1.024-71.168-0.512-4.096-0.512-8.192 0-11.776 0.512-8.192 7.168-14.336 15.36-14.336 3.584 0 7.168 0 10.752 1.024 8.704 1.024 16.896 2.56 25.6 4.608 5.12 1.536 10.24 3.072 15.872 4.608 8.704 2.56 17.92 3.584 27.136 2.56a287.865 287.865 0 0 1 29.184-4.608c4.096 0 8.192 1.024 11.776 2.048 4.096 1.024 7.68 3.072 10.752 6.144 2.048 2.048 4.096 5.12 5.12 7.68 1.536 4.096 2.56 8.704 3.072 13.312 0 4.096 0.512 8.192 1.024 12.288 1.536 6.656 4.608 12.8 9.216 17.92s9.216 9.728 14.848 13.824c5.12 4.096 10.24 8.704 15.872 12.288 2.56 1.536 5.12 3.584 7.68 5.632 2.56 2.048 4.608 4.096 6.144 7.168 1.536 4.096 2.048 8.704 1.024 12.8M295.424 652.8c4.096-1.536 8.704-2.048 13.312-1.024 4.608 1.024 8.704 2.56 12.288 5.12 7.168 5.632 13.312 12.288 17.92 19.456 12.288 16.384 23.552 33.792 34.304 51.2 8.704 14.336 16.384 29.184 26.112 42.496 6.656 8.704 13.824 16.896 19.968 25.6 6.656 8.704 11.776 18.432 14.848 28.672 3.584 13.824 2.048 28.672-4.096 40.96-4.608 8.704-11.776 16.384-19.968 21.504-8.704 5.12-18.432 7.68-28.672 7.168-15.872-2.048-30.72-7.168-45.056-14.336-29.696-11.776-62.464-15.872-93.184-25.088-9.216-3.072-18.944-6.144-28.16-8.704-4.096-1.024-8.704-2.56-12.288-4.096-4.096-1.536-7.68-4.608-9.728-8.192-1.536-3.072-2.56-6.656-2.56-9.728 0-3.584 1.024-6.656 2.048-9.728 2.56-6.144 6.144-12.288 8.704-18.432 3.584-10.24 5.12-21.504 4.096-32.768-0.512-11.264-2.56-22.016-3.072-33.28-0.512-5.12-0.512-9.728 0.512-14.848 1.536-9.728 8.704-17.408 18.944-18.944 4.608-1.024 9.216-1.024 13.824-1.024h13.824c4.608 0 9.216-1.536 13.312-3.584 3.584-2.048 7.168-5.12 9.216-8.704 2.56-3.584 4.608-7.168 6.656-11.264 2.048-4.096 4.608-7.68 7.168-10.752 2.048-3.072 5.632-6.144 9.728-7.68" fill="#F5BD0C" p-id="21205"></path><path d="M295.424 652.8c4.096-1.536 8.704-2.048 13.312-1.024 4.608 1.024 8.704 2.56 12.288 5.12 7.168 5.632 13.312 12.288 17.92 19.456 12.288 16.384 23.552 33.792 34.304 51.2 8.704 14.336 16.384 29.184 26.112 42.496 6.656 8.704 13.824 16.896 19.968 25.6 6.656 8.704 11.776 18.432 14.848 28.672 3.584 13.824 2.048 28.672-4.096 40.96-4.608 8.704-11.776 16.384-19.968 21.504-8.704 5.12-18.432 7.68-28.672 7.168-15.872-2.048-30.72-7.168-45.056-14.336-29.696-11.776-62.464-15.872-93.184-25.088-9.216-3.072-18.944-6.144-28.16-8.704-4.096-1.024-8.704-2.56-12.288-4.096-4.096-1.536-7.68-4.608-9.728-8.192-1.536-3.072-2.56-6.656-2.56-9.728 0-3.584 1.024-6.656 2.048-9.728 2.56-6.144 6.144-12.288 8.704-18.432 3.584-10.24 5.12-21.504 4.096-32.768-0.512-11.264-2.56-22.016-3.072-33.28-0.512-5.12-0.512-9.728 0.512-14.848 1.536-9.728 8.704-17.408 18.944-18.944 4.608-1.024 9.216-1.024 13.824-1.024h13.824c4.608 0 9.216-1.536 13.312-3.584 3.584-2.048 7.168-5.12 9.216-8.704 2.56-3.584 4.608-7.168 6.656-11.264 2.048-4.096 4.608-7.68 7.168-10.752 2.048-3.072 5.632-6.144 9.728-7.68" fill="#F5BD0C" p-id="21206"></path><path d="M301.568 659.968c3.584-1.536 8.192-1.536 11.776-1.024 4.096 1.024 7.68 2.56 10.752 5.12 6.144 5.12 11.264 11.776 14.848 18.944 10.24 16.384 20.48 33.28 29.696 50.688 6.656 13.312 14.336 25.6 23.04 37.888 5.632 7.68 12.288 14.848 18.432 23.04 6.144 7.68 10.752 16.384 13.824 25.6 3.584 12.288 2.048 25.6-4.096 36.864-4.096 8.192-10.752 14.848-18.432 19.456-7.68 4.608-16.896 6.656-26.112 6.656-14.336-2.048-28.16-6.656-41.472-12.8-26.112-9.216-54.272-10.752-80.896-17.92-9.728-2.56-18.944-6.144-28.672-8.704-4.096-1.024-8.704-2.048-12.8-3.584s-7.68-4.608-10.24-8.192c-1.536-3.072-2.56-6.144-2.048-9.216 0-3.072 1.024-6.656 2.048-9.728 2.56-6.144 6.144-11.776 8.192-17.92 3.072-9.216 4.608-19.456 3.584-29.184-0.512-9.728-2.56-19.456-3.072-29.696-0.512-4.608 0-8.704 0.512-13.312 1.024-4.608 3.072-8.192 6.144-11.776 3.584-3.072 8.192-5.12 12.8-6.144a67.093 67.093 0 0 1 14.336 0c4.608 0.512 9.728 1.024 14.336 0.512 4.608 0 9.728-1.536 13.824-4.096 3.584-2.56 6.656-6.144 8.192-9.728 2.048-4.096 3.584-7.68 5.12-11.776s3.584-8.192 5.632-11.776c3.584-3.584 7.168-6.656 10.752-8.192" fill="#F5BD0C" p-id="21207"></path></svg>