<?xml version="1.0" standalone="no"?><!DOCTYPE svg PUBLIC "-//W3C//DTD SVG 1.1//EN" "http://www.w3.org/Graphics/SVG/1.1/DTD/svg11.dtd"><svg t="1542857822228" class="icon" style="" viewBox="0 0 1024 1024" version="1.1" xmlns="http://www.w3.org/2000/svg" p-id="19093" xmlns:xlink="http://www.w3.org/1999/xlink" width="16" height="16"><defs><style type="text/css"></style></defs><path d="M667.2 307.8c-67.2 0-95.6 33-142.4 33-48 0-84.6-32.8-142.8-32.8-57 0-117.8 35.8-156.4 96.8-54.2 86-45 248 42.8 386 31.4 49.4 73.4 104.8 128.4 105.4h1c47.8 0 62-32.2 127.8-32.6h1c64.8 0 77.8 32.4 125.4 32.4h1c55-0.6 99.2-62 130.6-111.2 22.6-35.4 31-53.2 48.4-93.2-127-49.6-147.4-234.8-21.8-305.8-38.4-49.4-92.2-78-143-78z" fill="#fffffe" p-id="19094"></path><path d="M652.4 128c-40 2.8-86.6 29-114 63.2-24.8 31-45.2 77-37.2 121.6h3.2c42.6 0 86.2-26.4 111.6-60.2 24.6-32.2 43.2-77.8 36.4-124.6z" fill="#fffffe" p-id="19095"></path></svg>