<?xml version="1.0" standalone="no"?><!DOCTYPE svg PUBLIC "-//W3C//DTD SVG 1.1//EN" "http://www.w3.org/Graphics/SVG/1.1/DTD/svg11.dtd"><svg t="1542858606563" class="icon" style="" viewBox="0 0 1024 1024" version="1.1" xmlns="http://www.w3.org/2000/svg" p-id="1942" xmlns:xlink="http://www.w3.org/1999/xlink" width="16" height="16"><defs><style type="text/css"></style></defs><path d="M669.255798 163.479552C706.58431 120.216064 731.746109 59.954176 724.860268 0 671.067863 2.048 605.98889 34.354688 567.41782 77.566976 532.781517 115.915264 502.54594 177.20064 510.67434 235.977728 570.679532 240.431616 631.927286 206.793728 669.255798 163.479552M803.814472 543.99232C805.315896 698.972672 945.67317 750.530048 947.226368 751.195648 946.087357 754.830848 924.80855 824.666624 873.294167 896.8576 828.717404 959.218688 782.483891 1021.323264 709.638932 1022.654464 638.088305 1023.934464 615.049206 982.002176 533.195699 982.002176 451.393971 982.002176 425.817984 1021.323264 358.098575 1023.934464 287.790505 1026.443264 234.205194 956.453888 189.317786 894.298112 97.472046 767.170048 27.319291 535.03232 121.546604 378.36288 168.349619 300.591104 251.963418 251.286016 342.773693 250.057216 411.787433 248.777216 476.969953 294.549504 519.165153 294.549504 561.360348 294.549504 640.57342 239.510016 723.824804 247.599616 758.668196 248.982016 856.519639 261.065216 919.320586 349.17888 914.24681 352.19968 802.571914 414.458368 803.814472 543.99232" p-id="1943" fill="#fffffe"></path></svg>