<?xml version="1.0" standalone="no"?><!DOCTYPE svg PUBLIC "-//W3C//DTD SVG 1.1//EN" "http://www.w3.org/Graphics/SVG/1.1/DTD/svg11.dtd"><svg t="1542868608570" class="icon" style="" viewBox="0 0 1024 1024" version="1.1" xmlns="http://www.w3.org/2000/svg" p-id="16223" xmlns:xlink="http://www.w3.org/1999/xlink" width="16" height="16"><defs><style type="text/css"></style></defs><path d="M128 96h768a64 64 0 0 1 64 64v800a64 64 0 0 1-64 64H128a64 64 0 0 1-64-64V160a64 64 0 0 1 64-64z" fill="#E2574C" p-id="16224"></path><path d="M480 224h64v800h-64V224z" fill="#BF392C" p-id="16225"></path><path d="M384 448a32 32 0 1 0 0-64 32 32 0 1 0 0 64z m0 64a32 32 0 1 0 0 64 32 32 0 1 0 0-64z m0 128a32 32 0 1 0 0 64 32 32 0 1 0 0-64z m0 128a32 32 0 1 0 0 64 32 32 0 1 0 0-64zM640 448h224v64h-224v-64z" fill="#F1ABA6" p-id="16226"></path><path d="M288 0h448a32 32 0 0 1 32 32v192a32 32 0 0 1-32 32H288a32 32 0 0 1-32-32V32a32 32 0 0 1 32-32z" fill="#A63124" p-id="16227"></path><path d="M896 960H128a64 64 0 0 1-64-64v64a64 64 0 0 0 64 64h768a64 64 0 0 0 64-64v-64a64 64 0 0 1-64 64z" fill="#CB4E44" p-id="16228"></path><path d="M480 960h64v64h-64z" fill="#AC3327" p-id="16229"></path><path d="M256 32v192a32 32 0 0 0 32 32h224L265.376 9.376A31.776 31.776 0 0 0 256 32zM512 256h224a32 32 0 0 0 32-32V32a31.776 31.776 0 0 0-9.376-22.624L512 256z" fill="#EB8A82" p-id="16230"></path><path d="M512 256l-32-32v32zM544 256V224l-32 32z" fill="#C85D53" p-id="16231"></path></svg>