<?xml version="1.0" standalone="no"?><!DOCTYPE svg PUBLIC "-//W3C//DTD SVG 1.1//EN" "http://www.w3.org/Graphics/SVG/1.1/DTD/svg11.dtd"><svg t="1541560539234" class="icon" style="" viewBox="0 0 1024 1024" version="1.1" xmlns="http://www.w3.org/2000/svg" p-id="9386" xmlns:xlink="http://www.w3.org/1999/xlink" width="16" height="16"><defs><style type="text/css"></style></defs><path d="M514.943906 805.254972c-171.642529 0-248.312085-84.445308-248.312085-147.803288 0-32.63896 23.935237-55.294237 56.862188-55.294238 73.501657 0 54.302269 105.692631 191.449897 105.692631 70.013768 0 108.796532-38.174783 108.796532-77.277536 0-23.51925-11.487634-49.502422-57.758159-60.958057l-152.571136-38.174784c-122.876083-30.879016-145.179372-97.532891-145.179373-160.026899 0-130.011856 122.076109-178.8103 236.760453-178.8103 105.436639 0 230.104665 58.590132 230.104666 136.47565 0 33.438934-29.343065 52.894314-61.982025 52.894314-62.686002 0-51.102371-86.90923-177.658337-86.90923-62.686002 0-97.788883 28.319097-97.788883 68.989801s49.182432 53.66229 92.029067 63.453977l112.508414 25.055202c123.356068 27.679118 154.619072 100.09281 154.619071 168.282636 0 105.628633-81.149413 184.47412-244.120218 184.474119z m470.609-208.249362l-1.247961 5.759817-1.88794-10.239674c0.63998 1.919939 1.88794 3.167899 2.52792 5.119837 5.119837-28.799082 7.711754-58.142147 7.711754-87.549209a483.408591 483.408591 0 0 0-141.851478-342.005099c-44.766573-44.062596-95.868944-79.197476-153.371112-103.5167-56.222208-26.911142-119.51619-39.678735-184.666113-39.678736-30.719021 0-61.598037 2.975905-91.421086 8.703723l5.087837 2.559918-10.207674-1.407955 5.087838-1.055966A284.470932 284.470932 0 0 0 287.207165 0.00064 283.510963 283.510963 0 0 0 85.133606 83.933965 284.950917 284.950917 0 0 0 1.392276 286.551506c0 48.766446 12.447603 96.63692 35.998852 139.003569l0.863973-5.279831 1.759944 10.207674-2.559919-4.895844a486.640488 486.640488 0 0 0 30.399031 271.831336 465.841151 465.841151 0 0 0 103.5487 153.979092c44.126593 44.798572 95.868944 79.229475 153.371111 104.188679 59.486104 25.599184 122.748087 38.302779 187.898011 38.302779 28.127103 0 56.926185-2.559918 84.349311-7.647756l-5.087838-2.655916 10.239674 1.951938-5.759817 1.279959A283.28697 283.28697 0 0 0 736.95283 1023.968001c76.061576 0 147.579296-29.439062 201.945563-83.741331a285.142911 285.142911 0 0 0 83.709331-202.617541 289.270779 289.270779 0 0 0-36.38284-139.355558z" fill="#00AFF0" p-id="9387"></path></svg>