<?xml version="1.0" standalone="no"?><!DOCTYPE svg PUBLIC "-//W3C//DTD SVG 1.1//EN" "http://www.w3.org/Graphics/SVG/1.1/DTD/svg11.dtd"><svg t="1545875549939" class="icon" style="" viewBox="0 0 1024 1024" version="1.1" xmlns="http://www.w3.org/2000/svg" p-id="10188" xmlns:xlink="http://www.w3.org/1999/xlink" width="16" height="16"><defs><style type="text/css"></style></defs><path d="M206.315789 814.800842c-379.444211-411.637895 182.425263-997.221053 614.445474-602.684631 6.201263-2.389895 27.166316-39.242105 46.103579-75.077053 61.153684 178.026105 90.56 323.469474 69.544421 442.336-63.722105 360.395789-464.729263 456.597895-690.538105 270.80421 25.195789-1.761684 36.089263-13.844211 41.359158-26.713263 7.371789-18.004211 0.010105-37.005474-9.050948-44.786526-28.990316-24.892632-61.694316-7.528421-69.008842 18.755368-1.524211 5.473684-1.111579 16.126316-2.856421 17.364211zM862.512842 177.013895c-58.160842 101.945263-180.491789 193.200842-356.707368 198.012631-112.926316 3.082105-185.056 24.875789-241.839158 88.646737-80.936421 90.896842-69.741474 223.264-0.272842 275.578948 7.141053 5.377684 16.8 11.270737 25.037473 11.804631 245.148632-45.365895 409.394526-107.413895 527.085474-317.372631-39.986526 131.983158-132.614737 213.687579-206.197895 267.257263-66.472421 48.394105-224.112842 82.913684-273.62021 106.219789-1.830737 2.477474 0.540632 3.334737 5.861052 2.656 103.023158-13.146947 204.256 7.949474 317.891369-3.545263 254.686316-25.763368 340.808421-247.609263 202.762105-629.258105z" fill="#68bd45" p-id="10189"></path></svg>