<?xml version="1.0" standalone="no"?><!DOCTYPE svg PUBLIC "-//W3C//DTD SVG 1.1//EN" "http://www.w3.org/Graphics/SVG/1.1/DTD/svg11.dtd"><svg t="1542858660312" class="icon" style="" viewBox="0 0 1024 1024" version="1.1" xmlns="http://www.w3.org/2000/svg" p-id="2786" xmlns:xlink="http://www.w3.org/1999/xlink" width="16" height="16"><defs><style type="text/css"></style></defs><path d="M178.6 231h608.8a53.76 53.76 0 0 1 53.76 53.76v421.42H124.84V284.76A53.76 53.76 0 0 1 178.6 231z" fill="#495057" p-id="2787"></path><path d="M178.56 290.52h608.88V686.8H178.56z" fill="#343A40" p-id="2788"></path><path d="M62.16 686.8h841.68a7.16 7.16 0 0 1 7.16 7.2v14a43 43 0 0 1-43 43H98A43 43 0 0 1 55 708v-14a7.16 7.16 0 0 1 7.16-7.16z" fill="#495057" p-id="2789"></path><path d="M414.4 686.44h137.2v3.12a28.6 28.6 0 0 1-28.6 28.6h-80a28.6 28.6 0 0 1-28.6-28.6v-3.12zM178.56 290.52h608.88v36.44H178.56z" fill="#868E96" p-id="2790"></path><path d="M197.04 308.74a8.46 8.46 0 1 0 16.92 0 8.46 8.46 0 1 0-16.92 0Z" fill="#FC7070" p-id="2791"></path><path d="M224.1 308.74a8.46 8.46 0 1 0 16.92 0 8.46 8.46 0 1 0-16.92 0Z" fill="#F7BE1C" p-id="2792"></path><path d="M251.16 308.74a8.46 8.46 0 1 0 16.92 0 8.46 8.46 0 1 0-16.92 0Z" fill="#82C91E" p-id="2793"></path><path d="M220.96 372.14l121.78 0 0 28.68-121.78 0 0-28.68Z" fill="#FD7E14" p-id="2794"></path><path d="M363.72 372.52l74.14 0 0 28.58-74.14 0 0-28.58Z" fill="#FA5252" p-id="2795"></path><path d="M514.7 429.42l74.14 0 0 28.58-74.14 0 0-28.58Z" fill="#CED4DA" p-id="2796"></path><path d="M220.96 429.22l121.78 0 0 28.68-121.78 0 0-28.68Z" fill="#329AF0" p-id="2797"></path><path d="M363.72 429.42l127.74 0 0 28.58-127.74 0 0-28.58Z" fill="#FCC419" p-id="2798"></path><path d="M335.68 629.14h-99.38a14.34 14.34 0 0 1-14.3-14.34 14.34 14.34 0 0 1 14.32-14.34h99.38a14.34 14.34 0 0 1 14.3 14.34 14.34 14.34 0 0 1-14.32 14.34z" fill="#FCC419" p-id="2799"></path><path d="M372.76 600l74.14 0 0 28.58-74.14 0 0-28.58Z" fill="#FA5252" p-id="2800"></path><path d="M372.76 486.24l74.14 0 0 28.58-74.14 0 0-28.58Z" fill="#CED4DA" p-id="2801"></path><path d="M335.68 514.96h-99.38a14.34 14.34 0 0 1-14.32-14.34 14.34 14.34 0 0 1 14.32-14.34h99.38a14.34 14.34 0 0 1 14.32 14.34 14.34 14.34 0 0 1-14.32 14.34z" fill="#FA5252" p-id="2802"></path><path d="M787 675m-198 0a198 198 0 1 0 396 0 198 198 0 1 0-396 0Z" fill="#FCC419" p-id="2803"></path><path d="M725.64 732.12a10 10 0 0 1-7.08-2.92l-48.96-48.98a10 10 0 0 1 0-14.14l48.98-48.98a10 10 0 0 1 14.14 14.14l-41.9 42 41.9 42a10 10 0 0 1-7.08 17.08zM846.2 732.12a10 10 0 0 1-7.08-17.08l41.9-42-41.9-42a10 10 0 0 1 14.14-14.14L902.24 666a10 10 0 0 1 0 14.14l-48.98 48.98a10 10 0 0 1-7.06 3zM767.26 734.82a10 10 0 0 1-9.1-14.14l44.52-98a10 10 0 1 1 18.2 8.28l-44.52 98a10 10 0 0 1-9.1 5.86z" fill="#343A40" p-id="2804"></path><path d="M323.14 543.74l74.32 0 0 28.68-74.32 0 0-28.68Z" fill="#329AF0" p-id="2805"></path><path d="M223 542.74l74.32 0 0 28.68-74.32 0 0-28.68Z" fill="#FD7E14" p-id="2806"></path></svg>