<?xml version="1.0" standalone="no"?><!DOCTYPE svg PUBLIC "-//W3C//DTD SVG 1.1//EN" "http://www.w3.org/Graphics/SVG/1.1/DTD/svg11.dtd"><svg t="1542858332764" class="icon" style="" viewBox="0 0 1126 1024" version="1.1" xmlns="http://www.w3.org/2000/svg" p-id="39210" xmlns:xlink="http://www.w3.org/1999/xlink" width="17.59375" height="16"><defs><style type="text/css"></style></defs><path d="M1019.562667 1024H107.3152a107.690667 107.690667 0 0 1-107.3152-107.793067V107.793067A107.690667 107.690667 0 0 1 107.3152 0h912.247467a107.690667 107.690667 0 0 1 107.349333 107.793067v808.413866A107.690667 107.690667 0 0 1 1019.562667 1024z m-281.6-346.760533a26.999467 26.999467 0 0 0 13.346133 50.346666 26.8288 26.8288 0 0 0 13.277867-3.549866l187.8016-107.793067a26.965333 26.965333 0 0 0 0-46.7968l-187.8016-107.793067a26.8288 26.8288 0 0 0-36.625067 10.0352 27.0336 27.0336 0 0 0 10.001067 36.7616l147.0464 84.3776-147.0464 84.411734z m-266.990934 101.376a26.760533 26.760533 0 0 0 35.976534-12.049067l161.006933-323.345067a26.999467 26.999467 0 0 0-12.014933-36.181333 26.8288 26.8288 0 0 0-36.010667 12.049067l-160.9728 323.3792a26.965333 26.965333 0 0 0 12.014933 36.1472z m-296.448-162.372267l187.8016 107.793067a26.8288 26.8288 0 0 0 36.590934-10.0352 26.965333 26.965333 0 0 0-9.966934-36.7616l-147.0464-84.411734 147.0464-84.3776a26.965333 26.965333 0 0 0 9.966934-36.7616 26.760533 26.760533 0 0 0-36.590934-10.0352l-187.8016 107.793067a26.965333 26.965333 0 0 0 0 46.7968z m788.5824-445.781333H163.805867c-14.882133 0-26.9312 15.428267-26.9312 34.474666s12.049067 34.5088 26.9312 34.5088h799.300266c14.882133 0 26.9312-15.4624 26.9312-34.5088 0-19.0464-12.049067-34.474667-26.9312-34.474666z" fill="#262626" p-id="39211"></path></svg>