<?xml version="1.0" standalone="no"?><!DOCTYPE svg PUBLIC "-//W3C//DTD SVG 1.1//EN" "http://www.w3.org/Graphics/SVG/1.1/DTD/svg11.dtd"><svg t="1542858961324" class="icon" style="" viewBox="0 0 1024 1024" version="1.1" xmlns="http://www.w3.org/2000/svg" p-id="12889" xmlns:xlink="http://www.w3.org/1999/xlink" width="16" height="16"><defs><style type="text/css"></style></defs><path d="M385.6 803.2h248V992H385.6z" fill="#BCBCBC" p-id="12890"></path><path d="M984 849.6h-944C17.6 849.6 0 832 0 809.6V246.4c0-22.4 17.6-40 40-40h944c22.4 0 40 17.6 40 40v561.6c0 22.4-17.6 41.6-40 41.6zM721.6 1024H296c-6.4 0-11.2-4.8-11.2-11.2v-28.8c0-6.4 4.8-11.2 11.2-11.2h425.6c6.4 0 11.2 4.8 11.2 11.2v28.8c0 6.4-4.8 11.2-11.2 11.2z" fill="#EAEAEA" p-id="12891"></path><path d="M1024 739.2H0V144c0-9.6 8-17.6 17.6-17.6H1008c8 0 16 8 16 17.6v595.2z" fill="#3F3F3F" p-id="12892"></path><path d="M964.8 683.2H56V190.4c0-9.6 8-17.6 17.6-17.6h875.2c9.6 0 17.6 8 17.6 17.6v492.8z" fill="#B2EBF2" p-id="12893"></path><path d="M102.4 683.2h864V188.8c0-4.8-4.8-8-9.6-4.8L102.4 683.2z" fill="#FFFFFF" p-id="12894"></path><path d="M510.4 793.6m-22.4 0a22.4 22.4 0 1 0 44.8 0 22.4 22.4 0 1 0-44.8 0Z" fill="#3F3F3F" p-id="12895"></path></svg>