<?xml version="1.0" standalone="no"?><!DOCTYPE svg PUBLIC "-//W3C//DTD SVG 1.1//EN" "http://www.w3.org/Graphics/SVG/1.1/DTD/svg11.dtd"><svg t="1542856406268" class="icon" style="" viewBox="0 0 1024 1024" version="1.1" xmlns="http://www.w3.org/2000/svg" p-id="5325" xmlns:xlink="http://www.w3.org/1999/xlink" width="16" height="16"><defs><style type="text/css"></style></defs><path d="M1015.424 686.528a88.256 88.256 0 0 1-33.536-4.48 56.64 56.64 0 0 1-19.904-17.472l-124.608-177.088 79.68-114.496a101.184 101.184 0 0 1 27.456-24.512 111.744 111.744 0 0 1 57.28-11.008V320H864v17.472a37.888 37.888 0 0 1 25.984 8.256 24.128 24.128 0 0 1 9.344 18.24 43.584 43.584 0 0 1-0.512 6.72 12.8 12.8 0 0 1-4.032 6.72l-66.56 97.024-75.584-110.464-2.24-2.752-2.24-5.76a15.36 15.36 0 0 1 9.6-12.8 52.8 52.8 0 0 1 26.24-5.504V320H623.488v17.472h9.088a113.6 113.6 0 0 1 34.816 4.032 34.56 34.56 0 0 1 18.176 14.016l106.944 158.528-93.376 136.96a98.368 98.368 0 0 1-23.936 22.72 107.008 107.008 0 0 1-60.8 12.8V704h32.832a219.712 219.712 0 0 1-27.776 79.488 108.224 108.224 0 0 1-93.824 30.976H449.984a34.624 34.624 0 0 1-23.488-4.48 32 32 0 0 1-3.264-17.472V641.984h48.896a62.72 62.72 0 0 1 51.2 14.976 89.6 89.6 0 0 1 11.072 51.2h13.44V558.528h-13.632a101.76 101.76 0 0 1-9.344 51.2 62.976 62.976 0 0 1-52.736 14.72h-48.896v-136.96a32 32 0 0 1 3.264-17.472 34.624 34.624 0 0 1 23.488-4.48h71.104a104.896 104.896 0 0 1 85.504 25.6A183.552 183.552 0 0 1 632.576 576h12.8l-17.344-128H369.408l-8.768-123.52H9.088L0 452.48h12.8a196.288 196.288 0 0 1 23.488-89.984 104.832 104.832 0 0 1 79.68-20.48h30.848a10.56 10.56 0 0 1 11.84 6.016 58.496 58.496 0 0 1 1.792 16v296a25.6 25.6 0 0 1-7.296 19.776 102.72 102.72 0 0 1-50.688 6.72h-26.816V704h213.888v-17.472H271.36a100.992 100.992 0 0 1-50.432-6.72 26.048 26.048 0 0 1-7.04-19.776V364.032a69.632 69.632 0 0 1 1.024-14.272 13.312 13.312 0 0 1 7.552-7.744h31.296a104.832 104.832 0 0 1 79.68 20.48A185.024 185.024 0 0 1 355.712 448h-43.968v17.472h12.8a82.688 82.688 0 0 1 39.36 4.992 29.568 29.568 0 0 1 5.568 21.504v296a29.632 29.632 0 0 1-5.568 21.504 82.624 82.624 0 0 1-39.36 4.992h-12.8V832h329.408l19.52-128h96.512v-17.472a33.664 33.664 0 0 1-27.968-9.984 29.76 29.76 0 0 1-7.808-16.512 43.584 43.584 0 0 1 0.512-6.72 12.8 12.8 0 0 1 3.968-6.912L806.4 527.488l88.768 137.024a3.072 3.072 0 0 0 2.24 3.52l2.24 0.512a15.296 15.296 0 0 1-9.344 12.8 51.2 51.2 0 0 1-25.984 5.504V704H1024v-17.472h-8.576z" fill="#4E85F4" p-id="5326"></path></svg>