<?xml version="1.0" standalone="no"?><!DOCTYPE svg PUBLIC "-//W3C//DTD SVG 1.1//EN" "http://www.w3.org/Graphics/SVG/1.1/DTD/svg11.dtd"><svg t="1542858709617" class="icon" style="" viewBox="0 0 1024 1024" version="1.1" xmlns="http://www.w3.org/2000/svg" p-id="5423" xmlns:xlink="http://www.w3.org/1999/xlink" width="16" height="16"><defs><style type="text/css"></style></defs><path d="M543.25888 224.948873l184.484924-183.781759c19.337037-21.286722-6.296523-39.952556-23.971534-39.952556H256.303639c-17.675011 0-45.258256 18.665834-23.971533 39.952556l183.078594 183.781759-223.031151 575.316811 254.993196 207.753293s15.46963 15.981023 31.962045 15.981023 31.962045-15.981023 31.962045-15.981023l224.437481-207.753293-192.475436-575.316811z" fill="#469FCC" p-id="5424"></path><path d="M575.220925 224.948873l128.551345 383.544541 115.990262-115.990261s23.524065-20.16805 3.867407-43.148761c-27.391473-31.994007-248.409014-224.405518-248.409014-224.405519z" fill="#434854" p-id="5425"></path><path d="M256.303639 1.214558c-16.907922 0-42.50952 17.163618-25.921218 37.331668L269.919471 1.214558H256.303639zM405.342656 973.787627l34.423122 28.062676 276.663462-259.371996-15.917098-47.463637zM661.007054 576.978838L317.031525 901.841064l34.391161 27.998751 325.533429-305.205568zM621.533928 458.879081L228.720395 829.862538l34.327236 27.998752 374.499282-351.103065zM581.996879 340.843249l-333.683751 315.145764-37.075972 95.662401 386.868593-362.705288zM544.313628 228.17704l-205.35614 193.913727-37.075972 95.758287 258.317248-242.208377zM620.127598 1.214558l-220.346338 208.072913 15.62944 15.661402-19.273113 49.70098L687.791248 1.214558zM450.88857 1.214558L317.766652 126.953243l31.610463 31.738311L517.337662 1.214558zM269.951433 1.214558L230.382421 38.546226c0.735127 0.862975 1.08671 1.757912 1.949685 2.620888l29.341157 29.437044L335.665397 1.214558H269.951433z" fill="" p-id="5426"></path></svg>