<?xml version="1.0" standalone="no"?><!DOCTYPE svg PUBLIC "-//W3C//DTD SVG 1.1//EN" "http://www.w3.org/Graphics/SVG/1.1/DTD/svg11.dtd"><svg t="1542858244803" class="icon" style="" viewBox="0 0 1024 1024" version="1.1" xmlns="http://www.w3.org/2000/svg" p-id="32865" xmlns:xlink="http://www.w3.org/1999/xlink" width="16" height="16"><defs><style type="text/css"></style></defs><path d="M1024 512c0 282.782-229.222 512-512 512S0 794.782 0 512C0 229.232 229.228 0 512 0s512 229.232 512 512z" fill="#FF8E31" p-id="32866"></path><path d="M1019.956 575.406L764.41 319.862l-0.072-0.072-60.4-12.646L652.8 256H371.2l-17.556 41.702 1.096 2.186-95.144 19.902V697.64h0.072l321.556 321.572c229.302-31.016 410.284-213.718 438.732-443.806z" fill="#ED7425" p-id="32867"></path><path d="M764.386 319.82l-105.744-22.158h-293.3l-105.738 22.158v377.796h504.782z" fill="#F2F9FF" p-id="32868"></path><path d="M598.37 612.29l-15.648 44.278-36.874-29.092-41.754-213.672 15.816-4.568z" fill="#03628A" p-id="32869"></path><path d="M572.354 694.338L512 768l-60.34-73.662 41.222-282.812h38.23z" fill="#0575A5" p-id="32870"></path><path d="M531.112 411.526h-38.23l-16.85-38.54 7.174-21.016h57.604l7.138 21.016z" fill="#03628A" p-id="32871"></path><path d="M371.216 256h281.538l17.576 41.662H353.644z" fill="#B8D1E6" p-id="32872"></path><path d="M353.644 297.662l75.648 153.252 82.682-98.944L371.216 256zM652.754 256l-140.78 95.97 82.73 98.944 75.626-153.252zM585.3 499.72h130.36v16.302h-130.36z" fill="#CEE2F2" p-id="32873"></path><path d="M643.174 461.942h-17.818v37.776h17.818V463.714zM643.174 455.998v-17.814h-17.818v17.814h16.134z" fill="#FF8E31" p-id="32874"></path><path d="M627.06 456h14.422v5.944h-14.422z" fill="#CEE2F2" p-id="32875"></path><path d="M643.174 480.692l4.244-2.514v-14.464h-4.244z" fill="#FF9D4D" p-id="32876"></path><path d="M647.42 461.94h2.104v76.3h-2.104z" fill="#FF8E31" p-id="32877"></path><path d="M647.418 527.084v6.824a3.604 3.604 0 0 1-2.554-3.44c0-1.598 1.08-2.954 2.554-3.384z" fill="#FF9D4D" p-id="32878"></path></svg>