<?xml version="1.0" standalone="no"?><!DOCTYPE svg PUBLIC "-//W3C//DTD SVG 1.1//EN" "http://www.w3.org/Graphics/SVG/1.1/DTD/svg11.dtd"><svg t="1542946096510" class="icon" style="" viewBox="0 0 1024 1024" version="1.1" xmlns="http://www.w3.org/2000/svg" p-id="40028" xmlns:xlink="http://www.w3.org/1999/xlink" width="16" height="16"><defs><style type="text/css"></style></defs><path d="M256 574.4l0 326.4 153.6 0L409.6 574.4l-76.8-64L256 574.4 256 574.4 256 574.4zM0 900.8l153.6 0L153.6 651.2 0 772.8 0 900.8 0 900.8 0 900.8zM768 497.6l0 403.2 153.6 0L921.6 369.6 768 497.6 768 497.6 768 497.6zM512 657.6l0 243.2 153.6 0 0-320L544 683.2 512 657.6 512 657.6 512 657.6zM1024 107.2 729.6 107.2l121.6 115.2-313.6 256L332.8 305.6 0 568l0 115.2 332.8-262.4L544 593.6l377.6-307.2 102.4 96L1024 107.2 1024 107.2 1024 107.2zM1024 107.2" p-id="40029" fill="#0b87da"></path></svg>