<?xml version="1.0" standalone="no"?><!DOCTYPE svg PUBLIC "-//W3C//DTD SVG 1.1//EN" "http://www.w3.org/Graphics/SVG/1.1/DTD/svg11.dtd"><svg t="1542957932357" class="icon" style="" viewBox="0 0 1024 1024" version="1.1" xmlns="http://www.w3.org/2000/svg" p-id="42861" xmlns:xlink="http://www.w3.org/1999/xlink" width="16" height="16"><defs><style type="text/css"></style></defs><path d="M692.9572330000001 120.77326488888889c8.646916 34.78766 9.499907 37.689632 8.703915 73.414283-0.312997 13.766866-8.21992 77.454244-6.087941 96.99505299999998 1.763983 16.099843 5.774944 17.37983 12.145881999999999 30.662701 11.036892 23.096774 7.338928 54.954463 3.099969 78.249235-2.331977 12.743876-7.223929 30.890698-14.704856 41.301597-8.21992 11.491888-24.689759 11.547887-31.942687999999997 24.945756-10.495898 19.256811999999996-4.579955 46.306548-11.178891 67.128345-7.509927 23.57977-26.65174 25.229754-28.074726 56.119452 9.358909 1.3089869999999997 18.716817 2.673974 28.074726 3.9829609999999995 9.386908 19.939805 26.566741 60.073413 44.116569 72.162295 14.705855999999999 4.010961 29.383713 8.049921 44.08957 12.031882999999999 51.539497 21.134793999999996 108.768938 46.392547 160.36843399999998 68.152334 47.017540999999994 19.825806 103.278991 26.908737 120.28882499999999 76.202256 0 33.449673 3.157969 112.496901 2.304977 156.357473H0.1699980000000778c-0.881991-43.86057199999999 2.274978-122.9068 2.274978-156.35847299999995 16.981834-49.29251899999999 73.272284-56.34745 120.290825-76.201256 51.625496-21.759788 108.883937-47.017540999999994 160.36843399999998-68.152334 14.704856-3.981961 29.410712999999998-8.020922 44.116569-12.031882999999999 17.549829-12.088881999999996 34.729661-52.22349 44.08857-72.162295l20.877796-5.062951c-4.721954-26.367743-21.048793999999997-28.415723-27.846728-47.04653999999999-2.673974-28.074726-5.319947999999999-56.149452-7.992922-84.195178 0.113999 1.336987-19.199813-3.526966-21.759787-5.09195-27.220734-17.065833-27.761729-86.356157-30.378704-115.169876-1.1939879999999998-13.169871 17.094833-23.978766 12.031882999999999-48.12753-29.865707999999998-141.424619 12.913874-207.58597299999997 80.469214-229.544758 46.904542-18.999814 134.511686-54.24247 216.231888-3.981961l20.252802 18.772817 32.82468 5.659944c16.439839 9.500906999999998 26.936737 40.989599999999996 26.936737 40.989599999999996z" fill="#0b87da" p-id="42862"></path></svg>