<?xml version="1.0" standalone="no"?><!DOCTYPE svg PUBLIC "-//W3C//DTD SVG 1.1//EN" "http://www.w3.org/Graphics/SVG/1.1/DTD/svg11.dtd"><svg t="1542868672944" class="icon" style="" viewBox="0 0 1391 1024" version="1.1" xmlns="http://www.w3.org/2000/svg" p-id="3905" xmlns:xlink="http://www.w3.org/1999/xlink" width="21.734375" height="16"><defs><style type="text/css"></style></defs><path d="M0 7.488109m158.453739 0l953.396758 0q158.453739 0 158.453739 158.453739l0 610.414614q0 158.453739-158.453739 158.453739l-953.396758 0q-158.453739 0-158.453739-158.453739l0-610.414614q0-158.453739 158.453739-158.453739Z" fill="#EBF1F6" p-id="3906"></path><path d="M145.256699 309.580668m30.083147-0.425318l367.415495-5.194561q30.083147-0.425319 30.508466 29.657828l3.2173 227.562291q0.425319 30.083147-29.657827 30.508465l-367.415496 5.19456q-30.083147 0.425319-30.508466-29.657828l-3.2173-227.56229q-0.425319-30.083147 29.657828-30.508465Z" fill="#4EA2F4" p-id="3907"></path><path d="M716.184157 311.558828h437.252089v37.173114h-437.252089zM716.184157 431.101143h437.252089v37.173113h-437.252089zM716.184157 550.509741h218.626044v37.173113H716.184157zM146.954143 655.343269h1025.336092v37.173114H146.954143zM146.954143 769.536934h490.070002v37.173114H146.954143z" fill="#4EA2F4" p-id="3908"></path><path d="M1190.876792 0H79.427444C35.568519 0 0 54.68994 0 122.216639v103.897515h1270.304236V122.216639C1270.304236 54.68994 1234.735717 0 1190.876792 0z" fill="#1E2B50" p-id="3909"></path><path d="M231.730236 486.860813m-27.812977 0a27.812977 27.812977 0 1 0 55.625954 0 27.812977 27.812977 0 1 0-55.625954 0Z" fill="#FFFFFF" p-id="3910"></path><path d="M343.383292 374.271743m-27.812977 0a27.812977 27.812977 0 1 0 55.625954 0 27.812977 27.812977 0 1 0-55.625954 0Z" fill="#FFFFFF" p-id="3911"></path><path d="M431.101143 514.67379m-27.812977 0a27.812977 27.812977 0 1 0 55.625954 0 27.812977 27.812977 0 1 0-55.625954 0Z" fill="#FFFFFF" p-id="3912"></path><path d="M507.051964 405.828774m-27.812977 0a27.812977 27.812977 0 1 0 55.625954 0 27.812977 27.812977 0 1 0-55.625954 0Z" fill="#FFFFFF" p-id="3913"></path><path d="M718.858481 116.199409m-56.294535 0a56.294535 56.294535 0 1 0 112.58907 0 56.294535 56.294535 0 1 0-112.58907 0Z" fill="#D53A32" p-id="3914"></path><path d="M931.868444 116.199409m-56.294535 0a56.294535 56.294535 0 1 0 112.58907 0 56.294535 56.294535 0 1 0-112.58907 0Z" fill="#FFC02E" p-id="3915"></path><path d="M1147.151583 116.199409m-56.294535 0a56.294535 56.294535 0 1 0 112.58907 0 56.294535 56.294535 0 1 0-112.58907 0Z" fill="#28CA41" p-id="3916"></path><path d="M354.32128 366.516201l6.712555 6.725927-131.897694 131.897694-6.712555-6.712555zM514.807506 406.550842l6.712555 6.712555-105.141076 105.141076-6.712555-6.712555z" fill="#FFFFFF" p-id="3917"></path><path d="M434.444049 505.220052l-7.514853 5.789913-90.686351-117.844118 7.528224-5.789913z" fill="#FFFFFF" p-id="3918"></path></svg>