<?xml version="1.0" standalone="no"?><!DOCTYPE svg PUBLIC "-//W3C//DTD SVG 1.1//EN" "http://www.w3.org/Graphics/SVG/1.1/DTD/svg11.dtd"><svg t="1541574901004" class="icon" style="" viewBox="0 0 1024 1024" version="1.1" xmlns="http://www.w3.org/2000/svg" p-id="17902" xmlns:xlink="http://www.w3.org/1999/xlink" width="16" height="16"><defs><style type="text/css"></style></defs><path d="M812.718987 584.587342c-16.850633 0-36.293671-16.850633-36.293671-36.293671 0-16.850633 16.850633-36.293671 36.293671-36.293671 27.220253 0 44.070886 16.850633 44.070886 36.293671 1.296203 18.146835-18.146835 36.293671-44.070886 36.293671m-198.318987 0c-16.850633 0-36.293671-16.850633-36.293671-36.293671 0-16.850633 16.850633-36.293671 36.293671-36.293671 27.220253 0 44.070886 16.850633 44.070886 36.293671 2.592405 18.146835-16.850633 36.293671-44.070886 36.293671m405.711392 42.774683c0-143.878481-143.878481-260.536709-304.607595-260.536709-171.098734 0-304.607595 116.658228-304.607594 260.536709s134.805063 260.536709 304.607594 260.536709c36.293671 0 71.291139-10.36962 107.584811-16.850633l97.215189 53.144304-27.220253-90.734177c72.587342-51.848101 127.027848-124.435443 127.027848-206.096203" fill="#51C332" p-id="17903"></path><path d="M246.278481 339.605063c-27.220253 0-53.144304-16.850633-53.144304-44.070886s27.220253-44.070886 53.144304-44.070886 44.070886 16.850633 44.070886 44.070886c2.592405 27.220253-16.850633 44.070886-44.070886 44.070886m251.463291-86.845569c27.220253 0 44.070886 16.850633 44.070886 44.070886s-16.850633 44.070886-44.070886 44.070886-53.144304-16.850633-53.144304-44.070886 25.924051-44.070886 53.144304-44.070886m194.43038 94.622784c11.665823 0 22.035443 0 33.701266 2.592406C694.764557 206.096203 541.812658 98.511392 362.936709 98.511392 165.913924 98.511392 3.888608 232.020253 3.888608 403.118987c0 97.21519 53.144304 180.172152 143.878481 241.093671L111.473418 751.797468l124.435443-63.513924c44.070886 10.36962 80.364557 16.850633 127.027848 16.850633 11.665823 0 22.035443 0 33.701266-2.592405-7.777215-24.627848-11.665823-49.255696-11.665823-75.179747 0-150.359494 137.397468-279.979747 307.2-279.979747" fill="#51C332" p-id="17904"></path></svg>