<?xml version="1.0" standalone="no"?><!DOCTYPE svg PUBLIC "-//W3C//DTD SVG 1.1//EN" "http://www.w3.org/Graphics/SVG/1.1/DTD/svg11.dtd"><svg t="1541560268195" class="icon" style="" viewBox="0 0 1024 1024" version="1.1" xmlns="http://www.w3.org/2000/svg" p-id="7930" xmlns:xlink="http://www.w3.org/1999/xlink" width="16" height="16"><defs><style type="text/css"></style></defs><path d="M411.27936 607.65184c-17.98144-7.51616-41.18528 0.23552-52.224 17.55136-11.25376 17.41824-5.9904 38.0928 11.80672 46.20288 18.16576 8.25344 42.14784 0.4096 53.36064-17.41824 11.03872-18.05312 5.2224-38.63552-12.94336-46.336z m44.27776-18.3296c-6.8608-2.70336-15.48288 0.59392-19.52768 7.33184-3.95264 6.83008-1.77152 14.57152 5.13024 17.41824 7.03488 2.88768 15.98464-0.4608 20.02944-7.38304 3.90144-6.9632 1.36192-14.75584-5.632-17.32608z m-28.01664-119.99232c-115.97824 11.45856-203.89888 82.2272-196.36224 158.07488 7.49568 75.89888 107.6224 128.1536 223.65184 116.736 115.97824-11.45856 203.88864-82.21696 196.352-158.11584-7.49568-75.90912-107.6224-128.1536-223.6416-116.69504z m101.76512 178.97472c-23.66464 53.3504-91.72992 81.8176-149.49376 63.25248-55.76704-17.9712-79.38048-72.87808-54.94784-122.28608 23.93088-48.44544 86.3232-75.84768 141.49632-61.55264 57.16992 14.71488 86.28224 68.43392 62.94528 120.58624zM512.04096 0C229.23264 0 0 229.21216 0 512s229.23264 512 511.95904 512c282.76736 0 511.98976-229.21216 511.98976-512C1024 229.21216 794.76736 0 512 0z m-56.48384 794.97216c-145.31584 0-293.9392-70.17472-293.9392-185.62048 0-60.40576 38.36928-130.21184 104.43776-196.12672 88.27904-87.90016 191.1808-127.95904 229.91872-89.37472 17.07008 16.96768 18.70848 46.42816 7.71072 81.59232-5.71392 17.68448 16.71168 7.92576 16.71168 7.96672 71.30112-29.78816 133.50912-31.52896 156.30336 0.82944 12.12416 17.27488 10.94656 41.48224-0.22528 69.5296-5.18144 12.92288 1.5872 14.94016 11.48928 17.8688 40.1408 12.42112 84.92032 42.496 84.92032 95.3856 0 87.63392-126.79168 197.9904-317.32736 197.9904z m263.10656-367.16544a43.8272 43.8272 0 0 0-9.17504-43.08992 44.3904 44.3904 0 0 0-42.04544-13.5168c-17.16224 3.7376-31.90784-12.67712-26.53184-29.55264a22.86592 22.86592 0 0 1 16.896-15.45216c30.52544-6.46144 63.58016 2.92864 85.9648 27.67872a89.6512 89.6512 0 0 1 18.85184 88.09472 23.12192 23.12192 0 0 1-29.07136 14.848 23.05024 23.05024 0 0 1-14.848-29.00992z m134.59456 43.3152v0.13312a26.86976 26.86976 0 0 1-33.78176 17.14176 26.7264 26.7264 0 0 1-17.3056-33.6384 131.1232 131.1232 0 0 0-27.56608-128.6144 132.17792 132.17792 0 0 0-125.51168-40.46848 26.78784 26.78784 0 0 1-31.78496-20.62336c-3.0208-14.49984 6.23616-28.71296 20.61312-31.67232 64.69632-13.8752 131.84 7.79264 176.55808 56.97536 44.3392 48.75264 59.16672 117.8624 38.77888 180.76672z" fill="#EC363D" p-id="7931"></path></svg>