<?xml version="1.0" standalone="no"?><!DOCTYPE svg PUBLIC "-//W3C//DTD SVG 1.1//EN" "http://www.w3.org/Graphics/SVG/1.1/DTD/svg11.dtd"><svg t="1541574798219" class="icon" style="" viewBox="0 0 1024 1024" version="1.1" xmlns="http://www.w3.org/2000/svg" p-id="16537" xmlns:xlink="http://www.w3.org/1999/xlink" width="16" height="16"><defs><style type="text/css"></style></defs><path d="M512 512m-512 0a512 512 0 1 0 1024 0 512 512 0 1 0-1024 0Z" fill="#74B654" p-id="16538"></path><path d="M623.36 411.136a192 192 0 0 1 21.376 1.28c-19.2-89.6-115.2-155.776-223.744-155.776-121.856 0-221.824 83.072-221.824 188.544 0 60.928 33.28 110.976 88.704 149.76l-22.144 66.688 77.568-38.4a379.136 379.136 0 0 0 77.696 11.136c6.912 0 13.824 0 20.736-0.896a164.992 164.992 0 0 1-6.912-46.464c0-96.896 83.2-175.488 188.544-175.488z m-119.168-60.16a27.776 27.776 0 1 1 0 55.424 31.104 31.104 0 0 1-33.28-27.776 30.976 30.976 0 0 1 33.28-27.648z m-155.264 55.424a31.232 31.232 0 0 1-33.408-27.776 31.104 31.104 0 0 1 33.408-27.648 27.776 27.776 0 0 1 0 55.424z" fill="#FFFFFF" p-id="16539"></path><path d="M825.856 583.936c0-88.704-88.704-160.896-188.416-160.896-105.472 0-188.672 72.32-188.672 160.896s83.072 160.896 188.672 160.896a278.784 278.784 0 0 0 66.56-11.136l60.8 32.896-16.64-55.424c44.544-33.408 77.696-77.696 77.696-128z m-249.6-27.648a22.208 22.208 0 1 1 0-44.416 22.784 22.784 0 1 1 0 44.416z m121.984 0a22.208 22.208 0 0 1 0-44.416 22.784 22.784 0 1 1 0 44.416z" fill="#FFFFFF" p-id="16540"></path></svg>