<?xml version="1.0" standalone="no"?><!DOCTYPE svg PUBLIC "-//W3C//DTD SVG 1.1//EN" "http://www.w3.org/Graphics/SVG/1.1/DTD/svg11.dtd"><svg t="1543825753069" class="icon" style="" viewBox="0 0 1024 1024" version="1.1" xmlns="http://www.w3.org/2000/svg" p-id="73409" xmlns:xlink="http://www.w3.org/1999/xlink" width="16" height="16"><defs><style type="text/css"></style></defs><path d="M139.093333 970.666667a352 32 0 1 0 704 0 352 32 0 1 0-704 0Z" fill="#45413C" p-id="73410"></path><path d="M441.6 381.653333l315.093333 148.053334L732.16 768l-53.76 27.093333a181.76 181.76 0 0 1-147.2 8.96l-32-11.946666a190.08 190.08 0 0 0-93.866667-10.026667l-50.986666 7.253333a64 64 0 0 1-60.586667-25.6 21.333333 21.333333 0 0 1 8.32-31.573333l111.573333-51.84-137.6-103.253333z" fill="#FFB59E" p-id="73411"></path><path d="M220.586667 823.253333L128 889.386667a10.666667 10.666667 0 0 1-16.213333-11.733334L142.08 768a18.133333 18.133333 0 0 1 3.2-6.4L579.84 149.333333a21.333333 21.333333 0 0 1 29.653333-5.12l45.653334 32.426667A21.333333 21.333333 0 0 1 661.333333 205.866667L225.706667 818.346667a21.333333 21.333333 0 0 1-5.12 4.906666z" fill="#009FD9" p-id="73412"></path><path d="M177.28 810.666667a26.88 26.88 0 0 1 3.413333-7.04L635.946667 162.346667l-26.453334-18.773334a21.333333 21.333333 0 0 0-29.653333 5.76L145.28 761.173333a18.133333 18.133333 0 0 0-3.2 6.4l-31.36 110.08a10.666667 10.666667 0 0 0 16.213333 11.733334l32.853334-23.253334z" fill="#00B8F0" p-id="73413"></path><path d="M281.813333 568.533333l-29.013333 122.88a65.066667 65.066667 0 0 1-74.666667 49.066667A32.853333 32.853333 0 0 1 149.333333 704l14.293334-137.386667a110.72 110.72 0 0 1 64-89.173333l173.226666-78.293333z" fill="#FFB59E" p-id="73414"></path><path d="M216.106667 544.213333l111.36-39.893333 74.24-104.533333-173.226667 78.293333a110.72 110.72 0 0 0-64 89.173333v10.026667a144.213333 144.213333 0 0 1 51.626667-33.066667z" fill="#FFCEBF" p-id="73415"></path><path d="M400.853333 571.306667l-158.72 78.293333a42.666667 42.666667 0 0 0-19.413333 56.746667A85.333333 85.333333 0 0 0 333.866667 746.666667l58.24-26.453334a75.52 75.52 0 0 1 70.4 3.626667l17.066666 10.026667a323.84 323.84 0 0 0 234.666667 36.693333 147.2 147.2 0 0 1 83.626667 5.973333l99.413333 37.76a21.333333 21.333333 0 0 0 29.013333-20.053333v-213.333333a21.333333 21.333333 0 0 0-21.333333-21.333334h-17.92a308.906667 308.906667 0 0 1-130.986667-29.226666L512 414.72z" fill="#FFCEBF" p-id="73416"></path><path d="M905.6 558.933333h-17.92a308.906667 308.906667 0 0 1-130.986667-29.226666L512 414.72l-52.053333 73.173333 274.133333 113.92a389.546667 389.546667 0 0 0 149.333333 29.226667h21.333334a22.826667 22.826667 0 0 1 24.106666 21.333333V580.266667a21.333333 21.333333 0 0 0-23.253333-21.333334zM268.373333 670.72a277.333333 277.333333 0 0 0 106.666667-80.64l7.253333-8.96-139.093333 68.48a42.666667 42.666667 0 0 0-23.466667 42.666667z" fill="#FFDCD1" p-id="73417"></path></svg>