<?xml version="1.0" standalone="no"?><!DOCTYPE svg PUBLIC "-//W3C//DTD SVG 1.1//EN" "http://www.w3.org/Graphics/SVG/1.1/DTD/svg11.dtd"><svg t="1543310948426" class="icon" style="" viewBox="0 0 1051 1024" version="1.1" xmlns="http://www.w3.org/2000/svg" p-id="50860" xmlns:xlink="http://www.w3.org/1999/xlink" width="16.421875" height="16"><defs><style type="text/css"></style></defs><path d="M527.51583915 512.00963129m-492.86625963 0a492.86625963 492.86625963 0 1 0 985.73251811 0 492.86625963 492.86625963 0 1 0-985.73251811 0Z" fill="#292A2C" p-id="50861"></path><path d="M248.59672235 208.33836942c157.06536391-110.37337941 387.30847232-118.46357447 558.51241586-0.1926235-8.78364103 6.91519033-17.37465742 13.69554489-26.00419898 20.41811171-13.67628231 10.67135317-27.46813895 21.16934429-40.99032405 32.05258354-3.25534037 2.61968213-5.43198777 2.3114843-8.76437731 0.42377216-43.35959495-24.38616064-89.58928213-40.91327374-138.78537558-48.38707314-62.14040576-9.43856071-123.45252864-5.68239901-183.84005916 12.36644182-29.6833115 8.89921536-57.78710983 21.30418119-84.94705095 36.11694308-1.82992555 1.00164381-5.37420117 1.27131648-6.81887858 0.15409948-22.72959602-17.33613341-45.24730709-34.96120093-68.36215125-52.95225515zM806.68536605 816.10466531c-153.07805355 107.58033635-382.62771598 120.40907435-558.26200463-0.09631174 13.90743097-10.88323925 27.66076359-21.61237902 41.37556992-32.36078138 8.68732928-6.79961714 17.47096917-13.52218397 26.06198671-20.43737542 2.61968213-2.09959822 4.54591943-2.33074688 7.70494805-0.55860794 53.53012565 30.24192057 110.93198848 48.07887531 172.24411249 52.60553216 83.29048747 6.14469632 161.59202077-11.09512533 234.6541898-51.68093866 2.96640512-1.63730091 5.25862685-3.58280078 8.93773938-0.6741834 21.70869077 17.22055907 43.59074361 34.20996949 65.43427129 51.27642909 0.69344483 0.55860907 1.23279133 1.29057906 1.84918699 1.92623729zM831.7842341 233.05199047c116.49881315 165.48302051 112.41519104 399.92532423-0.09631175 557.93454422-13.21398613-16.91236125-26.40870969-33.68988445-39.48785778-50.5444591-5.23936427-6.72256683-13.61849571-13.29103531-14.35046571-20.57221006-0.71270741-6.91519033 6.83814115-14.58161437 10.57504029-22.01688974 22.11320035-44.07230237 36.11694307-90.57166336 41.39483363-139.63291876 9.55413504-88.70321379-7.51232455-171.95517611-50.85265692-249.90998756-1.07869298-1.94549987-1.02090525-5.89428509 0.25041123-7.57011114 17.2012965-22.55623509 34.73005341-44.88132153 52.56700701-67.68796786zM279.16610333 720.21658738c-18.29925091 23.46156601-36.57924039 46.90387058-55.64898646 71.34781895-45.5747675-67.47608178-74.14086201-140.96202297-82.05769614-221.26684388-11.96193223-121.31440526 11.76930759-234.73124011 82.05769614-337.26483456 2.75451904 3.35165213 5.33567602 6.37584498 7.8012598 9.49634845 14.69718869 18.81933597 29.2980645 37.71571997 44.14935154 56.43874304 2.88935595 3.64058738 3.1782912 6.27953209 0.78975773 10.5365174-40.75917426 72.98511986-57.96047075 151.22886656-51.73872527 234.61566464 4.46887026 59.96375723 21.53532985 116.13282873 50.64076971 168.69983573 1.30984163 2.33074688 2.56189554 4.71928035 4.00657295 7.39675023zM495.1357952 430.02898432c-15.44842013-13.56070798-31.93700921-21.8820517-50.31331043-26.46649629-17.49023175-4.35329593-35.09603783-5.58608725-52.89446742-2.08033564-20.30253739 4.02583552-30.87757881 16.29596445-30.76200448 35.01898866 0.07704917 9.82380885 5.14305251 16.98941042 12.69390108 21.8242651 13.04062407 8.35986887 26.54354546 16.06481693 40.21982891 23.36525426 23.30746766 12.38570439 46.36452409 24.94476857 65.06828573 44.16861525 38.46695253 39.50712035 39.50712035 104.1708965 1.46393998 143.11940779-19.5127808 19.99433955-44.59238627 28.56609451-71.92568946 29.79888697-38.89072469 1.73361379-74.98840633-7.6664229-107.50328718-29.68331264-4.12214727-2.77378162-6.06764601-5.58608725-5.99059684-10.8447141 0.34672299-22.30582386 0.13483691-44.63091143 0.13483691-68.86297259 2.40779605 2.69673131 3.69837511 4.27624562 5.08526592 5.75944818 27.83412451 29.77962439 61.65884587 45.40140544 102.88031744 43.14770887 15.98776661-0.88606947 28.89355491-7.58937373 35.36571165-22.92221952 6.83814115-16.25744043 6.43363157-32.18742045-5.70166159-46.22968832-11.94266965-13.83038179-28.27715925-21.22713202-44.03377835-29.50995057-17.91400391-9.41929927-36.50219122-17.83695474-53.31823957-28.95134152-49.83175054-32.91939043-49.56207787-93.88479147-20.82262243-129.57796352 18.6459739-23.15336818 43.89894144-34.92267691 72.7539712-38.67883861 28.29642183-3.69837511 56.20759552-1.00164381 83.09786396 9.30372494 1.27131648 0.48155875 2.50410781 1.00164381 3.75616284 1.54098916 20.10991389 8.64880413 20.72630955 9.5348736 20.70704698 31.07020345 0.03852515 14.63940096 0.03852515 29.2980645 0.03852515 45.69034069zM760.43641629 428.7384064c-43.61000505-27.69928761-89.47370781-32.39930653-137.7066826-20.49516203-10.17053184 2.50410781-10.11274411 2.79304419-10.11274411 13.50292139 0 90.16715378 0 180.2957824-0.01926257 270.46293618v8.37913031h-65.99287922v-6.85740374c0-107.96558336 0.03852515-215.91190414-0.11557433-323.8774875 0-5.06600334 1.40615339-7.45453682 6.33731982-9.13036288 40.62433849-13.88816839 82.13474531-22.17098809 125.24392903-19.99434069 26.77469411 1.36762823 52.54774557 6.99224064 76.33677198 20.12917646 4.4881317 2.46558379 6.26027065 5.37420117 6.16395776 10.6520906-0.34672299 18.89638514-0.13483691 37.79277027-0.13483576 57.2285019z" fill="#FFFFFF" p-id="50862"></path><path d="M688.70335033 559.91514567c-22.82590891 0.09631175-40.43171499-17.22055907-40.54728818-39.8923685-0.13483691-22.57549767 17.47096917-40.75917426 39.69974386-41.02884807 22.45992334-0.25041123 41.3370459 18.24146432 41.25999673 40.43171499-0.07704917 22.28656242-18.16441515 40.41245241-40.41245241 40.48950158z" fill="#FF4D5A" p-id="50863"></path></svg>