<?xml version="1.0" standalone="no"?><!DOCTYPE svg PUBLIC "-//W3C//DTD SVG 1.1//EN" "http://www.w3.org/Graphics/SVG/1.1/DTD/svg11.dtd"><svg t="1546828108546" class="icon" style="" viewBox="0 0 1024 1024" version="1.1" xmlns="http://www.w3.org/2000/svg" p-id="10004" xmlns:xlink="http://www.w3.org/1999/xlink" width="16" height="16"><defs><style type="text/css"></style></defs><path d="M343.501644 223.476058c-56.668972 66.81243-93.275016 165.655148-95.834879 276.465226v24.062715c2.591861 110.842077 39.165907 209.556802 95.834879 276.433228 73.436076 95.386903 182.550245 155.895669 304.591724 155.895669 74.907997 0 145.048249-22.910776 205.077041-62.748647a508.932804 508.932804 0 0 1-365.516468 129.785065C216.052455 1010.697991 0 786.581967 0 512.00464c0-282.832886 229.23575-511.972641 511.972641-511.972642h1.919898a510.564717 510.564717 0 0 1 339.309868 130.329036c-60.060791-39.67788-130.169044-62.748647-205.205034-62.748647-121.945484 0-231.123649 60.572763-304.623722 155.895669h0.127993zM1023.945283 511.972641c0 151.703893-65.916478 287.888616-170.742876 381.643606-131.320983 63.99658-253.682444 19.230972-294.224277-8.735533 128.985107-28.318487 226.419901-184.310151 226.4199-372.876074 0-188.661918-97.402795-344.525589-226.4199-372.876075 40.477837-27.902509 162.903295-72.668117 294.224277-8.735533A510.340729 510.340729 0 0 1 1023.945283 512.036638z" fill="#FF1B2D" p-id="10005"></path></svg>