<?xml version="1.0" standalone="no"?><!DOCTYPE svg PUBLIC "-//W3C//DTD SVG 1.1//EN" "http://www.w3.org/Graphics/SVG/1.1/DTD/svg11.dtd"><svg t="1542855772768" class="icon" style="" viewBox="0 0 1024 1024" version="1.1" xmlns="http://www.w3.org/2000/svg" p-id="1092" xmlns:xlink="http://www.w3.org/1999/xlink" width="16" height="16"><defs><style type="text/css"></style></defs><path d="M1004.570079 466.306264L557.499191 19.267373a66.075106 66.075106 0 0 0-93.337088 0l-92.633139 92.793128 117.751279 117.751279a78.458189 78.458189 0 0 1 99.288646 99.864603l113.399602 113.495595a78.426192 78.426192 0 0 1 81.049997 129.654397 78.362196 78.362196 0 0 1-110.935784 0 78.71417 78.71417 0 0 1-17.246722-85.145694l-106.200135-105.624177v278.379382c7.519443 3.679727 14.590919 8.671358 20.830457 14.846901a78.810163 78.810163 0 0 1 0 110.935784 78.71417 78.71417 0 0 1-111.319755 0 78.234206 78.234206 0 0 1 0-110.839791c7.775424-7.679431 16.510777-13.471002 25.822087-17.310718v-281.099181a77.850234 77.850234 0 0 1-25.598104-17.118732 78.234206 78.234206 0 0 1-16.894748-85.721652l-115.703431-116.24739L19.203058 464.258416c-25.598104 25.822088-25.598104 67.578995 0 93.401082l447.102887 446.974896a65.947116 65.947116 0 0 0 93.273092 0L1004.570079 559.643351a65.883121 65.883121 0 0 0 0-93.305089z" fill="#F14E32" p-id="1093"></path></svg>