<?xml version="1.0" standalone="no"?><!DOCTYPE svg PUBLIC "-//W3C//DTD SVG 1.1//EN" "http://www.w3.org/Graphics/SVG/1.1/DTD/svg11.dtd"><svg t="1545616923604" class="icon" style="" viewBox="0 0 1024 1024" version="1.1" xmlns="http://www.w3.org/2000/svg" p-id="2339" xmlns:xlink="http://www.w3.org/1999/xlink" width="16" height="16"><defs><style type="text/css"></style></defs><path d="M955.744 204.8v750.944A68.416 68.416 0 0 1 887.488 1024H136.544a68.448 68.448 0 0 1-68.256-68.256V68.256A68.448 68.448 0 0 1 136.544 0h614.4l204.8 204.8z" fill="#F5696C" p-id="2340"></path><path d="M955.744 204.8H819.2a68.256 68.256 0 0 1-68.256-68.256V0l204.8 204.8z" fill="#FFB5A6" p-id="2341"></path><path d="M691.616 655.968a165.984 165.984 0 0 1-97.888-40.8c-54.208 12.224-105.792 29.92-157.344 51.68-40.992 74.816-79.392 112.928-112.416 112.928-6.624 0-14.56-1.344-19.872-5.472a40.16 40.16 0 0 1-22.464-36.768c0-12.224 2.656-46.24 128.256-101.952a983.04 983.04 0 0 0 70.08-168.64c-15.84-32.672-50.24-112.896-26.464-153.696 7.936-14.976 23.808-23.136 40.992-21.76 13.6 0.192 26.304 6.752 34.368 17.696 17.184 24.48 15.84 76.16-6.592 152.32a409.12 409.12 0 0 0 81.984 108.8c27.744-5.408 55.552-9.504 83.328-9.504 62.176 1.344 71.424 31.328 70.112 48.928 0.064 46.24-43.616 46.24-66.08 46.24z m-370.272 84.352l3.936-1.344c18.496-6.816 33.056-20.384 43.648-38.112a104.64 104.64 0 0 0-47.584 39.456z m175.872-408h-4c-1.312 0-4 0-5.312 1.344-5.248 23.136-1.312 47.616 8 69.408a118.08 118.08 0 0 0 1.312-70.752z m9.248 197.152l-1.312 2.752-1.344-1.408a1127.36 1127.36 0 0 1-39.68 92.48l2.656-1.344v2.72c29.408-10.88 59.424-19.968 89.952-27.2l-1.28-1.344h3.968a402.976 402.976 0 0 1-52.96-66.656z m179.84 72.128c-11.872 0-22.464 0-34.336 2.72 13.216 6.752 26.464 9.504 39.648 10.88 9.248 1.344 18.56 0 26.432-2.72 0-4.064-5.312-10.88-31.744-10.88z" fill="#FFFFFF" p-id="2342"></path></svg>