<?xml version="1.0" standalone="no"?><!DOCTYPE svg PUBLIC "-//W3C//DTD SVG 1.1//EN" "http://www.w3.org/Graphics/SVG/1.1/DTD/svg11.dtd"><svg t="1543993051668" class="icon" style="" viewBox="0 0 1024 1024" version="1.1" xmlns="http://www.w3.org/2000/svg" p-id="97315" xmlns:xlink="http://www.w3.org/1999/xlink" width="16" height="16"><defs><style type="text/css"></style></defs><path d="M716.832 970.24L759.04 1024c66.592-28.832 124.832-69.12 172.832-121.632l-40.352-56.224a439.904 439.904 0 0 1-174.08 124.128h-0.608zM512 947.168c-246.4 0-446.08-197.088-446.08-441.6C65.92 262.4 265.6 65.28 512 65.28s446.112 198.4 446.112 441.6c0 108.8-40.352 208.672-106.976 285.44l40.32 53.792c81.376-89.696 132.512-208.736 132.512-339.232 0-280.96-229.12-506.88-512-506.88s-512 226.592-512 505.6c0 280.32 229.12 506.88 512 506.88 72.96 0 142.08-14.752 204.832-42.24l-40.992-53.76c-51.2 19.2-106.24 30.688-163.84 30.688z" fill="#FB6022" p-id="97316"></path><path d="M768 539.552c-96-79.36-227.84-89.632-332.832-151.712-32-20.448-6.304-59.52 25.696-60.8 115.168-19.2 229.088 26.88 336.608 64l6.432-113.28c-134.432-48.64-280.32-80-422.432-57.6-51.2 12.8-102.4 28.8-138.848 66.56-49.952 51.2-40.992 143.36 16.608 184.32 95.392 74.88 220.832 85.792 325.152 143.36 40.96 16.64 23.68 71.68-16.672 75.52-124.8 23.68-247.68-30.752-355.2-89.6-1.28 43.52-2.56 85.76-2.56 128 136.32 60.128 288 88.288 435.2 65.248 49.92-9.6 101.12-25.6 137.6-62.048 52.448-51.2 47.392-149.792-14.08-192h-0.64z" fill="#FB6022" p-id="97317"></path></svg>